<svg width="564" height="305" viewBox="0 0 564 305" fill="none" xmlns="http://www.w3.org/2000/svg">
<path fill-rule="evenodd" clip-rule="evenodd" d="M257.353 65.5017C269.964 65.5017 281.835 67.6476 292.951 71.9564C304.067 76.2477 313.74 82.1091 321.953 89.5231C330.167 96.9547 336.64 105.659 341.37 115.673C346.102 125.686 348.458 136.397 348.458 147.823C348.458 159.093 346.102 169.699 341.37 179.643C336.64 189.586 330.167 198.256 321.953 205.67C313.74 213.084 304.067 218.946 292.951 223.254C281.835 227.546 269.964 229.709 257.353 229.709C244.743 229.709 232.924 227.546 221.878 223.254C210.851 218.946 201.213 213.084 192.999 205.67C184.785 198.256 178.313 189.586 173.582 179.643C168.851 169.699 166.494 159.093 166.494 147.823C166.494 136.397 168.851 125.686 173.582 115.673C178.313 105.659 184.785 96.9547 192.999 89.5231C201.213 82.1091 210.851 76.2477 221.878 71.9564C232.924 67.6476 244.743 65.5017 257.353 65.5017ZM257.353 206.787C265.988 206.787 274.167 205.234 281.87 202.129C289.592 199.024 296.31 194.82 302.044 189.499C307.76 184.178 312.28 177.933 315.604 170.763C318.928 163.593 320.582 155.953 320.582 147.823C320.582 139.694 318.928 132.018 315.604 124.762C312.28 117.522 307.76 111.207 302.044 105.817C296.31 100.426 289.592 96.1695 281.87 93.0818C274.167 89.9768 265.988 88.4242 257.353 88.4242C248.718 88.4242 240.592 89.9768 232.959 93.0818C225.326 96.1695 218.642 100.426 212.926 105.817C207.192 111.207 202.672 117.522 199.348 124.762C196.042 132.018 194.371 139.694 194.371 147.823C194.371 155.953 196.042 163.593 199.348 170.763C202.672 177.933 207.192 184.178 212.926 189.499C218.642 194.82 225.326 199.024 232.959 202.129C240.592 205.234 248.718 206.787 257.353 206.787ZM476.318 97.1276L488.881 67.9441L564 231.715H535.66L520.563 197.485H435.912L446.013 173.803H510.131L476.318 97.1276ZM25.1508 128.687V231.715H0V65.5017L155.46 231.715H118.754L25.1508 128.687ZM128.814 166.681V98.7513L155.46 68.1708V199.844L128.814 166.681ZM404.998 170.292L467.155 0L482.464 60.6614L404.998 231.715L349.737 107.875H377.368L404.998 170.292ZM266.685 300.17C268.923 300.17 270.976 299.692 272.848 298.74C274.715 297.788 276.246 296.513 277.435 294.918L282.001 297.965C280.251 300.093 278.058 301.78 275.416 303.03C272.777 304.279 269.864 304.904 266.685 304.904C264.061 304.904 261.597 304.452 259.288 303.544C256.98 302.64 254.971 301.413 253.256 299.865C251.544 298.318 250.187 296.506 249.19 294.425C248.194 292.349 247.697 290.121 247.697 287.747C247.697 285.373 248.194 283.145 249.19 281.069C250.187 278.988 251.544 277.176 253.256 275.629C254.971 274.081 256.98 272.854 259.288 271.95C261.597 271.042 264.061 270.59 266.685 270.59C269.864 270.59 272.777 271.215 275.416 272.464C278.058 273.714 280.251 275.401 282.001 277.529L277.435 280.576C276.246 278.981 274.715 277.706 272.848 276.754C270.976 275.802 268.923 275.324 266.685 275.324C264.865 275.324 263.161 275.651 261.571 276.309C259.978 276.967 258.588 277.856 257.398 278.981C256.213 280.106 255.268 281.418 254.567 282.917C253.867 284.417 253.519 286.027 253.519 287.747C253.519 289.467 253.867 291.077 254.567 292.577C255.268 294.076 256.213 295.388 257.398 296.513C258.588 297.638 259.978 298.531 261.571 299.185C263.161 299.843 264.865 300.17 266.685 300.17ZM335.15 294.19V300.078H352.252L347.576 305H329.592V294.19H335.15ZM329.592 289.78V285.093H352.252L347.576 289.78H329.592ZM329.592 280.683V270.781H352.252L347.576 275.61H335.15V280.683H329.592ZM194.637 304.952V277.033L200.248 270.59V304.952H194.637ZM314.879 276.985L320.489 270.542V304.856H314.879V289.666H299.93V285.262H314.879V276.985ZM289.939 304.904V276.985L295.55 270.542V304.904H289.939ZM185.535 270.59L171.149 287.912L185.535 305H179.135L168.044 291.647L166.339 293.701L160.781 300.354V277.033L166.339 270.59V286.155L179.135 270.59H185.535ZM366.654 283.197V304.904H361.355V269.884L394.109 304.904H386.376L366.654 283.197ZM388.495 291.202V276.889L394.109 270.446V298.189L388.495 291.202ZM209.351 275.416L214.713 270.59H247.697L241.364 275.416H231.247V304.904H225.685V275.416H209.351Z" fill="url(#paint0_linear_2_1100)"/>
<defs>
<linearGradient id="paint0_linear_2_1100" x1="100.309" y1="152.5" x2="563.519" y2="306.448" gradientUnits="userSpaceOnUse">
<stop stop-color="#C9A581"/>
<stop offset="1" stop-color="#E4CCB4"/>
</linearGradient>
</defs>
</svg>
