<svg width="777" height="180" viewBox="0 0 777 180" fill="none" xmlns="http://www.w3.org/2000/svg">
<path d="M456.765 36.5988C450.379 41.6561 444.845 46.893 440.147 52.3096C435.449 57.7262 432.018 62.6038 429.853 66.9425C427.688 71.2811 426.961 74.7125 427.688 77.2367C428.416 79.7698 430.94 80.731 435.279 80.1291C434.794 82.6623 433.231 84.2253 430.581 84.8271C427.931 85.429 425.128 85.1864 422.182 84.0995C419.227 83.0126 416.613 81.1262 414.322 78.4134C412.031 75.7006 411.007 72.2423 411.25 68.0294C411.492 64.4183 412.903 60.3851 415.49 55.9296C418.077 51.4742 421.418 46.9649 425.514 42.3837C429.611 37.8114 434.273 33.383 439.51 29.1072C444.746 24.8314 450.136 21.0407 455.678 17.726C461.212 14.4204 466.754 11.8513 472.297 10.0458C477.83 8.24026 482.95 7.45876 487.648 7.7013C491.376 7.94383 494.987 9.05769 498.481 11.0429C501.976 13.0281 504.949 15.4983 507.419 18.4447C509.889 21.4 511.632 24.6158 512.656 28.1101C513.68 31.6044 513.59 34.919 512.387 38.045C511.183 41.18 509.557 44.1622 507.509 46.9918C505.461 49.8214 503.323 52.4443 501.095 54.8517C498.868 57.2591 496.667 59.4329 494.502 61.3552C492.337 63.2865 490.532 64.8495 489.085 66.0532C492.58 66.4125 496.038 67.8318 499.469 70.302C502.901 72.7723 505.578 75.6288 507.509 78.8805C511.964 77.3175 516.025 75.8713 519.698 74.5419C523.372 73.2214 527.316 72.3681 531.529 72.0087C532.256 71.892 532.759 72.3411 533.065 73.3651C533.361 74.3892 533.487 75.5929 533.424 76.9762C533.361 78.3595 533.029 79.6531 532.427 80.8567C531.825 82.0604 530.918 82.779 529.714 83.0216C525.861 83.866 522.07 84.9529 518.333 86.2733C514.596 87.6028 511.587 88.8604 509.305 90.064C508.578 95.84 506.629 101.921 503.431 108.308C500.242 114.695 496.262 121.019 491.511 127.271C486.75 133.532 481.36 139.46 475.342 145.065C469.314 150.671 463.062 155.512 456.559 159.608C450.415 163.579 444.818 165.896 439.761 166.561C434.704 167.217 430.76 166.561 427.931 164.576C425.101 162.591 423.655 159.492 423.592 155.27C423.529 151.057 425.371 146.062 429.099 140.278C432.467 135.22 436.689 130.046 441.746 124.737C446.804 119.447 452.157 114.416 457.825 109.655C463.485 104.904 469.171 100.538 474.893 96.5586C480.606 92.5882 485.825 89.3364 490.514 86.8033C490.63 86.6865 490.72 86.2015 490.783 85.3571C490.846 84.5127 490.783 83.6144 490.603 82.6443C490.424 81.6831 490.091 80.722 489.606 79.7519C489.121 78.7907 488.403 78.126 487.441 77.7577C485.51 77.0391 483.166 77.2187 480.399 78.2967C477.632 79.3836 474.713 81.0094 471.641 83.1743C468.569 85.3481 465.497 87.8723 462.425 90.7647C459.352 93.6571 456.46 96.4867 453.756 99.2534C451.043 102.029 448.663 104.616 446.624 107.023C444.576 109.431 443.13 111.236 442.294 112.44C440.731 114.488 439.195 115.512 437.686 115.512C436.177 115.512 434.767 115.216 433.446 114.605C431.757 113.77 430.437 112.593 429.476 111.084C428.515 109.575 428.389 107.805 429.117 105.757C430.437 101.544 432.278 96.2711 434.623 89.9563C436.967 83.6324 439.465 77.1918 442.115 70.6344C444.764 64.077 447.414 57.7172 450.064 51.573C452.714 45.4378 454.942 40.4434 456.747 36.5808L456.765 36.5988ZM438.701 152.207C440.623 151.362 443.031 149.826 445.923 147.599C448.816 145.371 451.888 142.757 455.131 139.739C458.382 136.729 461.688 133.505 465.065 130.073C468.434 126.642 471.533 123.237 474.372 119.869C477.201 116.5 479.609 113.365 481.594 110.482C483.579 107.589 484.872 105.245 485.474 103.439C481.863 105.73 477.56 108.856 472.557 112.826C467.554 116.806 462.712 121.081 458.014 125.654C453.316 130.235 449.166 134.87 445.555 139.568C441.944 144.266 439.653 148.479 438.692 152.216L438.701 152.207ZM456.038 79.5902C457.484 78.0272 459.829 75.6827 463.08 72.5477C466.332 69.4127 469.853 65.9274 473.644 62.0738C477.435 58.2202 481.198 54.16 484.935 49.8843C488.663 45.6085 491.798 41.5752 494.331 37.7845C496.855 33.9848 498.454 30.5893 499.119 27.5801C499.784 24.5709 498.903 22.3432 496.505 20.8969C495.418 20.1783 493.729 19.9627 491.448 20.2682C489.157 20.5736 486.633 21.1754 483.866 22.0737C481.091 22.9809 478.234 24.1487 475.288 25.5949C472.332 27.0411 469.602 28.667 467.069 30.4725C467.796 30.5893 468.694 30.8947 469.781 31.3798C470.868 31.8649 471.829 32.4937 472.674 33.2752C473.518 34.0567 474.12 34.928 474.479 35.8891C474.839 36.8593 474.776 37.8114 474.3 38.7816C472.737 41.7908 471.138 45.0785 469.512 48.6267C467.886 52.1748 466.287 55.7949 464.724 59.4599C463.161 63.1338 461.625 66.7089 460.116 70.2032C458.607 73.6975 457.25 76.8325 456.056 79.5902H456.038Z" fill="url(#paint0_linear_7_4)"/>
<path d="M574.349 83.2011C574.826 82.7251 575.463 82.5454 576.245 82.6622C577.026 82.7789 577.781 83.0844 578.5 83.5694C579.227 84.0545 579.766 84.6833 580.125 85.4648C580.485 86.2553 580.422 87.0637 579.946 87.9081C578.383 92.6061 576.182 97.2681 573.352 101.903C570.523 106.538 567.298 110.904 563.687 115C560.076 119.096 556.276 122.824 552.306 126.202C548.335 129.57 544.419 132.346 540.565 134.511C538.76 135.481 536.829 135.84 534.79 135.597C532.741 135.355 530.693 134.789 528.645 133.882C526.597 132.975 524.729 131.924 523.049 130.72C521.36 129.516 519.977 128.366 518.89 127.288C516.608 124.881 515.342 121.665 515.099 117.623C514.857 113.59 515.315 109.224 516.456 104.526C517.605 99.8282 519.321 94.9506 521.603 89.8933C523.884 84.836 526.454 80.0751 529.283 75.6197C532.113 71.1643 535.095 67.2478 538.221 63.8793C541.356 60.5107 544.302 58.0405 547.069 56.4775C548.758 55.6331 550.321 55.184 551.767 55.1211C553.213 55.0582 554.713 55.3007 556.285 55.8487C557.848 56.3877 559.447 57.1781 561.073 58.1932C562.699 59.2172 564.531 60.3311 566.579 61.5348C569.472 63.3403 570.792 65.6309 570.55 68.3976C570.55 69.727 570.038 72.0715 569.014 75.4401C567.99 78.8086 566.543 82.3298 564.684 86.0037C562.816 89.6777 560.534 93.1091 557.821 96.298C555.108 99.4868 552.072 101.625 548.695 102.712C546.287 103.313 544.177 103.493 542.371 103.251C540.565 103.008 538.58 102.406 536.406 101.445C535.805 102.649 535.14 104.418 534.421 106.772C533.694 109.125 533.155 111.497 532.795 113.904C532.436 116.321 532.31 118.449 532.436 120.318C532.553 122.186 533.28 123.237 534.601 123.48C536.523 123.839 539.263 122.824 542.82 120.408C546.368 118 550.069 114.838 553.932 110.922C557.785 107.005 561.576 102.586 565.313 97.6454C569.041 92.7139 572.059 87.8901 574.341 83.1922L574.349 83.2011ZM556.285 69.8348C555.082 70.6792 553.545 72.2691 551.677 74.6226C549.809 76.9761 548.003 79.4733 546.26 82.1232C544.518 84.7731 543.009 87.2434 541.742 89.525C540.476 91.8156 539.847 93.2618 539.847 93.8636C542.012 94.223 544.033 93.5672 545.901 91.8785C547.77 90.1897 549.449 88.0608 550.958 85.4648C552.468 82.8778 553.671 80.138 554.569 77.2456C555.468 74.3531 556.043 71.8829 556.285 69.8438V69.8348Z" fill="url(#paint1_linear_7_4)"/>
<path d="M644.972 79.5901C645.331 79.114 646.023 78.8984 647.047 78.9613C648.071 79.0242 649.032 79.2937 649.939 79.7787C650.846 80.2638 651.565 80.8926 652.104 81.6741C652.643 82.4646 652.67 83.273 652.194 84.1084C649.903 88.0878 647.289 92.5073 644.334 97.3849C641.379 102.263 638.253 107.05 634.947 111.739C631.632 116.437 628.228 120.677 624.743 124.477C621.248 128.268 617.817 130.953 614.448 132.516C612.643 133.361 610.748 133.63 608.762 133.325C606.777 133.028 604.972 132.364 603.346 131.34C601.72 130.316 600.336 129.058 599.187 127.549C598.046 126.049 597.408 124.567 597.291 123.129C597.049 121.207 597.291 118.557 598.019 115.18C598.738 111.811 599.528 108.739 600.363 105.972C598.917 107.661 597.381 109.61 595.755 111.847C594.129 114.075 592.351 116.455 590.429 118.979C588.497 121.513 586.485 124.037 584.374 126.561C582.263 129.094 580.062 131.438 577.781 133.603C576.694 134.69 575.041 135.112 572.813 134.87C570.586 134.627 568.385 133.999 566.22 132.975C564.055 131.951 562.16 130.621 560.534 129.004C558.908 127.378 558.216 125.663 558.459 123.857C558.818 119.285 559.905 114.407 561.711 109.224C563.516 104.05 565.717 99.0198 568.304 94.1422C570.891 89.2645 573.783 84.7193 576.972 80.5064C580.161 76.2934 583.323 72.862 586.458 70.2121C588.74 68.4066 590.851 67.3826 592.782 67.14C594.704 66.8975 596.573 67.1131 598.378 67.7688C600.184 68.4336 601.989 69.3947 603.795 70.6613C605.6 71.9278 607.523 73.1585 609.571 74.3622C610.891 72.9159 612.194 71.3799 613.451 69.754C614.709 68.1281 616.074 66.5292 617.511 64.9662C618.356 63.8793 619.703 63.4661 621.572 63.6996C623.44 63.9422 625.21 64.6069 626.898 65.6848C628.587 66.7717 629.935 68.0653 630.959 69.5654C631.983 71.0745 632.073 72.4848 631.228 73.8052C627.132 80.7938 623.853 86.9919 621.383 92.4085C618.913 97.8251 617.107 102.406 615.966 106.134C614.817 109.871 614.278 112.7 614.341 114.623C614.404 116.554 614.853 117.515 615.697 117.515C618.104 117.398 621.778 114.147 626.719 107.76C631.659 101.382 637.741 91.9863 644.963 79.5811L644.972 79.5901ZM601.082 86.6326C601.441 86.1565 601.621 85.3121 601.621 84.0994C601.621 82.8868 601.405 81.7819 600.992 80.7579C600.57 79.7338 599.941 79.105 599.097 78.8625C598.252 78.62 597.166 79.2218 595.845 80.668C593.078 83.318 590.518 86.4439 588.165 90.055C585.811 93.6661 583.763 97.2232 582.021 100.709C580.278 104.203 578.859 107.419 577.781 110.374C576.694 113.329 576.155 115.521 576.155 116.967C577.475 115.88 579.254 114.102 581.482 111.641C583.709 109.17 586.027 106.431 588.434 103.421C590.842 100.412 593.186 97.4029 595.477 94.3937C597.758 91.3845 599.627 88.7974 601.073 86.6236L601.082 86.6326Z" fill="url(#paint2_linear_7_4)"/>
<path d="M711.803 85.7342C712.163 84.8988 712.801 84.5305 713.699 84.6473C714.597 84.7641 715.504 85.0695 716.412 85.5546C717.319 86.0396 718.064 86.6055 718.666 87.2703C719.268 87.935 719.511 88.447 719.394 88.8063C717.705 92.3006 715.63 96.1542 713.16 100.367C710.69 104.589 708.04 108.649 705.21 112.557C702.381 116.473 699.488 119.994 696.542 123.129C693.586 126.264 690.856 128.492 688.323 129.813C686.634 130.657 684.711 130.989 682.547 130.81C680.382 130.63 678.271 130.172 676.223 129.453C674.175 128.726 672.369 127.764 670.806 126.561C669.243 125.357 668.336 124.153 668.093 122.95C667.608 120.902 667.608 118.135 668.093 114.641C668.569 111.155 669.27 107.661 670.168 104.167C671.076 100.673 671.974 97.5106 672.881 94.681C673.788 91.8515 674.417 90.01 674.777 89.1746C672.369 91.2227 669.656 94.178 666.647 98.0226C663.638 101.876 660.656 105.972 657.709 110.302C654.754 114.641 652.05 118.916 649.58 123.129C647.11 127.342 645.214 130.837 643.894 133.603C643.292 134.69 642.088 135.265 640.283 135.319C638.477 135.373 636.672 135.103 634.866 134.502C633.061 133.9 631.462 133.055 630.078 131.968C628.695 130.881 628.183 129.804 628.542 128.717C629.261 125.824 630.348 122.007 631.794 117.246C633.24 112.494 634.929 107.311 636.851 101.706C638.783 96.1093 640.948 90.3603 643.355 84.4587C645.762 78.557 648.412 73.0775 651.305 68.0202C652.149 66.3315 653.496 65.4871 655.365 65.4871C657.233 65.4871 659.066 65.9093 660.871 66.7537C662.677 67.5981 664.15 68.685 665.3 70.0054C666.441 71.3349 666.836 72.4757 666.477 73.4368C665.273 75.961 663.979 78.5211 662.596 81.1171C661.213 83.7041 659.883 86.1115 658.626 88.3392C657.359 90.5669 656.281 92.5252 655.374 94.2139C654.467 95.9027 653.955 97.0435 653.838 97.6453C655.76 94.8786 657.844 92.112 660.072 89.3363C662.299 86.5696 664.527 83.9826 666.755 81.5752C668.983 79.1678 671.237 77.003 673.528 75.0717C675.81 73.1494 678.046 71.5235 680.211 70.1941C681.657 69.3587 683.436 69.1072 685.538 69.4665C687.64 69.8258 689.598 70.5534 691.413 71.6403C693.218 72.7272 694.637 74.0207 695.652 75.5208C696.676 77.0299 696.883 78.5031 696.281 79.9493C695.32 82.3567 694.054 85.339 692.491 88.8871C690.928 92.4353 689.418 96.1722 687.972 100.089C686.526 104.005 685.259 107.769 684.182 111.38C683.104 114.991 682.556 118.063 682.556 120.587C684.837 119.267 687.307 117.398 689.966 114.991C692.616 112.584 695.23 109.808 697.826 106.682C700.413 103.556 702.91 100.178 705.327 96.5674C707.734 92.9563 709.899 89.3453 711.83 85.7342H711.803Z" fill="url(#paint3_linear_7_4)"/>
<path d="M766.526 82.2939C768.215 82.0514 770.137 82.4736 772.302 83.5605C774.467 84.6474 776.03 85.6085 777 86.4529C776.515 86.938 776.183 87.2075 776.003 87.2614C775.823 87.3242 775.608 87.3242 775.374 87.2614C775.132 87.2075 774.799 87.1176 774.377 86.9919C773.955 86.8751 773.38 86.8751 772.661 86.9919C770.856 87.3512 768.206 88.5279 764.712 90.5131C761.217 92.4983 757.606 94.726 753.878 97.1963C750.142 99.6665 746.683 102.074 743.494 104.418C740.306 106.772 738.222 108.479 737.26 109.566C737.862 110.527 738.464 111.434 739.066 112.278C739.668 113.123 740.27 114.021 740.872 114.991C742.677 118.243 743.459 121.495 743.216 124.746C742.973 127.998 741.985 131.16 740.234 134.232C738.482 137.304 736.174 140.17 733.281 142.811C730.389 145.461 727.317 147.688 724.074 149.494C721.909 150.697 719.466 151.569 716.762 152.108C714.049 152.647 711.399 152.835 708.812 152.647C706.225 152.467 703.818 151.955 701.59 151.111C699.362 150.266 697.62 149.036 696.353 147.41C695.086 145.784 694.431 143.826 694.368 141.535C694.314 139.253 695.185 136.604 696.991 133.585C699.757 129.013 703.342 124.737 707.734 120.758C712.127 116.788 716.609 113.051 721.19 109.557C719.025 106.422 716.825 103.448 714.597 100.61C712.369 97.7802 710.833 94.6272 709.989 91.1239C709.261 87.998 709.117 84.836 709.54 81.6382C709.962 78.4493 710.833 75.4042 712.163 72.5207C713.483 69.6282 715.199 66.9514 717.31 64.4811C719.412 62.0109 721.792 59.873 724.442 58.0675C725.762 57.2231 727.334 56.8368 729.14 56.8907C730.946 56.9446 732.751 57.286 734.557 57.8788C736.362 58.4897 738.015 59.2083 739.524 60.0526C741.033 60.897 742.201 61.6156 743.045 62.2175C746.171 57.1602 748.92 53.3964 751.265 50.9262C753.609 48.4559 755.513 46.5606 756.951 45.2401C757.795 44.6383 758.936 44.791 760.382 45.6892C761.828 46.5965 763.185 47.8002 764.442 49.3003C765.709 50.8094 766.67 52.3455 767.335 53.9085C767.99 55.4714 767.901 56.5584 767.065 57.1602C765.134 58.4897 762.852 60.5916 760.202 63.4841C757.552 66.3765 755.082 69.4396 752.801 72.6914C750.51 75.9431 748.74 79.105 747.474 82.1771C746.207 85.2492 746.001 87.7464 746.845 89.6777C746.243 89.9203 745.426 89.8574 744.411 89.4981C743.387 89.1388 742.363 88.5908 741.339 87.8722C740.315 87.1446 739.38 86.2194 738.536 85.0696C737.692 83.9288 737.09 82.6892 736.73 81.3687C736.488 80.4075 736.488 79.2937 736.73 78.0271C736.973 76.7605 737.269 75.5299 737.638 74.3262C738.006 73.1225 738.419 71.9727 738.904 70.8948C739.38 69.8079 739.749 68.9725 739.991 68.3617C737.701 68.2449 735.563 69.4755 733.578 72.0626C731.592 74.6496 730.119 77.7486 729.149 81.3597C728.188 84.9708 727.82 88.7435 728.062 92.651C728.305 96.5675 729.571 99.8462 731.853 102.496C734.134 101.05 736.82 99.2443 739.892 97.0795C742.964 94.9057 746.064 92.7768 749.198 90.6658C752.324 88.5639 755.432 86.7224 758.496 85.1594C761.559 83.5964 764.245 82.6263 766.535 82.267L766.526 82.2939ZM708.192 141.364C709.881 141.248 711.893 140.313 714.247 138.562C716.591 136.819 718.765 134.744 720.75 132.328C722.735 129.92 724.298 127.45 725.448 124.926C726.589 122.393 726.805 120.354 726.077 118.782C722.34 122.276 718.819 125.797 715.513 129.346C712.199 132.894 709.764 136.9 708.201 141.355L708.192 141.364Z" fill="url(#paint4_linear_7_4)"/>
<path d="M7.03551 110.662C9.6405 112.97 12.5868 114.443 15.9015 115.072C19.2071 115.71 22.4319 115.8 25.5669 115.342C28.7019 114.892 31.4596 113.904 33.858 112.377C36.2474 110.859 37.6936 109.054 38.1787 106.988C36.4001 108.146 34.6035 108.892 32.798 109.224C30.9925 109.566 29.3127 109.494 27.7497 108.991C26.1957 108.497 24.8034 107.697 23.5727 106.574C22.3421 105.461 21.4887 104.014 21.0037 102.254C19.7191 97.7803 19.4317 92.4176 20.1144 86.1566C20.7971 79.9046 22.1804 73.4191 24.2464 66.7C26.3215 59.9899 28.9175 53.3606 32.0345 46.8122C35.1605 40.2638 38.52 34.3621 42.1041 29.0982C45.6972 23.8343 49.3891 19.5675 53.1888 16.2799C56.9885 13.0012 60.5637 11.2226 63.9142 10.9711C67.13 10.8543 69.3128 12.4263 70.4806 15.669C71.6484 18.9118 72.0436 23.3133 71.6843 28.8737C71.316 34.434 70.3908 40.8656 68.9086 48.1776C67.4175 55.4895 65.585 63.053 63.4202 70.859C61.2464 78.674 58.9019 86.462 56.3777 94.2141C53.8536 101.975 51.4192 109.116 49.0658 115.629C46.7033 122.15 44.6013 127.774 42.7419 132.49C40.8825 137.215 39.562 140.484 38.7895 142.281C37.3612 145.344 37.5948 148.012 39.4902 150.266C41.3855 152.53 43.8288 154.255 46.8111 155.449C49.7844 156.644 52.7127 157.228 55.5782 157.192C58.4437 157.165 60.1235 156.312 60.6265 154.65C67.7229 130.154 74.9989 109.323 82.4366 92.1481C89.8654 74.9731 96.9438 60.5109 103.663 48.7704C107.741 41.5034 111.765 35.6107 115.727 31.0924C119.697 26.5741 123.057 23.8433 125.823 22.9271C128.59 22.0019 130.449 23.2055 131.402 26.5292C132.363 29.8438 131.941 35.7185 130.135 44.1353C128.707 51.3125 126.748 59.1185 124.251 67.5533C121.754 75.9971 119.266 84.5397 116.769 93.1811C114.271 101.831 112.134 110.365 110.328 118.773C108.532 127.19 107.615 134.888 107.579 141.877C107.678 148.587 109.026 154.12 111.631 158.477C112.376 159.725 113.176 160.857 114.029 161.899C122.338 176.514 191.586 186.135 232.323 172.517C249.534 166.759 264.616 156.231 281.027 149.476C313.275 136.146 348.407 134.915 383.062 137.996C370.145 131.582 356.096 127.109 341.535 124.8C342.828 123.606 344.113 122.276 345.406 120.794C349.305 116.339 353.078 111.38 356.734 105.91C360.39 100.439 363.83 94.8788 367.055 89.2107C370.28 83.5516 373.136 78.4225 375.633 73.8143C376.154 72.8442 376.091 71.9189 375.427 71.0476C374.771 70.1853 373.9 69.4936 372.831 68.9816C371.762 68.4786 370.63 68.2091 369.444 68.1821C368.258 68.1552 367.459 68.4247 367.064 68.9816C359.186 83.363 352.503 94.286 347.032 101.733C341.553 109.188 337.43 113.033 334.636 113.267C333.657 113.302 333.1 112.225 332.947 110.042C332.795 107.859 333.316 104.625 334.492 100.331C335.669 96.0466 337.582 90.7737 340.223 84.5217C342.864 78.2608 346.421 71.0836 350.895 62.9811C351.811 61.4451 351.649 59.8372 350.41 58.1754C349.161 56.5046 347.535 55.0943 345.532 53.9355C343.529 52.7678 341.445 52.094 339.271 51.8964C337.097 51.6988 335.543 52.2378 334.609 53.5043C332.992 55.3368 331.492 57.2142 330.082 59.1096C328.681 61.0139 327.234 62.8015 325.761 64.5082C323.336 63.2237 321.054 61.9032 318.907 60.5378C316.76 59.1814 314.632 58.1574 312.503 57.4747C310.374 56.801 308.2 56.6393 305.981 56.9896C303.753 57.34 301.346 58.5886 298.768 60.7354C295.238 63.8794 291.708 67.9037 288.177 72.8172C284.638 77.7398 281.476 83.0216 278.665 88.6628C275.862 94.3039 273.509 100.116 271.622 106.062C269.736 112.018 268.676 117.605 268.442 122.815C268.236 124.881 269.107 126.795 271.056 128.573C271.793 129.247 272.583 129.849 273.401 130.415C261.903 134.25 250.836 140.565 240.407 145.793C204.674 164.163 149.026 168.573 134.06 160.659C132.237 158.234 131.087 154.857 130.629 150.509C130.099 145.595 130.315 139.739 131.258 132.921C132.201 126.112 133.548 118.773 135.3 110.904C137.043 103.035 139.1 94.9237 141.462 86.5518C143.825 78.1799 146.115 69.9877 148.352 61.9661C150.948 52.5701 152.727 44.3509 153.661 37.3354C154.604 30.3199 154.811 24.4272 154.29 19.6484C153.769 14.8785 152.655 11.0788 150.948 8.26725C149.241 5.44667 147.112 3.54233 144.561 2.53626C139.45 0.53311 134.51 0.299559 129.74 1.82662C124.97 3.36267 120.416 6.09343 116.077 10.0189C111.738 13.9354 107.678 18.5974 103.878 24.005C100.079 29.4126 96.6743 34.9101 93.6561 40.4973C90.6379 46.0846 87.997 51.3754 85.7243 56.3878C83.4517 61.4002 81.6731 65.3616 80.3796 68.2899C81.0174 66.4934 81.9246 63.5111 83.1103 59.3611C84.2871 55.2111 85.3111 50.5939 86.1824 45.4917C87.0448 40.3985 87.6287 35.0987 87.9251 29.6102C88.2215 24.1218 87.6915 19.1813 86.3531 14.7797C85.0057 10.3782 82.7151 6.76713 79.4633 3.93757C76.2745 1.12597 71.6394 -0.185509 65.6389 0.0210938C60.1954 0.218714 54.9584 1.60206 49.9461 4.17112C44.9247 6.74917 40.1908 10.1985 35.7264 14.5372C31.262 18.8759 27.103 23.8523 23.2494 29.4575C19.3868 35.0718 15.9554 41.0183 12.9641 47.2793C9.96388 53.5493 7.43973 59.9719 5.35573 66.5563C3.28072 73.1316 1.72671 79.4555 0.675726 85.5098C-0.357289 91.8517 -0.204583 97.0437 1.12486 101.104C2.45431 105.164 4.42153 108.344 7.02652 110.653M299.028 124.387C301.238 121.585 303.358 118.782 305.388 115.988C307.517 113.033 309.484 110.266 311.281 107.661C313.077 105.065 314.775 102.784 316.383 100.807C315.512 103.987 314.73 107.509 314.03 111.371C313.329 115.225 313.158 118.252 313.518 120.426C313.625 121.315 313.922 122.213 314.38 123.112C313.329 123.148 312.278 123.174 311.227 123.228C307.149 123.435 303.08 123.839 299.028 124.405M290.378 106.763C291.51 103.368 293.028 99.6577 294.914 95.6154C296.801 91.5822 299.028 87.4591 301.607 83.2642C304.185 79.0602 307.023 75.4043 310.131 72.2783C311.604 70.5805 312.844 69.8529 313.832 70.0955C314.82 70.338 315.575 71.0297 316.105 72.1705C316.635 73.3203 316.931 74.5689 316.976 75.9342C317.021 77.2996 316.85 78.2698 316.446 78.8267C314.856 81.3419 312.799 84.3601 310.266 87.8813C307.733 91.3935 305.128 94.9148 302.46 98.427C299.783 101.948 297.205 105.155 294.726 108.048C292.238 110.94 290.252 113.033 288.761 114.317C288.698 112.674 289.237 110.158 290.378 106.763Z" fill="url(#paint5_linear_7_4)"/>
<path d="M147.912 101.346C146.528 105.577 145.558 109.889 145.019 114.291C144.48 118.692 144.831 122.716 146.079 126.372C146.879 129.085 148.639 131.555 151.379 133.783C154.119 136.02 157.218 137.825 160.694 139.209C164.171 140.592 167.629 141.463 171.069 141.814C174.51 142.173 177.321 141.688 179.513 140.385C182.118 138.93 184.463 136.963 186.547 134.484C188.631 132.023 190.427 129.489 191.945 126.902C193.454 124.315 194.73 121.809 195.763 119.375C196.796 116.941 197.631 115.027 198.287 113.635C202.105 114.731 205.41 115.306 208.204 115.333C209.749 115.351 211.357 115.279 213.019 115.135C212.74 117.803 212.552 120.363 212.453 122.788C212.318 126.624 212.489 129.768 213.001 132.22C213.504 134.394 214.824 136.191 216.971 137.628C219.118 139.056 221.561 140.035 224.31 140.547C227.05 141.068 229.816 141.176 232.61 140.871C235.395 140.565 237.604 139.775 239.239 138.472C242.231 136.182 245.5 132.57 249.031 127.657C252.561 122.743 256.01 117.309 259.37 111.371C262.729 105.434 265.765 99.3703 268.478 93.1812C271.2 86.9921 273.23 81.4048 274.595 76.4284C275.826 71.7304 275.808 67.248 274.542 62.9722C273.266 58.7054 271.389 55.1123 268.909 52.1839C266.421 49.2645 263.592 47.2075 260.403 46.0218C257.214 44.836 254.375 44.836 251.905 46.0218C256.064 48.8873 258.507 52.8397 259.253 57.879C259.989 62.9183 259.657 68.4157 258.265 74.3533C256.863 80.2909 254.708 86.3183 251.77 92.4536C248.842 98.5798 245.851 104.131 242.814 109.099C239.769 114.066 236.976 118.171 234.443 121.405C231.9 124.648 230.284 126.354 229.592 126.507C229.367 124.19 229.691 120.543 230.571 115.584C231.442 110.626 232.52 105.452 233.796 100.062C235.071 94.6723 236.401 89.597 237.766 84.8182C239.132 80.0484 240.272 76.6889 241.18 74.7306C241.566 73.7605 241.108 72.7185 239.805 71.5956C238.503 70.4818 236.931 69.5386 235.089 68.784C233.239 68.0295 231.335 67.5804 229.376 67.4456C227.409 67.3109 225.954 67.7331 225.02 68.7301C224.211 69.5835 223.295 71.3621 222.271 74.0659C221.247 76.7697 220.214 80.0933 219.163 84.0367C218.112 87.9712 217.079 92.22 216.046 96.7743C215.336 99.9362 214.761 103.062 214.249 106.188C212.12 106.503 209.974 106.547 207.782 106.314C204.898 106 202.823 105.461 201.539 104.688C202.482 99.7206 203.254 94.9059 203.856 90.2258C204.458 85.5548 204.323 80.6952 203.443 75.6558C202.554 70.2123 200.227 65.9096 196.482 62.7566C192.727 59.6037 188.631 57.4927 184.193 56.4148C179.747 55.3459 175.543 55.1842 171.581 55.9387C167.62 56.6933 165.051 58.1934 163.874 60.4301C162.428 63.2237 161.835 66.0802 162.078 69.0176C162.32 71.9549 162.778 74.8474 163.434 77.7039C162.751 78.4135 162.015 79.0603 161.197 79.6262C160.38 80.2101 159.625 80.8479 158.952 81.5575C157.056 83.4079 155.098 86.1117 153.05 89.6779C151.011 93.244 149.295 97.1336 147.903 101.364M182.81 67.5534C183.403 68.4966 183.978 70.0057 184.543 72.1166C185.109 74.2186 185.541 76.599 185.846 79.2579C186.151 81.9168 186.214 84.5847 186.026 87.2615C185.837 89.9384 185.361 92.247 184.597 94.1962C182.019 88.8066 180.555 83.7223 180.178 78.9435C179.801 74.1647 180.681 70.374 182.81 67.5534ZM162.913 121.764C163.191 117.848 163.784 113.931 164.701 109.988C165.617 106.044 166.569 102.568 167.584 99.514C168.59 96.4688 169.434 94.5915 170.117 93.8818C172.947 98.8493 176.863 102.883 181.876 105.991C180.088 110.85 177.977 115.449 175.543 119.77C173.108 124.1 169.219 127.935 163.883 131.277C162.958 128.843 162.635 125.672 162.913 121.764Z" fill="url(#paint6_linear_7_4)"/>
<defs>
<linearGradient id="paint0_linear_7_4" x1="3.17512e-08" y1="89.5326" x2="818" y2="163.5" gradientUnits="userSpaceOnUse">
<stop stop-color="#C9A581"/>
<stop offset="0.5" stop-color="#E1AA73"/>
<stop offset="1" stop-color="#635140"/>
</linearGradient>
<linearGradient id="paint1_linear_7_4" x1="3.17512e-08" y1="89.5326" x2="818" y2="163.5" gradientUnits="userSpaceOnUse">
<stop stop-color="#C9A581"/>
<stop offset="0.5" stop-color="#E1AA73"/>
<stop offset="1" stop-color="#635140"/>
</linearGradient>
<linearGradient id="paint2_linear_7_4" x1="3.17512e-08" y1="89.5326" x2="818" y2="163.5" gradientUnits="userSpaceOnUse">
<stop stop-color="#C9A581"/>
<stop offset="0.5" stop-color="#E1AA73"/>
<stop offset="1" stop-color="#635140"/>
</linearGradient>
<linearGradient id="paint3_linear_7_4" x1="3.17512e-08" y1="89.5326" x2="818" y2="163.5" gradientUnits="userSpaceOnUse">
<stop stop-color="#C9A581"/>
<stop offset="0.5" stop-color="#E1AA73"/>
<stop offset="1" stop-color="#635140"/>
</linearGradient>
<linearGradient id="paint4_linear_7_4" x1="3.17512e-08" y1="89.5326" x2="818" y2="163.5" gradientUnits="userSpaceOnUse">
<stop stop-color="#C9A581"/>
<stop offset="0.5" stop-color="#E1AA73"/>
<stop offset="1" stop-color="#635140"/>
</linearGradient>
<linearGradient id="paint5_linear_7_4" x1="3.17512e-08" y1="89.5326" x2="818" y2="163.5" gradientUnits="userSpaceOnUse">
<stop stop-color="#C9A581"/>
<stop offset="0.5" stop-color="#E1AA73"/>
<stop offset="1" stop-color="#635140"/>
</linearGradient>
<linearGradient id="paint6_linear_7_4" x1="3.17512e-08" y1="89.5326" x2="818" y2="163.5" gradientUnits="userSpaceOnUse">
<stop stop-color="#C9A581"/>
<stop offset="0.5" stop-color="#E1AA73"/>
<stop offset="1" stop-color="#635140"/>
</linearGradient>
</defs>
</svg>
