<svg width="100" height="100" viewBox="0 0 100 100" fill="none" xmlns="http://www.w3.org/2000/svg">
<rect width="100" height="100" rx="50" fill="white"/>
<g clip-path="url(#clip0_7_5)">
<path d="M50 98C37.1784 98 25.1247 93.0071 16.0588 83.9412C6.99292 74.8753 2 62.8217 2 50C2 37.1784 6.99292 25.1247 16.0588 16.0588C25.1247 6.99292 37.1792 2 50 2C62.8208 2 74.8753 6.99292 83.9412 16.0588C93.0071 25.1247 98 37.1784 98 50C98 62.8217 93.0071 74.8753 83.9412 83.9412C74.8753 93.0071 62.8217 98 50 98ZM50 3.05268C37.4597 3.05268 25.6707 7.93624 16.8035 16.8035C7.93624 25.6707 3.05268 37.4605 3.05268 50C3.05268 62.5395 7.93624 74.3293 16.8035 83.1965C25.6707 92.0638 37.4605 96.9473 50 96.9473C62.5395 96.9473 74.3293 92.0638 83.1965 83.1965C92.0638 74.3293 96.9473 62.5395 96.9473 50C96.9473 37.4605 92.0638 25.6707 83.1965 16.8035C74.3293 7.93624 62.5403 3.05268 50 3.05268Z" fill="#191919"/>
<path d="M11.1694 38.469L12.1127 38.125L12.1436 38.2169C12.0935 38.2603 12.061 38.2978 12.0518 38.3287C12.0409 38.3654 12.0518 38.4665 12.0902 38.6259C12.167 38.9774 12.2029 39.2821 12.1995 39.535C12.1962 39.7879 12.147 40.0676 12.0568 40.3723C11.8748 40.9842 11.5885 41.4433 11.1995 41.7497C10.9774 41.9217 10.727 42.0394 10.4523 42.102C10.156 42.1663 9.8546 42.1571 9.55491 42.0711C9.14169 41.9534 8.81444 41.7222 8.57152 41.3774C8.19503 40.839 8.12741 40.1561 8.37284 39.3296C8.46299 39.0258 8.57486 38.7636 8.7126 38.5449C8.84951 38.3262 9.04652 38.0891 9.30364 37.832C9.42301 37.7176 9.48813 37.6375 9.49898 37.6008C9.50816 37.5707 9.50148 37.5223 9.48312 37.4589L9.56326 37.3979L10.1677 38.1826L10.095 38.2419C10.0708 38.231 10.055 38.2269 10.0499 38.2219C10.0324 38.2135 10.0199 38.2093 10.0099 38.2068C9.90552 38.1776 9.74441 38.2945 9.52569 38.5583C9.31783 38.8071 9.17007 39.0767 9.08325 39.368C8.96304 39.7729 8.96471 40.1361 9.08742 40.4574C9.22517 40.8231 9.46976 41.056 9.82622 41.1578C10.1827 41.2589 10.5199 41.1921 10.8363 40.9558C11.1135 40.7488 11.3138 40.4424 11.434 40.0384C11.5284 39.7212 11.5459 39.3847 11.4916 39.0283C11.4474 38.7511 11.3798 38.5975 11.2921 38.5725C11.2888 38.5716 11.2562 38.5658 11.2011 38.5575L11.1694 38.469ZM12.5201 41.1136L12.2605 40.8473C12.1845 40.768 12.1862 40.7647 12.2071 40.6945C12.3749 40.1294 12.6503 39.8597 12.9651 39.9491C13.1162 39.9925 13.2197 40.0943 13.2781 40.2521C13.3407 40.4224 13.3299 40.6403 13.2506 40.9074C13.1721 41.1712 13.0769 41.3874 12.9617 41.5577L12.8365 41.4383C12.9083 41.3248 12.9575 41.2154 12.9884 41.1119C13.0753 40.8214 13.0277 40.6119 12.864 40.5651C12.7413 40.5301 12.6119 40.6094 12.5719 40.743C12.5418 40.8431 12.5552 40.9383 12.6069 41.0285L12.5201 41.1128V41.1136Z" fill="#191919"/>
<path d="M11.985 35.6891L12.8048 36.0464L13.804 33.7732C13.8616 33.6421 13.8416 33.557 13.7131 33.4518L13.7523 33.3625L14.749 33.7966L14.7098 33.8859C14.552 33.8625 14.471 33.9076 14.4134 34.0387L12.9484 37.3729L12.8641 37.3361C12.8941 37.17 12.8549 37.0882 12.7322 37.0348L9.98234 35.836C9.85879 35.7826 9.78283 35.8101 9.67013 35.9437L9.58582 35.907L11.0075 32.6713C11.0684 32.5335 11.0467 32.4517 10.9207 32.3474L10.9582 32.2606L11.955 32.6955L11.9174 32.7815C11.7521 32.7589 11.6778 32.799 11.6169 32.9359L10.6619 35.1097L11.4007 35.432L11.9934 34.0829C12.051 33.9519 12.0301 33.8701 11.9066 33.7599L11.945 33.6739L12.9175 34.0979L12.8799 34.1839C12.7171 34.1631 12.6395 34.2015 12.5794 34.3384L11.9867 35.6874L11.985 35.6891Z" fill="#191919"/>
<path d="M14.4451 30.5025L14.5261 31.1995L15.3092 31.6712C15.4244 31.7405 15.5062 31.7246 15.6339 31.6061L15.7099 31.652L15.0036 32.8399L14.9252 32.7923C14.9752 32.6312 14.9469 32.5444 14.8317 32.4751L12.2622 30.9265C12.147 30.8573 12.0676 30.8748 11.9399 30.9933L11.8615 30.9457L12.5677 29.7578L12.6462 29.8054C12.5969 29.9715 12.6245 30.0525 12.7397 30.1226L13.769 30.7429L13.5778 28.9122C13.5628 28.7769 13.5327 28.6935 13.4793 28.6617C13.4234 28.6275 13.3532 28.6626 13.2639 28.7678L13.1854 28.7202L14.0845 27.2092L14.1605 27.2551C14.1271 27.3369 14.1104 27.4162 14.1104 27.4863C14.1104 27.5556 14.1346 27.741 14.1805 28.0415L14.35 29.6835L16.4336 29.2444C16.7024 29.1902 16.8819 29.1434 16.9763 29.1067C17.0706 29.07 17.1524 29.009 17.2259 28.9305L17.3018 28.9765L16.4278 30.4457L16.3518 30.3998C16.3927 30.2737 16.3886 30.1978 16.3376 30.1669C16.3176 30.1552 16.2976 30.151 16.2717 30.156C16.245 30.156 16.1673 30.1702 16.0321 30.1994L14.446 30.5025H14.4451Z" fill="#191919"/>
<path d="M14.203 24.7557C14.2832 24.6455 14.3825 24.5813 14.5086 24.5579C14.6346 24.5345 14.7457 24.5604 14.8483 24.6372C14.9452 24.7098 15.0011 24.8117 15.0161 24.9411C15.0312 25.0705 15.0003 25.1857 14.9226 25.2925C14.845 25.3994 14.7432 25.467 14.6163 25.4904C14.4902 25.5137 14.3767 25.4853 14.2765 25.4111C14.1797 25.3384 14.1221 25.2391 14.1087 25.1122C14.0928 24.9828 14.1246 24.8668 14.2022 24.7557M15.8267 25.3985L18.2326 27.195C18.3403 27.2752 18.4229 27.2676 18.5607 27.1616L18.6316 27.2142L17.8194 28.3312L17.7459 28.2761C17.811 28.12 17.791 28.0306 17.6825 27.9505L15.2774 26.154C15.1697 26.0739 15.0896 26.0831 14.9519 26.1891L14.8784 26.134L15.6906 25.017L15.7641 25.0721C15.6998 25.2332 15.7199 25.3176 15.8276 25.3977" fill="#191919"/>
<path d="M18.9256 24.4185L19.7938 25.2107C19.8931 25.3017 19.9757 25.3017 20.1227 25.209L20.1878 25.2691L19.277 26.3043L19.2094 26.2425C19.2887 26.0931 19.2762 26.0021 19.1768 25.9119L16.9563 23.8842C16.8569 23.7932 16.7768 23.7949 16.6299 23.8875L16.5623 23.8249L18.2511 21.9057C18.4698 21.6578 18.6501 21.4775 18.7895 21.369C18.9264 21.2579 19.0733 21.1803 19.2236 21.1336C19.5383 21.0392 19.8388 21.1252 20.1277 21.389C20.5668 21.7897 20.5851 22.2497 20.1861 22.9275L21.3916 23.0285C21.6144 23.0486 21.7731 23.0519 21.8749 23.0361C21.9734 23.0177 22.0677 22.976 22.1462 22.9117L22.2113 22.9709L21.1303 24.1998L21.0652 24.1397C21.1236 24.0286 21.1269 23.9502 21.076 23.9042C21.0393 23.8709 20.9608 23.8517 20.8398 23.84L19.5467 23.7147L18.9272 24.4185H18.9256ZM18.4339 23.9685L19.363 22.9125C19.5032 22.7531 19.5926 22.617 19.6276 22.5126C19.6786 22.3657 19.6393 22.2313 19.5108 22.1136C19.3964 22.0093 19.2829 21.9759 19.1693 22.0093C19.0566 22.0435 18.9172 22.1562 18.7469 22.3499L17.817 23.4059L18.433 23.9685H18.4339Z" fill="#191919"/>
<path d="M22.7756 21.9692L20.8389 19.6585C20.7521 19.555 20.6728 19.5466 20.5158 19.6184L20.4565 19.5483L22.1695 18.0398C22.5268 17.7251 22.8416 17.5222 23.1195 17.4271C23.5102 17.2935 23.8834 17.311 24.2457 17.4788C24.497 17.5949 24.734 17.7852 24.9519 18.0457C25.356 18.5273 25.5137 19.024 25.4253 19.5358C25.3426 19.9941 25.0796 20.3881 24.537 20.8656L22.824 22.3741L22.7648 22.3031C22.8616 22.1645 22.8616 22.0727 22.7748 21.9692M23.2606 21.0993L24.0061 20.4432C24.3475 20.1418 24.5345 19.8463 24.5612 19.5591C24.5896 19.2578 24.4828 18.9623 24.239 18.6717C23.9961 18.3812 23.7273 18.2285 23.4318 18.2118C23.1396 18.1926 22.8583 18.322 22.496 18.6417L21.7505 19.2978L23.2598 21.0993H23.2606Z" fill="#191919"/>
<path d="M27.0264 16.8986L27.5122 17.6591L29.545 16.2734C29.6618 16.1932 29.6911 16.1097 29.641 15.9478L29.7211 15.8927L30.3122 16.8168L30.232 16.8719C30.1143 16.7642 30.0241 16.7584 29.9064 16.8377L26.9254 18.8704L26.8753 18.7928C26.988 18.6676 26.9997 18.5766 26.9262 18.4622L25.2967 15.9119C25.2241 15.7975 25.1464 15.7792 24.982 15.8309L24.9319 15.7533L27.8245 13.7815C27.9472 13.698 27.973 13.6162 27.9255 13.4576L28.0023 13.405L28.5933 14.3291L28.5165 14.3817C28.3921 14.2707 28.3095 14.2632 28.1868 14.3466L26.2434 15.6723L26.6816 16.3568L27.8879 15.5346C28.0048 15.4544 28.0307 15.3735 27.9889 15.2107L28.0657 15.1581L28.6426 16.0605L28.5649 16.1131C28.4422 16.0046 28.3579 15.9945 28.2352 16.078L27.0289 16.9003L27.0264 16.8986Z" fill="#191919"/>
<path d="M31.809 13.8299L31.5076 14.471L31.905 15.3067C31.9634 15.4294 32.0394 15.4611 32.208 15.4302L32.2464 15.5112L31.0334 16.1373L30.9934 16.053C31.1202 15.9428 31.1428 15.8534 31.0843 15.7299L29.7804 12.9851C29.722 12.8624 29.6477 12.8331 29.479 12.864L29.439 12.7797L30.6519 12.1536L30.692 12.2379C30.5634 12.3531 30.5434 12.4375 30.6018 12.561L31.1244 13.6604L31.935 11.9875C31.9943 11.8639 32.0135 11.7755 31.9868 11.7187C31.9584 11.6586 31.8816 11.6494 31.7522 11.6903L31.7121 11.6068L33.2557 10.8096L33.2941 10.8906C33.2231 10.9423 33.1672 11.0008 33.1304 11.0609C33.0945 11.121 33.0152 11.2921 32.8942 11.5751L32.1654 13.0752L34.1197 13.8499C34.3701 13.9518 34.5437 14.0119 34.6414 14.0319C34.7391 14.0528 34.8384 14.0461 34.9403 14.0194L34.9787 14.1004L33.4785 14.8751L33.4401 14.7941C33.5403 14.7081 33.5771 14.6413 33.552 14.5871C33.542 14.5654 33.527 14.5512 33.5036 14.5411C33.4819 14.5261 33.4101 14.4961 33.2832 14.446L31.8115 13.8291L31.809 13.8299Z" fill="#191919"/>
<path d="M36.7125 10.1718L37.5949 12.7388C37.6391 12.8682 37.7109 12.9083 37.8812 12.8966L37.9105 12.9818L36.6391 13.4668L36.609 13.3791C36.7467 13.284 36.7785 13.1971 36.7342 13.0677L35.8527 10.5016L34.7933 10.9056C34.6556 10.9582 34.613 11.035 34.623 11.202L34.5362 11.2345L34.1772 10.1894L34.2674 10.1551C34.3567 10.2887 34.436 10.3188 34.5738 10.2662L37.5523 9.12917C37.6901 9.07658 37.7343 9.00312 37.7235 8.83616L37.8103 8.80276L38.1692 9.84877L38.0824 9.88132C37.9889 9.74609 37.9096 9.71603 37.771 9.76863L36.7117 10.1727L36.7125 10.1718Z" fill="#191919"/>
<path d="M40.6486 10.4498L40.8439 11.3405L43.2022 10.7395C43.3383 10.7044 43.3925 10.636 43.4009 10.4648L43.4935 10.4406L43.7315 11.525L43.6388 11.5484C43.5653 11.4048 43.4835 11.3673 43.3475 11.4023L39.8889 12.2839L39.8689 12.1929C40.0158 12.1144 40.0575 12.0309 40.0283 11.8974L39.3713 8.90711C39.3421 8.77354 39.2761 8.72763 39.1058 8.71928L39.0858 8.62745L42.4417 7.77262C42.5845 7.73672 42.6362 7.66743 42.6446 7.50048L42.7339 7.47794L42.9718 8.56234L42.8825 8.58571C42.804 8.43628 42.7297 8.40039 42.587 8.43628L40.3313 9.01062L40.5075 9.8137L41.9074 9.45724C42.0435 9.42218 42.0953 9.35456 42.1103 9.1851L42.1996 9.16172L42.4317 10.2194L42.3424 10.2419C42.2647 10.0967 42.1896 10.0566 42.0468 10.0934L40.6477 10.4498H40.6486Z" fill="#191919"/>
<path d="M45.4462 8.52979L45.6374 10.656C45.6499 10.7929 45.7134 10.8564 45.8762 10.8806L45.8845 10.9707L44.6265 11.1227L44.6181 11.0292C44.7734 10.9699 44.8251 10.8931 44.8126 10.7554L44.5371 7.69332C44.5246 7.55642 44.4653 7.50299 44.2984 7.4721L44.29 7.3786L45.7443 7.2033L45.7526 7.29679C45.6566 7.33186 45.6099 7.38111 45.6149 7.44539C45.6199 7.49881 45.6624 7.55809 45.7401 7.61986L47.949 9.36709L47.7636 7.30514C47.7511 7.16823 47.691 7.10729 47.5249 7.08392L47.5165 6.99042L48.7746 6.83932L48.7829 6.93282C48.6243 6.99627 48.5759 7.06889 48.5884 7.20664L48.8639 10.2687C48.8764 10.4056 48.9357 10.4623 49.1026 10.4932L49.1102 10.5834L47.7536 10.747L47.7453 10.6569C47.8421 10.6251 47.8889 10.5784 47.883 10.5149C47.8805 10.4849 47.8638 10.4532 47.8338 10.4231C47.8037 10.3931 47.7369 10.3338 47.6301 10.2486L45.4446 8.53229L45.4462 8.52979Z" fill="#191919"/>
<path d="M55.9096 9.31366L55.0481 9.24938C54.9028 9.23853 54.8335 9.28778 54.7734 9.44556L54.6824 9.43888L54.7784 8.44547L54.8694 8.45215C54.8978 8.61327 54.9571 8.6717 55.1023 8.68256L56.9038 8.81612L56.8946 8.91379C56.7319 8.94552 56.6667 9.01898 56.6517 9.17592L56.5749 9.96814C56.5616 10.1059 56.6125 10.1802 56.7669 10.2353L56.7594 10.3129C55.9906 10.6585 55.2442 10.8054 54.5171 10.752C53.8919 10.7061 53.3993 10.5199 53.0387 10.1994C52.845 10.0224 52.6948 9.81204 52.5896 9.5641C52.4644 9.27109 52.4193 8.96305 52.4502 8.64415C52.4928 8.20088 52.6697 7.81854 52.9769 7.49297C53.4578 6.99126 54.1156 6.77337 54.9546 6.83515C55.3227 6.86186 55.7343 6.97373 56.1892 7.1699C56.3687 7.24754 56.4772 7.28594 56.5081 7.28844C56.5457 7.29095 56.5941 7.27759 56.6484 7.24504L56.7252 7.29429L56.1834 8.20756L56.1066 8.16081L56.1083 8.14077C56.1166 8.05729 56.0398 7.96713 55.8829 7.86696C55.5915 7.67996 55.2676 7.57478 54.9128 7.54807C54.5038 7.51801 54.1582 7.604 53.8768 7.80602C53.5805 8.01722 53.411 8.32276 53.3735 8.71511C53.3376 9.08409 53.4344 9.38879 53.6631 9.62922C53.8986 9.87298 54.2492 10.0141 54.7125 10.0483C55.1549 10.0808 55.5348 10.0282 55.8553 9.88633L55.9112 9.31199L55.9096 9.31366Z" fill="#191919"/>
<path d="M59.076 9.63672L58.8756 10.5375L61.2297 11.0242C61.3658 11.0525 61.4434 11.0133 61.5227 10.8597L61.6154 10.8789L61.3717 11.9742L61.279 11.955C61.274 11.7913 61.2164 11.7212 61.0811 11.6928L57.6284 10.9799L57.6493 10.8872C57.8137 10.8797 57.8855 10.8221 57.9156 10.6869L58.5884 7.66326C58.6185 7.52802 58.5793 7.4579 58.4307 7.37526L58.4515 7.28259L61.8016 7.97464C61.9443 8.00386 62.0186 7.96379 62.0971 7.81436L62.1864 7.83272L61.9426 8.92881L61.8533 8.91045C61.8466 8.74015 61.7949 8.6742 61.653 8.64498L59.4015 8.18L59.2204 8.99226L60.6178 9.28026C60.7539 9.30865 60.8282 9.26858 60.9133 9.11998L61.0027 9.13835L60.7648 10.2077L60.6754 10.1894C60.6679 10.0216 60.617 9.95311 60.4751 9.92306L59.0785 9.63505L59.076 9.63672Z" fill="#191919"/>
<path d="M63.6255 11.7387L65.6324 12.4116C65.7701 12.4575 65.8419 12.425 65.9438 12.2839L66.0306 12.3131L65.6649 13.3758L65.5781 13.3466C65.5898 13.1788 65.5464 13.107 65.4087 13.0611L62.3391 12.0318L62.37 11.9416C62.5336 11.9533 62.6113 11.9049 62.6563 11.7738L63.6656 8.842C63.7107 8.71094 63.6798 8.63581 63.5421 8.53647L63.5729 8.44714L64.8402 8.87206L64.8093 8.96221C64.6415 8.9522 64.568 8.99894 64.5229 9.13001L63.6247 11.7387H63.6255Z" fill="#191919"/>
<path d="M68.1611 12.4892L67.7629 13.324L69.9275 14.355C70.0519 14.4143 70.137 14.3942 70.2472 14.264L70.3324 14.3049L69.8482 15.32L69.763 15.2799C69.7948 15.1188 69.7564 15.0362 69.6311 14.9769L66.4556 13.4651L66.4965 13.3791C66.6568 13.4108 66.7394 13.3708 66.7995 13.2455L68.136 10.4448C68.1953 10.3196 68.1736 10.2411 68.0492 10.1259L68.0901 10.0399L71.1713 11.5067C71.3024 11.5693 71.3834 11.5476 71.4936 11.4198L71.5754 11.4591L71.0912 12.4742L71.0094 12.435C71.0411 12.2663 71.0069 12.1895 70.8758 12.1277L68.8055 11.1418L68.4466 11.894L69.7313 12.5059C69.8557 12.5652 69.9375 12.5443 70.0527 12.4191L70.1345 12.4583L69.662 13.4484L69.5802 13.4092C69.6103 13.2439 69.5777 13.1637 69.4466 13.102L68.1619 12.49L68.1611 12.4892Z" fill="#191919"/>
<path d="M72.9987 14.042L71.8299 15.851C71.7548 15.9678 71.764 16.0588 71.8725 16.1832L71.8233 16.26L70.7739 15.5696L70.8257 15.4903C70.9801 15.5438 71.0669 15.5154 71.1421 15.3985L72.825 12.7931C72.9001 12.6762 72.8885 12.5961 72.7808 12.4642L72.8325 12.3849L74.0455 13.183L73.9937 13.2623C73.8994 13.228 73.8326 13.2372 73.7976 13.2915C73.7683 13.3366 73.7642 13.4117 73.785 13.5102L74.3819 16.3193L75.5156 14.5637C75.5907 14.4468 75.5824 14.3609 75.4713 14.2348L75.5222 14.1555L76.5716 14.8459L76.5198 14.9252C76.3604 14.8734 76.2786 14.9001 76.2034 15.017L74.5205 17.6224C74.4454 17.7393 74.4554 17.8228 74.5631 17.9547L74.5138 18.0315L73.3835 17.2868L73.4328 17.21C73.5254 17.2467 73.5897 17.2409 73.6248 17.1866C73.6415 17.1608 73.6481 17.1249 73.644 17.0815C73.6398 17.038 73.6256 16.9479 73.5972 16.8118L72.9987 14.042Z" fill="#191919"/>
<path d="M78.2671 20.3814L79.7848 21.8648C79.8891 21.9667 79.9668 21.9675 80.1162 21.8824L80.1813 21.9467L79.4141 22.7639L79.349 22.6996C79.4283 22.5502 79.4191 22.4667 79.3156 22.3649L76.9949 20.0959L77.0592 20.0266C77.2011 20.1084 77.2904 20.0967 77.3856 19.9957L79.5026 17.7409C79.5978 17.6399 79.6003 17.5581 79.5193 17.407L79.5844 17.3377L80.5428 18.2744L80.4785 18.3437C80.3324 18.2619 80.2472 18.2735 80.1521 18.3746L78.2688 20.3806L78.2671 20.3814Z" fill="#191919"/>
<path d="M82.0078 23.0344L81.3024 23.6246L82.8025 25.5146C82.8885 25.6231 82.9728 25.6423 83.1264 25.5705L83.1857 25.6448L82.3284 26.3627L82.2691 26.2884C82.3651 26.1549 82.3651 26.0622 82.2783 25.9537L80.0778 23.1813L80.1504 23.1212C80.2806 23.2197 80.3708 23.2197 80.4768 23.1312L82.8434 21.1511C82.9495 21.0626 82.962 20.9808 82.8994 20.8213L82.972 20.7612L85.1074 23.4509C85.1984 23.5653 85.2794 23.5812 85.4313 23.5119L85.4881 23.5837L84.6307 24.3016L84.574 24.2298C84.6733 24.0896 84.6742 24.0044 84.584 23.89L83.149 22.0819L82.5137 22.6136L83.4044 23.7356C83.4912 23.845 83.5722 23.8608 83.7283 23.7966L83.7851 23.8683L82.9478 24.5687L82.891 24.4969C82.9879 24.3584 82.9912 24.2716 82.9002 24.1572L82.0095 23.0352L82.0078 23.0344Z" fill="#191919"/>
<path d="M84.3294 27.8562L85.3278 29.5132C85.4038 29.6385 85.4814 29.6577 85.6425 29.6143L85.6901 29.6927L84.7543 30.2963L84.7051 30.2145C84.8161 30.0943 84.8311 30.0074 84.7552 29.8822L82.9921 26.9563L83.1615 26.8469L86.7261 27.1942L85.7711 25.6097C85.696 25.4845 85.6208 25.4636 85.4564 25.5096L85.4088 25.4302L86.3446 24.8267L86.3922 24.9052C86.2795 25.0304 86.2678 25.1147 86.3438 25.2407L88.0751 28.115L87.9366 28.2043L84.3294 27.8562Z" fill="#191919"/>
<path d="M86.5483 32.0193L87.3363 33.7949C87.3964 33.9293 87.4707 33.9577 87.636 33.9343L87.6736 34.0186L86.6752 34.502L86.6359 34.4143C86.7603 34.3083 86.7853 34.224 86.7261 34.0896L85.3345 30.9533L85.5148 30.8656L88.9984 31.6595L88.2454 29.9615C88.1853 29.8271 88.1143 29.7971 87.9457 29.8221L87.9081 29.7378L88.9066 29.2545L88.9441 29.3388C88.8181 29.4498 88.7964 29.5316 88.8556 29.666L90.2222 32.7456L90.0745 32.8174L86.5483 32.0176V32.0193Z" fill="#191919"/>
<path d="M89.0242 35.8828L88.1627 36.1741L88.8673 38.514C88.9073 38.6493 88.9783 38.6977 89.1453 38.6885L89.1728 38.7803L88.126 39.1351L88.0984 39.0433C88.2345 38.954 88.2679 38.8663 88.227 38.7319L87.1943 35.2992L87.2828 35.2692C87.3671 35.4111 87.4506 35.4445 87.5792 35.4011L90.4684 34.4227C90.5978 34.3785 90.6387 34.3067 90.6387 34.133L90.7272 34.103L91.729 37.4338C91.7715 37.5749 91.8408 37.6208 92.0053 37.6125L92.032 37.7018L90.9851 38.0566L90.9584 37.9672C91.1004 37.8721 91.1312 37.7928 91.0887 37.6509L90.415 35.4128L89.6386 35.6757L90.0569 37.0648C90.0978 37.1992 90.1671 37.2451 90.3332 37.2435L90.3599 37.332L89.3381 37.6784L89.3114 37.5891C89.45 37.4947 89.485 37.4146 89.4424 37.2727L89.0242 35.8836V35.8828Z" fill="#191919"/>
<path d="M91.8767 41.551L89.2296 42.0945C89.096 42.122 89.0442 42.1888 89.0234 42.3616L88.9357 42.38L88.7053 41.0334L88.7963 41.0151C88.8623 41.167 88.9407 41.2104 89.0735 41.1837L91.7206 40.6402L91.5286 39.5183C91.5036 39.3722 91.4376 39.3188 91.274 39.3062L91.2581 39.2144L92.3367 38.9932L92.3525 39.0884C92.2065 39.1602 92.163 39.2361 92.1881 39.383L92.7274 42.5386C92.7524 42.6847 92.8159 42.7389 92.9786 42.7506L92.9945 42.8424L91.9159 43.0637L91.9001 42.9718C92.0487 42.8959 92.0921 42.8199 92.0679 42.6738L91.8759 41.5518L91.8767 41.551Z" fill="#191919"/>
<path d="M37.5782 76.7544L37.3336 77.9106L37.2301 77.9674C37.0924 77.8855 36.9304 77.8196 36.7459 77.7695C36.5615 77.7194 36.3811 77.6944 36.2058 77.6944C35.8677 77.6944 35.6165 77.7879 35.4537 77.9765C35.2909 78.1644 35.2091 78.4716 35.2091 78.8981C35.2091 79.3807 35.2984 79.7363 35.4771 79.965C35.6557 80.1938 35.927 80.3081 36.2901 80.3081C36.4596 80.3081 36.6399 80.2889 36.8311 80.2514C37.0223 80.2138 37.1901 80.1637 37.3336 80.1011L37.4564 80.1762L37.3336 81.3232C36.9763 81.4301 36.594 81.4835 36.1866 81.4835C35.3777 81.4835 34.765 81.2748 34.3484 80.8583C33.931 80.4417 33.7231 79.8415 33.7231 79.0576C33.7231 78.2737 33.9452 77.6368 34.3901 77.201C34.8351 76.7652 35.4654 76.5474 36.2801 76.5474C36.7501 76.5474 37.1825 76.6158 37.5774 76.7544" fill="#191919"/>
<path d="M43.0829 77.1543C43.4803 77.565 43.6798 78.1427 43.6798 78.889C43.6798 79.7163 43.4636 80.3574 43.0312 80.8115C42.5987 81.2657 41.9843 81.4936 41.1888 81.4936C40.4617 81.4936 39.899 81.2832 39.5008 80.8633C39.1026 80.4434 38.9039 79.8515 38.9039 79.0868C38.9039 78.2779 39.1201 77.6518 39.5526 77.2069C39.985 76.7619 40.5994 76.539 41.3958 76.539C42.1229 76.539 42.6847 76.7444 43.0838 77.1551M40.7371 77.7745C40.6119 77.8463 40.5209 77.9715 40.4642 78.1502C40.4074 78.3288 40.3799 78.5776 40.3799 78.8973C40.3799 79.3047 40.4091 79.6161 40.4692 79.8331C40.5284 80.0494 40.6244 80.2013 40.7563 80.2889C40.8882 80.3766 41.0727 80.4208 41.3107 80.4208C41.5486 80.4208 41.7214 80.3849 41.8466 80.3131C41.9718 80.2414 42.0628 80.117 42.1187 79.9417C42.1755 79.7664 42.2039 79.5159 42.2039 79.1895C42.2039 78.7888 42.1755 78.4783 42.1187 78.2587C42.0628 78.0392 41.9668 77.8856 41.8324 77.7979C41.6972 77.7102 41.5077 77.666 41.2639 77.666C41.0377 77.666 40.8624 77.7019 40.7371 77.7737" fill="#191919"/>
<path d="M46.7826 77.7136L46.7634 78.626H47.3553L48.2485 78.5976L48.3337 78.7012L48.2394 79.7447L47.2526 79.7163L46.7351 79.7255V79.8574L46.7918 81.3992H45.3718L45.4378 79.9984L45.3718 76.6234H48.6534L48.7285 76.7269L48.6342 77.7604L47.3929 77.7136H46.7826Z" fill="#191919"/>
<path d="M51.6053 77.7136L51.5861 78.626H52.1788L53.072 78.5976L53.1563 78.7012L53.062 79.7447L52.0753 79.7163L51.5585 79.7255V79.8574L51.6145 81.3992H50.1953L50.2604 79.9984L50.1953 76.6234H53.4761L53.5512 76.7269L53.4577 77.7604L52.2164 77.7136H51.6053Z" fill="#191919"/>
<path d="M58.5249 80.2614L58.6092 80.3557L58.5158 81.3992H55.0647L55.1306 79.9984L55.0647 76.6234H58.5625L58.6468 76.7269L58.5533 77.7604L57.312 77.7136H56.4747L56.4563 78.4474H57.2652L58.0833 78.419L58.1576 78.5225L58.0733 79.566L57.1709 79.5376L56.4279 79.5468L56.4187 79.8574L56.4379 80.309H57.2277L58.5249 80.2614Z" fill="#191919"/>
<path d="M63.6414 80.2597L63.7266 80.354L63.6322 81.3975H60.182L60.248 79.9968L60.182 76.6217H63.679L63.7641 76.7252L63.6698 77.7595L62.4284 77.7119H61.592L61.5728 78.4457H62.3817L63.1998 78.4173L63.2749 78.5208L63.1906 79.5643L62.2874 79.5359L61.5452 79.546L61.536 79.8557L61.5544 80.3073H62.3441L63.6414 80.2597Z" fill="#191919"/>
<path d="M73.2265 78.7671H66.908V79.1186H73.2265V78.7671Z" fill="#191919"/>
<path d="M31.6311 78.9424H25.3134V79.2939H31.6311V78.9424Z" fill="#191919"/>
<path d="M33.7248 42.885C33.9995 43.1288 34.3109 43.2841 34.6606 43.3509C35.0096 43.4176 35.3502 43.4277 35.6808 43.3792C36.0114 43.3317 36.3027 43.2273 36.5556 43.067C36.8077 42.9067 36.9605 42.7164 37.0114 42.4985C36.8236 42.6204 36.6341 42.6997 36.4438 42.7348C36.2534 42.7715 36.0756 42.7632 35.9112 42.7106C35.7467 42.6588 35.5998 42.5737 35.4704 42.4551C35.341 42.3374 35.2509 42.1846 35.1999 41.9993C35.0647 41.5268 35.0338 40.9608 35.1064 40.3005C35.1782 39.6402 35.3243 38.9565 35.5422 38.2469C35.7609 37.5382 36.0347 36.8386 36.3645 36.1474C36.6942 35.4562 37.049 34.8334 37.4272 34.2774C37.8062 33.7215 38.196 33.2715 38.5976 32.9242C38.9983 32.5778 39.3764 32.3908 39.7295 32.3633C40.0685 32.3516 40.2997 32.5169 40.4224 32.8591C40.5451 33.2014 40.5877 33.6664 40.5493 34.2532C40.5109 34.8401 40.4132 35.5188 40.2563 36.2901C40.0985 37.0623 39.9057 37.8604 39.6769 38.6843C39.4474 39.5091 39.2003 40.3314 38.934 41.1495C38.6677 41.9684 38.4106 42.7222 38.1618 43.4101C37.913 44.0988 37.6901 44.6915 37.494 45.1899C37.2978 45.6891 37.1584 46.0331 37.0766 46.2234C36.9255 46.5473 36.9505 46.8278 37.1509 47.0665C37.3512 47.3053 37.6092 47.4873 37.9239 47.6133C38.2378 47.7394 38.5466 47.8012 38.8497 47.797C39.1519 47.7936 39.3297 47.7043 39.3823 47.529C40.1319 44.9445 40.8991 42.7456 41.6838 40.9324C42.4685 39.1201 43.2148 37.5933 43.9236 36.3544C44.3535 35.5881 44.7784 34.9662 45.1966 34.4878C45.6157 34.0111 45.9705 33.7231 46.2627 33.6263C46.554 33.5295 46.751 33.6555 46.852 34.0061C46.953 34.3567 46.9088 34.9753 46.7185 35.8636C46.5682 36.6207 46.3612 37.4447 46.0974 38.3354C45.8336 39.227 45.5706 40.1285 45.3077 41.041C45.0447 41.9542 44.8185 42.8541 44.6281 43.7424C44.4386 44.6306 44.3418 45.4437 44.3385 46.1808C44.3493 46.8887 44.4912 47.4731 44.7659 47.9322C44.8443 48.0641 44.9295 48.1835 45.0188 48.2937C45.8954 49.8364 53.2048 50.8515 57.5032 49.4148C59.3197 48.8079 60.9109 47.696 62.6431 46.9831C66.0465 45.5764 69.7539 45.4462 73.4119 45.7718C72.0479 45.0947 70.5653 44.6231 69.0284 44.3793C69.1645 44.2524 69.3006 44.113 69.4375 43.9569C69.849 43.4869 70.2472 42.9635 70.6329 42.3858C71.0186 41.8081 71.3817 41.2213 71.7223 40.6236C72.0629 40.0259 72.3643 39.4849 72.6281 38.9982C72.6832 38.8955 72.6765 38.7979 72.6064 38.706C72.5371 38.615 72.4452 38.5424 72.3325 38.4882C72.2198 38.4347 72.1005 38.4063 71.9753 38.4038C71.85 38.4013 71.7657 38.4297 71.724 38.489C70.8917 40.0075 70.188 41.1595 69.6103 41.9459C69.0326 42.7323 68.5968 43.138 68.3021 43.163C68.1986 43.1664 68.1394 43.0537 68.1235 42.8224C68.1076 42.592 68.1627 42.2506 68.2863 41.7981C68.4107 41.3457 68.6127 40.7889 68.8915 40.1294C69.1703 39.469 69.546 38.711 70.0177 37.8562C70.1145 37.6943 70.0978 37.5248 69.9667 37.3487C69.8348 37.1725 69.6629 37.0239 69.4525 36.9012C69.2413 36.7785 69.0209 36.7067 68.7913 36.6858C68.5618 36.6658 68.3973 36.7217 68.2996 36.8553C68.1293 37.049 67.9699 37.2468 67.8221 37.4463C67.6744 37.6467 67.5216 37.8362 67.3663 38.0157C67.1109 37.8804 66.8688 37.741 66.6426 37.5966C66.4163 37.453 66.1909 37.3453 65.9672 37.2735C65.7427 37.2026 65.5131 37.185 65.2785 37.2226C65.0431 37.2602 64.7893 37.3912 64.5172 37.6183C64.1449 37.9497 63.7725 38.3746 63.3994 38.8939C63.0262 39.4131 62.6923 39.9708 62.396 40.566C62.0996 41.162 61.8517 41.7748 61.653 42.4025C61.4543 43.0311 61.3416 43.6205 61.3174 44.1706C61.2957 44.3885 61.3875 44.5905 61.5937 44.7784C61.6713 44.8493 61.7548 44.9128 61.8408 44.9729C60.6279 45.3777 59.4591 46.0439 58.3589 46.5957C54.5873 48.5349 48.7145 49.0008 47.135 48.1643C46.9422 47.9088 46.822 47.5515 46.7727 47.0924C46.7176 46.574 46.7393 45.9554 46.8395 45.2367C46.9397 44.5179 47.0816 43.7432 47.2661 42.9126C47.4506 42.0828 47.6676 41.2263 47.9164 40.3431C48.1652 39.4599 48.4081 38.595 48.6435 37.7477C48.9182 36.756 49.1051 35.8886 49.2045 35.1481C49.3038 34.4077 49.3255 33.7857 49.2713 33.2815C49.2162 32.7781 49.0985 32.3774 48.9182 32.0803C48.7378 31.7831 48.5133 31.5819 48.2436 31.475C47.7044 31.263 47.1834 31.2388 46.6792 31.4007C46.1758 31.5635 45.695 31.8515 45.2375 32.2647C44.7792 32.6788 44.351 33.1705 43.9503 33.7407C43.5496 34.3117 43.1898 34.8919 42.8709 35.4812C42.552 36.0706 42.2732 36.6299 42.0336 37.1583C41.794 37.6876 41.6062 38.1058 41.4693 38.4139C41.536 38.2235 41.632 37.9096 41.7573 37.4714C41.8816 37.0331 41.9902 36.5456 42.082 36.0071C42.173 35.4695 42.2348 34.9102 42.2657 34.3317C42.2965 33.7532 42.2414 33.2306 42.0995 32.7656C41.9568 32.3015 41.7155 31.9191 41.3724 31.6211C41.0293 31.3223 40.541 31.1845 39.9074 31.2071C39.3322 31.2271 38.7795 31.374 38.2511 31.6453C37.721 31.9175 37.2218 32.2814 36.7501 32.7389C36.2793 33.1964 35.8402 33.7223 35.4337 34.3142C35.0263 34.9069 34.664 35.5338 34.3484 36.195C34.032 36.857 33.7649 37.5348 33.5462 38.2294C33.3275 38.9231 33.163 39.5909 33.0528 40.2304C32.9435 40.8991 32.9593 41.4475 33.1004 41.8766C33.2415 42.3057 33.4485 42.6413 33.7232 42.8842M64.5422 44.3334C64.7751 44.0371 64.9997 43.7415 65.2134 43.4469C65.438 43.1355 65.6458 42.8425 65.8353 42.5686C66.0248 42.294 66.2043 42.0536 66.3746 41.8449C66.2828 42.1813 66.2001 42.552 66.1258 42.9593C66.0524 43.3667 66.034 43.6856 66.0716 43.9152C66.0833 44.0095 66.1141 44.1038 66.1626 44.1982C66.0515 44.2015 65.9405 44.204 65.8295 44.2099C65.3996 44.2316 64.9696 44.2741 64.5422 44.3334ZM63.6281 42.4735C63.7483 42.1154 63.9078 41.723 64.1065 41.2964C64.3051 40.8707 64.5405 40.4357 64.8127 39.9925C65.0848 39.5492 65.3845 39.1627 65.7126 38.8329C65.8687 38.6543 65.9989 38.5775 66.1033 38.6025C66.2076 38.6276 66.2878 38.701 66.3437 38.8221C66.3996 38.9431 66.4305 39.075 66.4355 39.2194C66.4405 39.3639 66.4222 39.4657 66.3796 39.525C66.2118 39.7904 65.9939 40.1093 65.7276 40.48C65.4605 40.8506 65.185 41.2221 64.9037 41.5928C64.6215 41.9643 64.3494 42.3032 64.0873 42.6087C63.8251 42.9143 63.6148 43.1346 63.4578 43.2707C63.452 43.0971 63.5087 42.8316 63.6289 42.4735" fill="#191919"/>
<path d="M48.5934 41.9017C48.4473 42.3483 48.3455 42.8032 48.2879 43.2674C48.2303 43.7324 48.2679 44.1573 48.3998 44.5421C48.4841 44.8285 48.6702 45.0889 48.9591 45.3243C49.2479 45.5597 49.5751 45.7509 49.9425 45.897C50.3098 46.0431 50.6746 46.1349 51.0377 46.1725C51.4008 46.21 51.698 46.1591 51.9293 46.0214C52.2039 45.8678 52.4519 45.6599 52.6714 45.3986C52.891 45.1382 53.0805 44.8719 53.2416 44.5981C53.401 44.3251 53.5354 44.0604 53.6448 43.8033C53.7533 43.5462 53.8426 43.3442 53.9111 43.1973C54.3135 43.3133 54.6624 43.3734 54.9579 43.3767C55.1207 43.3792 55.2902 43.3717 55.4663 43.355C55.4371 43.6372 55.4171 43.9068 55.407 44.1623C55.392 44.5672 55.4112 44.8986 55.4646 45.1574C55.5172 45.3869 55.6566 45.5764 55.8837 45.7275C56.1099 45.8786 56.3687 45.9813 56.6584 46.0356C56.9481 46.0907 57.2403 46.1015 57.5341 46.0698C57.828 46.0381 58.0617 45.9538 58.2337 45.8169C58.5501 45.5748 58.8948 45.1941 59.2671 44.6749C59.6395 44.1556 60.0043 43.5829 60.3582 42.956C60.7122 42.3299 61.0327 41.6896 61.3199 41.036C61.6071 40.3832 61.8216 39.7938 61.966 39.2679C62.0963 38.772 62.0946 38.2987 61.9602 37.8479C61.8258 37.3971 61.628 37.0181 61.3658 36.7092C61.1037 36.4012 60.8048 36.1841 60.4676 36.0589C60.1312 35.9337 59.8315 35.9337 59.571 36.0589C60.0101 36.3611 60.2681 36.7785 60.3465 37.3103C60.4242 37.8429 60.3891 38.4222 60.2422 39.0483C60.0944 39.6753 59.8665 40.3114 59.5568 40.9583C59.2479 41.6053 58.9324 42.1913 58.611 42.7156C58.2896 43.2398 57.9949 43.6731 57.7269 44.0145C57.459 44.3568 57.2878 44.5363 57.2144 44.553C57.1902 44.3084 57.2252 43.9235 57.3171 43.4001C57.4097 42.8767 57.5224 42.3307 57.6577 41.7622C57.7929 41.1937 57.9323 40.657 58.0767 40.1536C58.2211 39.6502 58.3414 39.2954 58.4374 39.0892C58.4774 38.9865 58.4298 38.8764 58.2929 38.7586C58.156 38.6409 57.9899 38.5416 57.7954 38.4623C57.6001 38.3822 57.3997 38.3354 57.1918 38.3212C56.9848 38.307 56.8312 38.3521 56.7319 38.4564C56.6459 38.5466 56.5499 38.7336 56.4414 39.0199C56.3328 39.3054 56.2243 39.6561 56.1133 40.0718C56.0022 40.4875 55.8929 40.9358 55.7844 41.4166C55.7092 41.7497 55.6483 42.0803 55.594 42.41C55.3695 42.4434 55.1424 42.4484 54.912 42.4234C54.6081 42.3908 54.3886 42.3332 54.2525 42.2514C54.3519 41.7272 54.4328 41.2188 54.4971 40.7254C54.5606 40.2321 54.5464 39.7195 54.4537 39.1877C54.3594 38.6134 54.1148 38.1593 53.7191 37.8262C53.3226 37.4931 52.891 37.2702 52.4218 37.1567C51.9527 37.0431 51.5094 37.0273 51.0911 37.1066C50.6737 37.1867 50.4016 37.3445 50.278 37.5799C50.1261 37.8746 50.0627 38.176 50.0885 38.4857C50.1144 38.7954 50.162 39.1009 50.2321 39.4023C50.1603 39.4774 50.0819 39.545 49.9959 39.6051C49.9091 39.6661 49.8306 39.7337 49.7588 39.8088C49.5593 40.0042 49.3514 40.2897 49.136 40.6653C48.9207 41.0418 48.7395 41.4525 48.5926 41.8983M52.2757 38.3354C52.3383 38.4347 52.3993 38.5942 52.4594 38.8171C52.5186 39.0391 52.5654 39.2904 52.5971 39.5709C52.6288 39.8514 52.6355 40.1336 52.6163 40.4157C52.5971 40.6979 52.5462 40.9425 52.4652 41.147C52.1939 40.5785 52.0386 40.0417 51.9986 39.5375C51.9585 39.0333 52.0512 38.6326 52.2766 38.3354M50.1762 44.0563C50.2054 43.643 50.268 43.229 50.3649 42.8141C50.4617 42.3992 50.5619 42.0302 50.6687 41.7088C50.7756 41.3874 50.8641 41.1887 50.9359 41.1144C51.2347 41.6387 51.648 42.0644 52.1772 42.3925C51.9885 42.9059 51.7657 43.3901 51.5094 43.8476C51.2523 44.305 50.8424 44.7099 50.2789 45.0622C50.1812 44.8059 50.1478 44.4712 50.177 44.0579" fill="#191919"/>
<path d="M79.8824 52.6037C79.4858 52.4443 79.1394 52.3975 78.8439 52.4601C78.444 52.552 77.9832 52.754 77.4598 53.0645C76.9372 53.3759 76.4121 53.734 75.8854 54.1389C75.3578 54.5455 74.8377 54.9545 74.3218 55.3702C73.8067 55.7851 73.3551 56.1324 72.9703 56.4121C72.532 55.9838 72.2665 55.4328 72.1739 54.7583C72.0812 54.0838 72.0971 53.4277 72.2214 52.7899C72.3458 52.1521 72.567 51.5961 72.8851 51.1228C73.204 50.6486 73.5655 50.4074 73.972 50.3982C73.9361 50.5067 73.8835 50.6561 73.8126 50.8506C73.7408 51.0443 73.6807 51.248 73.6323 51.4617C73.5838 51.6746 73.5463 51.8925 73.5195 52.1137C73.4928 52.3358 73.507 52.5286 73.5621 52.6922C73.6431 52.9168 73.765 53.123 73.9294 53.31C74.0922 53.497 74.2692 53.6455 74.4595 53.7574C74.6499 53.8693 74.8377 53.9494 75.0239 53.9987C75.2083 54.0479 75.3536 54.0479 75.4571 53.9987C75.2835 53.6764 75.2893 53.2415 75.4738 52.693C75.6575 52.1454 75.9313 51.5753 76.2944 50.9825C76.6576 50.3907 77.0549 49.8264 77.4865 49.2912C77.9181 48.757 78.2954 48.363 78.6193 48.1083C78.7604 47.9931 78.7621 47.8045 78.626 47.5415C78.4891 47.2794 78.2988 47.0264 78.0558 46.7818C77.8129 46.5381 77.5583 46.3469 77.2912 46.2092C77.024 46.0714 76.8195 46.0606 76.6793 46.1758C76.4405 46.4237 76.13 46.7777 75.746 47.2343C75.3628 47.6926 74.9253 48.3796 74.437 49.2954C74.2792 49.2019 74.063 49.0926 73.7858 48.9665C73.5087 48.8405 73.2073 48.7369 72.8801 48.6551C72.5537 48.575 72.229 48.5416 71.9092 48.5541C71.5895 48.5675 71.3174 48.6551 71.0936 48.8188C70.6487 49.1652 70.2547 49.5667 69.9141 50.0209C69.5726 50.475 69.3038 50.9617 69.1068 51.4793C68.909 51.9968 68.7938 52.5344 68.7595 53.0921C68.732 53.5521 68.7762 54.0028 68.8856 54.4461C68.6744 54.8719 68.4465 55.2984 68.1994 55.7267C67.8187 56.3837 67.4205 56.9989 67.0031 57.5749C66.5849 58.1509 66.1566 58.6643 65.72 59.1151C65.2818 59.5668 64.8694 59.9216 64.482 60.1803C64.4495 59.7429 64.5062 59.2053 64.6523 58.565C64.7976 57.9256 64.9729 57.2577 65.1791 56.5615C65.3845 55.8661 65.6032 55.1999 65.8344 54.5647C66.0656 53.9302 66.251 53.3976 66.3912 52.9677C66.4789 52.7097 66.4229 52.4576 66.2226 52.2097C66.0222 51.9634 65.7559 51.7572 65.4237 51.5928C65.0898 51.4292 64.735 51.329 64.3585 51.2939C63.9812 51.2589 63.6698 51.3231 63.4252 51.4876C63.0587 51.7455 62.6856 52.0561 62.3057 52.4184C61.9259 52.7815 61.5544 53.1872 61.1913 53.6322C60.8273 54.0788 60.4667 54.5555 60.1085 55.063C59.7504 55.5723 59.4173 56.0781 59.1126 56.5824C59.126 56.4772 59.2028 56.2718 59.3405 55.9688C59.4791 55.6649 59.6461 55.3126 59.8406 54.9103C60.0359 54.5079 60.2396 54.0746 60.4516 53.608C60.6637 53.1422 60.8599 52.6822 61.041 52.2289C61.0928 52.0578 61.0084 51.8649 60.7897 51.6504C60.5702 51.4367 60.2955 51.2672 59.9658 51.1453C59.636 51.0235 59.3055 50.9734 58.9757 50.9976C58.646 51.0218 58.4172 51.1854 58.2895 51.4884C57.9815 52.1179 57.6976 52.784 57.4355 53.4811C57.3854 53.5036 57.3454 53.5329 57.3203 53.5713C56.2009 55.8118 55.2458 57.5165 54.4545 58.6852C53.6622 59.8539 53.0545 60.465 52.6304 60.5168C52.481 60.5276 52.3892 60.3673 52.3541 60.0342C52.319 59.702 52.3792 59.2053 52.5336 58.5441C52.6889 57.8838 52.9493 57.0674 53.3166 56.0982C53.6839 55.1281 54.1848 54.012 54.8201 52.7498C54.952 52.5102 54.9178 52.2656 54.7183 52.0185C54.5171 51.7714 54.2616 51.5652 53.9502 51.3999C53.638 51.2338 53.3158 51.1428 52.9827 51.1245C52.6496 51.1078 52.4159 51.1979 52.2806 51.3966C52.0452 51.6863 51.8257 51.9801 51.6228 52.2773C51.42 52.5753 51.2096 52.8583 50.9951 53.1255C50.6177 52.9435 50.2613 52.7557 49.9257 52.5595C49.5901 52.3641 49.2587 52.2214 48.9314 52.1296C48.6034 52.0386 48.2703 52.0269 47.933 52.0928C47.5949 52.1596 47.2351 52.3641 46.8545 52.7064C46.3336 53.2064 45.8185 53.8417 45.3084 54.6114C45.2216 54.7416 45.1398 54.876 45.0563 55.0096C44.987 55.0271 44.9278 55.0605 44.8802 55.1148C44.5354 55.9571 44.0637 56.8303 43.4677 57.7327C42.8708 58.636 42.2564 59.4516 41.6245 60.1787C40.9934 60.9066 40.3789 61.5018 39.7812 61.9643C39.1835 62.4284 38.7119 62.6405 38.3671 62.6029C38.1292 62.5779 37.9889 62.4051 37.9438 62.0837C37.8979 61.7623 37.8929 61.3908 37.9255 60.9684C37.9589 60.5477 38.0248 60.1286 38.1217 59.7129C38.2202 59.2971 38.3137 58.9807 38.4055 58.7645C38.8003 58.9039 39.1593 58.9816 39.4824 58.9999C39.8046 59.0183 40.1744 58.9599 40.5927 58.8246C41.1745 58.5926 41.6854 58.1835 42.1237 57.5958C42.5619 57.0089 42.9226 56.3845 43.2064 55.7242C43.4886 55.0647 43.6998 54.4361 43.8383 53.8392C43.9752 53.2423 44.037 52.83 44.0203 52.5995C44.027 52.117 43.764 51.7389 43.2298 51.4634C42.8516 51.2822 42.5135 51.1128 42.213 50.9567C41.9125 50.8014 41.6203 50.6862 41.3373 50.6127C41.0535 50.5393 40.7847 50.5176 40.53 50.5459C40.2754 50.5752 40.0041 50.6745 39.7169 50.8415C39.247 51.1478 38.7561 51.6145 38.246 52.2389C37.8787 52.688 37.5289 53.1864 37.1959 53.7315C37.1867 53.7324 37.1783 53.7299 37.1683 53.7324C36.427 53.8501 35.7408 54.0471 35.1089 54.3242C34.4761 54.6014 33.7757 54.9044 33.0077 55.2325C32.6253 54.6949 32.1153 54.2349 31.4775 53.8526C30.8397 53.4702 30.2094 53.2699 29.5867 53.2532C29.8271 53.0261 30.126 52.7314 30.4849 52.37C30.8431 52.0085 31.2037 51.6045 31.5677 51.1587C31.9308 50.7129 32.2747 50.2321 32.6011 49.7153C32.9267 49.1994 33.1763 48.6618 33.35 48.1042C33.5219 47.5474 33.496 46.973 33.2715 46.382C33.0461 45.7909 32.6963 45.2567 32.2221 44.7775C31.748 44.2992 31.1895 43.9101 30.5467 43.6121C29.9039 43.3141 29.2511 43.168 28.5883 43.1747C27.7551 43.1947 26.8594 43.3967 25.9044 43.7816C24.9477 44.1664 24.0011 44.6815 23.0636 45.326C22.1269 45.9721 21.222 46.6984 20.3505 47.5056C19.479 48.3145 18.7101 49.141 18.0448 49.9858C17.3794 50.8314 16.8452 51.6562 16.4445 52.461C16.0429 53.2665 15.8451 53.982 15.8484 54.6106C15.8593 55.3435 16.0847 55.9296 16.5238 56.3678C16.9629 56.8069 17.4504 57.1016 17.9863 57.2502C18.5215 57.3996 19.0198 57.4046 19.4798 57.2661C19.9406 57.1275 20.1977 56.8353 20.2512 56.392C19.4923 56.5523 19.0323 56.4187 18.8721 55.9905C18.7126 55.5622 18.7961 54.9587 19.1242 54.1807C19.4514 53.4018 19.9965 52.5136 20.7579 51.5143C21.5192 50.5159 22.4316 49.5367 23.4952 48.5792C23.2255 49.2695 22.8941 50.1628 22.5051 51.2605C22.1144 52.3575 21.7271 53.4919 21.3422 54.6615C20.9574 55.8327 20.5984 56.9797 20.2637 58.1042C19.9298 59.2287 19.6718 60.1645 19.4907 60.9108C19.3896 61.2748 19.433 61.5803 19.6225 61.8282C19.812 62.0762 20.0608 62.2623 20.3697 62.3859C20.6118 62.4735 20.8656 62.5069 21.1319 62.4869C21.3982 62.4668 21.6569 62.2707 21.9074 61.8958C22.041 61.6763 22.2739 61.3449 22.6044 60.9016C22.9359 60.4592 23.3232 59.98 23.7673 59.4649C24.2114 58.9507 24.6864 58.4231 25.1923 57.883C25.6982 57.3429 26.2091 56.8654 26.7242 56.4505C27.2392 56.0356 27.7351 55.7158 28.2109 55.4921C28.6868 55.2684 29.1 55.2066 29.4498 55.3068C29.6243 55.3569 29.7603 55.4621 29.858 55.6223C29.9548 55.7835 30.0266 55.9454 30.0709 56.1099C30.1151 56.2743 30.1377 56.4304 30.1377 56.5765C30.1377 56.7234 30.1276 56.8078 30.1084 56.8303C29.3104 57.3287 28.4305 57.9598 27.4696 58.7211C26.5088 59.4833 25.5588 60.3131 24.6188 61.2096C23.678 62.1071 22.7948 63.047 21.9683 64.0296C21.1419 65.0121 20.4624 65.963 19.9306 66.8821C19.3446 67.9306 19.0824 68.8197 19.1484 69.5484C19.2127 70.2772 19.5073 70.7948 20.0333 71.102C20.5584 71.4092 21.2638 71.4718 22.1503 71.2915C23.036 71.1112 23.9961 70.6378 25.0312 69.8698C26.1281 69.0759 27.1733 68.156 28.1675 67.1083C29.1601 66.0606 30.0375 64.9646 30.7988 63.8192C31.5593 62.6739 32.1821 61.5277 32.6646 60.3815C33.1471 59.2353 33.4159 58.1568 33.4702 57.1467C33.8583 56.9096 34.3751 56.6508 35.0187 56.3728C35.356 56.2276 35.6966 56.094 36.0413 55.9705C35.9011 56.2927 35.765 56.6199 35.639 56.9555C35.2984 57.8604 35.0579 58.7278 34.9144 59.5542C34.7724 60.3815 34.7482 61.1437 34.8417 61.8391C34.9361 62.5345 35.2007 63.0754 35.6356 63.4628C35.8402 63.6364 36.1006 63.8167 36.4137 64.002C36.7275 64.1882 37.0706 64.3468 37.4438 64.4762C37.817 64.6056 38.1868 64.6782 38.5516 64.6933C38.9164 64.7083 39.2528 64.6215 39.56 64.4303C40.2137 64.0054 40.8706 63.4753 41.5301 62.8392C41.905 62.4785 42.2664 62.0962 42.6179 61.6963C42.5987 61.9192 42.587 62.1388 42.5861 62.3525C42.5661 62.668 42.7105 62.956 43.0186 63.2165C43.3266 63.477 43.6789 63.6815 44.0754 63.8301C44.4711 63.9795 44.8676 64.0596 45.265 64.073C45.6615 64.0855 45.9495 63.9904 46.1274 63.7892C46.5038 63.3843 46.862 62.9494 47.2034 62.4844C47.5432 62.0194 47.8679 61.5552 48.1768 61.0928C48.4848 60.6295 48.7695 60.1954 49.0283 59.7888C49.2871 59.3823 49.5342 59.0241 49.7679 58.7128C49.6544 59.2036 49.555 59.7454 49.4699 60.3381C49.3856 60.9308 49.3764 61.3933 49.444 61.723C49.4832 61.9718 49.6135 62.2189 49.8355 62.4643C50.0567 62.7106 50.318 62.911 50.6186 63.0671C50.9191 63.2232 51.2463 63.315 51.602 63.34C51.9567 63.3668 52.2882 63.295 52.597 63.1255C53.1739 62.8108 53.7457 62.3024 54.315 61.6003C54.74 61.0761 55.1523 60.5093 55.5531 59.8998C55.5247 60.0192 55.4954 60.1411 55.4679 60.258C55.2734 61.1003 55.1306 61.7756 55.0396 62.2857C54.9896 62.4777 55.0939 62.6588 55.3527 62.8283C55.6115 62.9986 55.9045 63.123 56.2309 63.204C56.559 63.2858 56.8812 63.3083 57.1993 63.2741C57.5173 63.2407 57.7235 63.1255 57.8162 62.9302C58.0157 62.4335 58.3062 61.8049 58.6885 61.0427C59.0709 60.2814 59.4958 59.5058 59.9624 58.7178C60.4283 57.9289 60.9033 57.1817 61.3866 56.4755C61.8691 55.7693 62.3107 55.2233 62.7106 54.8376C62.658 54.9887 62.5695 55.3143 62.446 55.816C62.3224 56.3169 62.203 56.8762 62.0878 57.4923C61.9735 58.1092 61.8942 58.722 61.8541 59.3322C61.8132 59.9433 61.8483 60.4224 61.9601 60.7705C62.0177 60.9759 62.193 61.1729 62.4852 61.3607C62.7774 61.5486 63.1088 61.6922 63.4794 61.7907C63.8509 61.8892 64.2291 61.9401 64.6148 61.9426C64.9996 61.9451 65.336 61.8633 65.6232 61.6947C66.054 61.4334 66.5098 61.0118 66.9914 60.4308C67.4731 59.8506 67.9389 59.2036 68.3897 58.489C68.8405 57.7753 69.2562 57.0373 69.6394 56.276C69.6686 56.2176 69.6953 56.1625 69.7237 56.1049C69.7797 56.1725 69.8373 56.2393 69.8982 56.3044C70.3281 56.7652 70.7547 57.2519 71.1779 57.7661C70.4133 58.4298 69.6678 59.1343 68.9415 59.8798C68.2144 60.6245 67.6359 61.4108 67.2043 62.2389C66.9238 62.7832 66.8028 63.2541 66.8428 63.6489C66.8829 64.0438 67.024 64.3744 67.2686 64.639C67.5132 64.9036 67.8379 65.0948 68.242 65.2117C68.646 65.3277 69.0784 65.3861 69.5384 65.3836C69.9992 65.3811 70.465 65.3152 70.9375 65.1858C71.41 65.0572 71.8291 64.8736 72.1972 64.6373C72.749 64.2825 73.2633 63.8576 73.7408 63.3609C74.2183 62.865 74.5914 62.34 74.8611 61.7848C75.1307 61.2305 75.2651 60.6704 75.2676 60.1052C75.2676 59.5392 75.0881 58.9866 74.7275 58.4481C74.609 58.2887 74.4913 58.1401 74.3736 58.0024C74.2558 57.8646 74.1381 57.716 74.0196 57.5566C74.1757 57.3562 74.5213 57.0323 75.0556 56.584C75.5898 56.1357 76.1709 55.6741 76.7995 55.1983C77.4272 54.7224 78.0383 54.29 78.6302 53.901C79.2221 53.512 79.6753 53.2741 79.9909 53.1881C80.117 53.1589 80.2171 53.1513 80.2939 53.1655C80.3691 53.1814 80.4292 53.1931 80.4726 53.1998C80.516 53.2073 80.5536 53.2048 80.5844 53.1914C80.6153 53.1789 80.6704 53.1271 80.7497 53.037C80.5677 52.9042 80.2797 52.7582 79.8815 52.5979M39.1944 56.6366C39.3889 56.2242 39.6235 55.7776 39.8981 55.2959C40.1727 54.8151 40.4599 54.3585 40.7604 53.9277C41.061 53.497 41.3114 53.2014 41.5134 53.0395C41.4967 53.3976 41.4266 53.8317 41.3047 54.3434C41.1812 54.8552 41.0034 55.3452 40.7705 55.8127C40.5367 56.2802 40.2671 56.6717 39.9582 56.9881C39.6493 57.3045 39.3012 57.4455 38.9139 57.4105C38.9064 57.307 38.999 57.0482 39.1935 56.6358M28.6459 50.5134C28.0406 51.3023 27.4271 52.0553 26.8051 52.7707C26.1841 53.4869 25.6064 54.1364 25.0704 54.7216C24.5353 55.306 24.1505 55.7426 23.9151 56.0322C24.0921 55.5372 24.2916 54.9787 24.5136 54.3535C24.7357 53.7299 24.9611 53.0896 25.1906 52.4334C25.4202 51.7773 25.6573 51.132 25.8994 50.4959C26.1415 49.8606 26.3811 49.2712 26.6198 48.7294C26.6924 48.5566 26.6908 48.3897 26.6148 48.2269C26.5388 48.0649 26.4203 47.9213 26.2625 47.797C26.1031 47.6726 25.9253 47.5757 25.7274 47.5056C25.5296 47.4372 25.3668 47.3963 25.2366 47.3846C25.6606 47.039 26.1239 46.7226 26.6282 46.4337C27.1307 46.1457 27.6216 45.9053 28.0999 45.7125C28.5783 45.5205 29.0174 45.3827 29.4181 45.3009C29.8188 45.2199 30.1201 45.2333 30.3205 45.3443C30.7646 45.563 30.9474 45.9379 30.8689 46.4671C30.7896 46.9972 30.5509 47.6066 30.1518 48.2962C29.7536 48.9857 29.2503 49.7245 28.6459 50.5126M28.8279 61.046C28.5131 61.5719 28.1275 62.1454 27.67 62.7657C27.2125 63.386 26.7075 64.0146 26.1557 64.6532C25.603 65.291 25.0587 65.892 24.522 66.4555C23.986 67.019 23.476 67.5124 22.9935 67.9348C22.5109 68.358 22.1044 68.6552 21.7747 68.8263C21.8974 68.1685 22.248 67.408 22.8265 66.5482C23.4058 65.6892 24.0812 64.8327 24.8534 63.9795C25.6256 63.1263 26.4278 62.3233 27.2609 61.5703C28.0932 60.8173 28.8145 60.2204 29.4239 59.7763C29.3404 60.0969 29.1417 60.5201 28.8279 61.046ZM49.6477 55.3644C49.4198 55.7584 49.1226 56.2309 48.757 56.781C48.3905 57.332 48.014 57.8838 47.6267 58.4356C47.2385 58.9882 46.8636 59.4933 46.5013 59.9491C46.139 60.4049 45.8477 60.7355 45.6273 60.9408C45.6089 60.6904 45.6766 60.3031 45.831 59.778C45.9846 59.2537 46.1941 58.6777 46.4588 58.0499C46.7226 57.4238 47.039 56.7819 47.4088 56.1257C47.7778 55.4696 48.1901 54.8952 48.6459 54.4002C48.8613 54.1331 49.0458 54.0145 49.1977 54.0454C49.3497 54.0763 49.4699 54.1781 49.5567 54.3493C49.6444 54.5213 49.6961 54.7107 49.7111 54.9194C49.7262 55.1281 49.7053 55.2767 49.6469 55.3644M72.1229 60.3723C71.9526 60.8248 71.7072 61.2723 71.3875 61.7155C71.0661 62.1588 70.7096 62.5462 70.3164 62.8784C69.9241 63.2115 69.5793 63.3993 69.2821 63.4411C69.5017 62.6497 69.8823 61.9259 70.4225 61.2672C70.9626 60.6094 71.5402 59.9541 72.1563 59.3013C72.3041 59.5626 72.2932 59.919 72.1229 60.3723Z" fill="#191919"/>
</g>
<defs>
<clipPath id="clip0_7_5">
<rect width="96" height="96" fill="white" transform="translate(2 2)"/>
</clipPath>
</defs>
</svg>
