<svg width="1612" height="310" viewBox="0 0 1612 310" fill="none" xmlns="http://www.w3.org/2000/svg">
<path fill-rule="evenodd" clip-rule="evenodd" d="M339.487 87.4072C356.122 87.4072 371.783 90.2707 386.446 96.0205C401.109 101.747 413.87 109.569 424.704 119.462C435.539 129.379 444.078 140.995 450.319 154.357C456.56 167.719 459.669 182.012 459.669 197.26C459.669 212.297 456.56 226.451 450.319 239.72C444.078 252.989 435.539 264.558 424.704 274.452C413.87 284.345 401.109 292.167 386.446 297.917C371.783 303.643 356.122 306.53 339.487 306.53C322.852 306.53 307.261 303.643 292.691 297.917C278.144 292.167 265.429 284.345 254.594 274.452C243.76 264.558 235.222 252.989 228.981 239.72C222.739 226.451 219.631 212.297 219.631 197.26C219.631 182.012 222.739 167.719 228.981 154.357C235.222 140.995 243.76 129.379 254.594 119.462C265.429 109.569 278.144 101.747 292.691 96.0205C307.261 90.2707 322.852 87.4072 339.487 87.4072ZM339.487 275.941C350.878 275.941 361.667 273.87 371.829 269.726C382.015 265.582 390.877 259.972 398.441 252.872C405.981 245.772 411.944 237.439 416.329 227.871C420.714 218.303 422.895 208.107 422.895 197.26C422.895 186.412 420.714 176.169 416.329 166.485C411.944 156.824 405.981 148.397 398.441 141.204C390.877 134.011 382.015 128.331 371.829 124.211C361.667 120.067 350.878 117.996 339.487 117.996C328.096 117.996 317.376 120.067 307.307 124.211C297.238 128.331 288.421 134.011 280.881 141.204C273.317 148.397 267.355 156.824 262.97 166.485C258.609 176.169 256.404 186.412 256.404 197.26C256.404 208.107 258.609 218.303 262.97 227.871C267.355 237.439 273.317 245.772 280.881 252.872C288.421 259.972 297.238 265.582 307.307 269.726C317.376 273.87 328.096 275.941 339.487 275.941ZM628.335 129.61L644.907 90.6664L744 309.207H706.616L686.7 263.53H575.033L588.358 231.928H672.938L628.335 129.61ZM33.1776 171.723V309.207H0V87.4072L205.074 309.207H156.654L33.1776 171.723ZM169.925 222.424V131.776L205.074 90.9689V266.677L169.925 222.424ZM534.253 227.243L616.247 0L636.443 80.9482L534.253 309.207L461.355 143.951H497.804L534.253 227.243Z" fill="url(#paint0_linear_86_6)"/>
<path d="M1178.05 286.362C1171.35 289.805 1164 291.533 1155.99 291.533C1149.48 291.533 1143.38 290.35 1137.69 287.97C1131.99 285.604 1127.02 282.374 1122.76 278.307C1118.52 274.239 1115.14 269.494 1112.63 264.07C1110.12 258.646 1108.88 252.824 1108.88 246.603C1108.88 240.382 1110.12 234.56 1112.63 229.136C1115.14 223.713 1118.52 218.967 1122.76 214.9C1127.02 210.832 1131.99 207.615 1137.69 205.236C1143.38 202.857 1149.48 201.673 1155.99 201.673C1164 201.673 1171.35 203.402 1178.05 206.845C1184.73 210.288 1190.21 214.9 1194.46 220.669L1210.8 209.649C1204.54 201.952 1196.69 195.851 1187.24 191.332C1177.79 186.812 1167.37 184.552 1155.99 184.552C1146.6 184.552 1137.79 186.187 1129.52 189.471C1121.26 192.741 1114.07 197.181 1107.93 202.777C1101.81 208.373 1096.95 214.926 1093.39 222.45C1089.82 229.961 1088.04 238.016 1088.04 246.603C1088.04 255.19 1089.82 263.245 1093.39 270.756C1096.95 278.28 1101.81 284.833 1107.93 290.429C1114.07 296.026 1121.26 300.465 1129.52 303.736C1137.79 307.019 1146.6 308.654 1155.99 308.654C1167.37 308.654 1177.79 306.394 1187.24 301.875C1196.69 297.355 1204.54 291.254 1210.8 283.557L1194.46 272.537C1190.21 278.307 1184.73 282.919 1178.05 286.362Z" fill="url(#paint1_linear_86_6)"/>
<path d="M1401.01 291.201V269.906H1381.11V309H1445.47L1462.21 291.201H1401.01Z" fill="url(#paint2_linear_86_6)"/>
<path d="M1381.11 237.006V253.954H1445.47L1462.21 237.006H1381.11Z" fill="url(#paint3_linear_86_6)"/>
<path d="M1381.11 185.244V221.054H1401.01V202.711H1445.47L1462.21 185.244H1381.11Z" fill="url(#paint4_linear_86_6)"/>
<path d="M898.161 207.854V308.827H918.239V184.552L898.161 207.854Z" fill="url(#paint5_linear_86_6)"/>
<path d="M1348.54 184.379L1328.46 207.682V237.617H1274.97V253.542H1328.46V308.481H1348.54V184.379Z" fill="url(#paint6_linear_86_6)"/>
<path d="M1239.21 207.682V308.654H1259.29V184.379L1239.21 207.682Z" fill="url(#paint7_linear_86_6)"/>
<path d="M814.105 247.201L865.586 184.552H842.683L796.892 240.847V184.552L777 207.854V292.197L796.892 268.138L802.992 260.707L842.683 309H865.586L814.105 247.201Z" fill="url(#paint8_linear_86_6)"/>
<path d="M1513.75 308.654V230.147L1584.32 308.654H1612L1494.78 182V308.654H1513.75Z" fill="url(#paint9_linear_86_6)"/>
<path d="M1591.91 207.336V259.098L1612 284.368V184.034L1591.91 207.336Z" fill="url(#paint10_linear_86_6)"/>
<path d="M970.004 184.552L950.814 202.006H1009.27V308.654H1029.18V202.006H1065.38L1088.04 184.552H970.004Z" fill="url(#paint11_linear_86_6)"/>
<defs>
<linearGradient id="paint0_linear_86_6" x1="144" y1="131" x2="672.5" y2="427.5" gradientUnits="userSpaceOnUse">
<stop stop-color="#C9A581"/>
<stop offset="1" stop-color="#E4CCB4"/>
</linearGradient>
<linearGradient id="paint1_linear_86_6" x1="592.273" y1="-439.018" x2="2025.34" y2="365.745" gradientUnits="userSpaceOnUse">
<stop stop-color="#C9A581"/>
<stop offset="1" stop-color="#E4CCB4"/>
</linearGradient>
<linearGradient id="paint2_linear_86_6" x1="592.273" y1="-439.018" x2="2025.34" y2="365.745" gradientUnits="userSpaceOnUse">
<stop stop-color="#C9A581"/>
<stop offset="1" stop-color="#E4CCB4"/>
</linearGradient>
<linearGradient id="paint3_linear_86_6" x1="592.273" y1="-439.018" x2="2025.34" y2="365.745" gradientUnits="userSpaceOnUse">
<stop stop-color="#C9A581"/>
<stop offset="1" stop-color="#E4CCB4"/>
</linearGradient>
<linearGradient id="paint4_linear_86_6" x1="592.273" y1="-439.018" x2="2025.34" y2="365.745" gradientUnits="userSpaceOnUse">
<stop stop-color="#C9A581"/>
<stop offset="1" stop-color="#E4CCB4"/>
</linearGradient>
<linearGradient id="paint5_linear_86_6" x1="592.273" y1="-439.018" x2="2025.34" y2="365.745" gradientUnits="userSpaceOnUse">
<stop stop-color="#C9A581"/>
<stop offset="1" stop-color="#E4CCB4"/>
</linearGradient>
<linearGradient id="paint6_linear_86_6" x1="592.273" y1="-439.018" x2="2025.34" y2="365.745" gradientUnits="userSpaceOnUse">
<stop stop-color="#C9A581"/>
<stop offset="1" stop-color="#E4CCB4"/>
</linearGradient>
<linearGradient id="paint7_linear_86_6" x1="592.273" y1="-439.018" x2="2025.34" y2="365.745" gradientUnits="userSpaceOnUse">
<stop stop-color="#C9A581"/>
<stop offset="1" stop-color="#E4CCB4"/>
</linearGradient>
<linearGradient id="paint8_linear_86_6" x1="592.273" y1="-439.018" x2="2025.34" y2="365.745" gradientUnits="userSpaceOnUse">
<stop stop-color="#C9A581"/>
<stop offset="1" stop-color="#E4CCB4"/>
</linearGradient>
<linearGradient id="paint9_linear_86_6" x1="592.273" y1="-439.018" x2="2025.34" y2="365.745" gradientUnits="userSpaceOnUse">
<stop stop-color="#C9A581"/>
<stop offset="1" stop-color="#E4CCB4"/>
</linearGradient>
<linearGradient id="paint10_linear_86_6" x1="592.273" y1="-439.018" x2="2025.34" y2="365.745" gradientUnits="userSpaceOnUse">
<stop stop-color="#C9A581"/>
<stop offset="1" stop-color="#E4CCB4"/>
</linearGradient>
<linearGradient id="paint11_linear_86_6" x1="592.273" y1="-439.018" x2="2025.34" y2="365.745" gradientUnits="userSpaceOnUse">
<stop stop-color="#C9A581"/>
<stop offset="1" stop-color="#E4CCB4"/>
</linearGradient>
</defs>
</svg>
