<svg width="199" height="199" viewBox="0 0 199 199" fill="none" xmlns="http://www.w3.org/2000/svg">
<circle cx="99.4746" cy="99.4746" r="99.4746" fill="url(#paint0_linear_45_2)"/>
<circle cx="99.7234" cy="100.221" r="91.7601" fill="url(#paint1_linear_45_2)" stroke="#121D23" stroke-width="2"/>
<path fill-rule="evenodd" clip-rule="evenodd" d="M93.8136 80.0733C96.5827 80.0733 99.1895 80.5457 101.63 81.4943C104.071 82.439 106.195 83.7294 107.999 85.3616C109.802 86.9977 111.224 88.914 112.263 91.1184C113.301 93.3228 113.819 95.6808 113.819 98.1963C113.819 100.677 113.301 103.012 112.263 105.201C111.224 107.39 109.802 109.299 107.999 110.931C106.195 112.563 104.071 113.854 101.63 114.802C99.1895 115.747 96.5827 116.223 93.8136 116.223C91.0445 116.223 88.4493 115.747 86.0239 114.802C83.6024 113.854 81.486 112.563 79.6824 110.931C77.8788 109.299 76.4576 107.39 75.4188 105.201C74.3798 103.012 73.8624 100.677 73.8624 98.1963C73.8624 95.6808 74.3798 93.3228 75.4188 91.1184C76.4576 88.914 77.8788 86.9977 79.6824 85.3616C81.486 83.7294 83.6024 82.439 86.0239 81.4943C88.4493 80.5457 91.0445 80.0733 93.8136 80.0733ZM93.8136 111.177C95.7098 111.177 97.5057 110.835 99.1972 110.152C100.893 109.468 102.368 108.542 103.627 107.371C104.882 106.2 105.875 104.825 106.605 103.247C107.335 101.668 107.698 99.986 107.698 98.1963C107.698 96.4067 107.335 94.7169 106.605 93.1193C105.875 91.5255 104.882 90.1352 103.627 88.9486C102.368 87.7619 100.893 86.8248 99.1972 86.145C97.5057 85.4615 95.7098 85.1197 93.8136 85.1197C91.9174 85.1197 90.133 85.4615 88.457 86.145C86.7808 86.8248 85.3132 87.7619 84.0581 88.9486C82.799 90.1352 81.8065 91.5255 81.0766 93.1193C80.3506 94.7169 79.9836 96.4067 79.9836 98.1963C79.9836 99.986 80.3506 101.668 81.0766 103.247C81.8065 104.825 82.799 106.2 84.0581 107.371C85.3132 108.542 86.7808 109.468 88.457 110.152C90.133 110.835 91.9174 111.177 93.8136 111.177ZM141.895 87.0357L144.654 80.611L161.149 116.665H154.926L151.611 109.129H133.022L135.241 103.916H149.32L141.895 87.0357ZM42.8255 93.9834V116.665H37.3027V80.0733L71.4393 116.665H63.3792L42.8255 93.9834ZM65.5883 102.348V87.3932L71.4393 80.6609V109.649L65.5883 102.348ZM126.234 103.143L139.883 65.6532L143.245 79.0077L126.234 116.665L114.1 89.4018H120.167L126.234 103.143ZM95.8627 131.735C96.3542 131.735 96.805 131.63 97.216 131.421C97.626 131.211 97.9621 130.93 98.2233 130.579L99.2258 131.25C98.8417 131.718 98.36 132.09 97.7798 132.365C97.2005 132.64 96.5609 132.777 95.8627 132.777C95.2866 132.777 94.7455 132.678 94.2386 132.478C93.7316 132.279 93.2906 132.009 92.9138 131.668C92.5379 131.327 92.2401 130.929 92.0212 130.471C91.8023 130.013 91.6933 129.523 91.6933 129C91.6933 128.478 91.8023 127.987 92.0212 127.53C92.2401 127.072 92.5379 126.673 92.9138 126.333C93.2906 125.992 93.7316 125.722 94.2386 125.523C94.7455 125.323 95.2866 125.223 95.8627 125.223C96.5609 125.223 97.2005 125.361 97.7798 125.636C98.36 125.911 98.8417 126.282 99.2258 126.751L98.2233 127.422C97.9621 127.07 97.626 126.79 97.216 126.58C96.805 126.371 96.3542 126.265 95.8627 126.265C95.4632 126.265 95.0889 126.337 94.7398 126.482C94.3899 126.627 94.0847 126.823 93.8235 127.07C93.5632 127.318 93.3557 127.607 93.2019 127.937C93.0481 128.267 92.9716 128.622 92.9716 129C92.9716 129.379 93.0481 129.733 93.2019 130.064C93.3557 130.394 93.5632 130.683 93.8235 130.93C94.0847 131.178 94.3899 131.374 94.7398 131.518C95.0889 131.663 95.4632 131.735 95.8627 131.735ZM110.897 130.419V131.715H114.652L113.625 132.799H109.676V130.419H110.897ZM109.676 129.448V128.416H114.652L113.625 129.448H109.676ZM109.676 127.445V125.265H114.652L113.625 126.328H110.897V127.445H109.676ZM80.0422 132.788V126.642L81.2741 125.223V132.788H80.0422ZM106.445 126.631L107.677 125.213V132.767H106.445V129.423H103.163V128.453H106.445V126.631ZM100.969 132.777V126.631L102.201 125.213V132.777H100.969ZM78.0433 125.223L74.8845 129.037L78.0433 132.799H76.638L74.2026 129.859L73.8283 130.311L72.6077 131.776V126.642L73.8283 125.223V128.65L76.638 125.223H78.0433ZM117.814 127.999V132.777H116.651V125.068L123.843 132.777H122.145L117.814 127.999ZM122.61 129.761V126.61L123.843 125.192V131.299L122.61 129.761ZM83.273 126.286L84.4504 125.223H91.6933L90.3026 126.286H88.0812V132.777H86.8598V126.286H83.273Z" fill="#121D23"/>
<defs>
<linearGradient id="paint0_linear_45_2" x1="-4.47636" y1="67.1454" x2="204.42" y2="162.89" gradientUnits="userSpaceOnUse">
<stop stop-color="#C8A581"/>
<stop offset="1" stop-color="#E3CBB3"/>
</linearGradient>
<linearGradient id="paint1_linear_45_2" x1="2.78917" y1="70.0736" x2="197.585" y2="159.355" gradientUnits="userSpaceOnUse">
<stop stop-color="#C8A581"/>
<stop offset="1" stop-color="#E3CBB3"/>
</linearGradient>
</defs>
</svg>
