<svg width="30" height="30" viewBox="0 0 30 30" fill="none" xmlns="http://www.w3.org/2000/svg">
<g clip-path="url(#clip0_62_18)">
<path fill-rule="evenodd" clip-rule="evenodd" d="M13.689 9.65091C14.3598 9.65091 14.9912 9.77052 15.5825 10.0107C16.1738 10.2499 16.6883 10.5766 17.1252 10.9898C17.5621 11.404 17.9064 11.8892 18.158 12.4473C18.4097 13.0055 18.535 13.6025 18.535 14.2393C18.535 14.8675 18.4097 15.4586 18.158 16.0129C17.9064 16.5671 17.5621 17.0503 17.1252 17.4636C16.6883 17.8768 16.1738 18.2035 15.5825 18.4437C14.9912 18.6829 14.3598 18.8034 13.689 18.8034C13.0182 18.8034 12.3896 18.6829 11.802 18.4437C11.2155 18.2035 10.7028 17.8768 10.2659 17.4636C9.82901 17.0503 9.48474 16.5671 9.23309 16.0129C8.98142 15.4586 8.85608 14.8675 8.85608 14.2393C8.85608 13.6025 8.98142 13.0055 9.23309 12.4473C9.48474 11.8892 9.82901 11.404 10.2659 10.9898C10.7028 10.5766 11.2155 10.2499 11.802 10.0107C12.3896 9.77052 13.0182 9.65091 13.689 9.65091ZM13.689 17.5258C14.1483 17.5258 14.5834 17.4393 14.9931 17.2662C15.4038 17.0931 15.7612 16.8588 16.0662 16.5622C16.3702 16.2657 16.6106 15.9176 16.7875 15.518C16.9643 15.1183 17.0522 14.6924 17.0522 14.2393C17.0522 13.7862 16.9643 13.3584 16.7875 12.9539C16.6106 12.5504 16.3702 12.1984 16.0662 11.898C15.7612 11.5975 15.4038 11.3603 14.9931 11.1882C14.5834 11.0151 14.1483 10.9286 13.689 10.9286C13.2297 10.9286 12.7974 11.0151 12.3914 11.1882C11.9854 11.3603 11.6299 11.5975 11.3258 11.898C11.0209 12.1984 10.7804 12.5504 10.6036 12.9539C10.4278 13.3584 10.3389 13.7862 10.3389 14.2393C10.3389 14.6924 10.4278 15.1183 10.6036 15.518C10.7804 15.9176 11.0209 16.2657 11.3258 16.5622C11.6299 16.8588 11.9854 17.0931 12.3914 17.2662C12.7974 17.4393 13.2297 17.5258 13.689 17.5258ZM25.3361 11.4137L26.0043 9.78705L30 18.9153H28.4926L27.6895 17.0074H23.1868L23.7241 15.6874H27.1346L25.3361 11.4137ZM1.33781 13.1727V18.9153H0V9.65091L8.26913 18.9153H6.31668L1.33781 13.1727ZM6.8518 15.2904V11.5042L8.26913 9.79968V17.1388L6.8518 15.2904ZM21.5425 15.4917L24.8487 6L25.663 9.38113L21.5425 18.9153L18.603 12.0127H20.0728L21.5425 15.4917ZM14.1854 22.7308C14.3044 22.7308 14.4136 22.7042 14.5132 22.6511C14.6125 22.598 14.6939 22.527 14.7572 22.438L15 22.6079C14.907 22.7265 14.7903 22.8205 14.6498 22.8902C14.5094 22.9598 14.3545 22.9947 14.1854 22.9947C14.0458 22.9947 13.9147 22.9695 13.7919 22.9189C13.6691 22.8685 13.5623 22.8 13.471 22.7138C13.38 22.6275 13.3078 22.5266 13.2548 22.4106C13.2018 22.2948 13.1754 22.1707 13.1754 22.0384C13.1754 21.906 13.2018 21.7819 13.2548 21.6661C13.3078 21.5502 13.38 21.4492 13.471 21.3629C13.5623 21.2767 13.6691 21.2082 13.7919 21.1578C13.9147 21.1072 14.0458 21.082 14.1854 21.082C14.3545 21.082 14.5094 21.1169 14.6498 21.1865C14.7903 21.2562 14.907 21.3502 15 21.4688L14.7572 21.6387C14.6939 21.5498 14.6125 21.4787 14.5132 21.4256C14.4136 21.3725 14.3044 21.3459 14.1854 21.3459C14.0886 21.3459 13.9979 21.3641 13.9134 21.4008C13.8286 21.4375 13.7547 21.4871 13.6914 21.5498C13.6283 21.6124 13.5781 21.6856 13.5408 21.7692C13.5036 21.8528 13.485 21.9425 13.485 22.0384C13.485 22.1342 13.5036 22.224 13.5408 22.3076C13.5781 22.3911 13.6283 22.4643 13.6914 22.527C13.7547 22.5896 13.8286 22.6394 13.9134 22.6759C13.9979 22.7126 14.0886 22.7308 14.1854 22.7308ZM17.8271 22.3975V22.7257H18.7368L18.4881 23H17.5315V22.3975H17.8271ZM17.5315 22.1517V21.8904H18.7368L18.4881 22.1517H17.5315ZM17.5315 21.6446V21.0927H18.7368L18.4881 21.3619H17.8271V21.6446H17.5315ZM10.3531 22.9973V21.4412L10.6515 21.082V22.9973H10.3531ZM16.7489 21.4385L17.0473 21.0794V22.992H16.7489V22.1453H15.9537V21.8999H16.7489V21.4385ZM15.4223 22.9947V21.4385L15.7207 21.0794V22.9947H15.4223ZM9.86886 21.082L9.10368 22.0476L9.86886 23H9.52845L8.93849 22.2557L8.84782 22.3702L8.55216 22.741V21.4412L8.84782 21.082V21.9496L9.52845 21.082H9.86886ZM19.5029 21.7847V22.9947H19.221V21.0427L20.9633 22.9947H20.5519L19.5029 21.7847ZM20.6646 22.2309V21.4332L20.9633 21.0741V22.6204L20.6646 22.2309ZM11.1357 21.351L11.4209 21.082H13.1754L12.8385 21.351H12.3004V22.9947H12.0045V21.351H11.1357Z" fill="#C9A581"/>
</g>
<defs>
<clipPath id="clip0_62_18">
<rect width="30" height="30" fill="white"/>
</clipPath>
</defs>
</svg>
