<svg width="30" height="30" viewBox="0 0 30 30" fill="none" xmlns="http://www.w3.org/2000/svg">
<g clip-path="url(#clip0_8_6)">
<g clip-path="url(#clip1_8_6)">
<path d="M15 30C10.9932 30 7.22647 28.4397 4.39338 25.6066C1.56029 22.7735 0 19.0068 0 15C0 10.9932 1.56029 7.22647 4.39338 4.39338C7.22647 1.56029 10.9935 0 15 0C19.0065 0 22.7735 1.56029 25.6066 4.39338C28.4397 7.22647 30 10.9932 30 15C30 19.0068 28.4397 22.7735 25.6066 25.6066C22.7735 28.4397 19.0068 30 15 30ZM15 0.328962C11.0811 0.328962 7.39709 1.85508 4.62608 4.62608C1.85508 7.39709 0.328962 11.0814 0.328962 15C0.328962 18.9186 1.85508 22.6029 4.62608 25.3739C7.39709 28.1449 11.0814 29.671 15 29.671C18.9186 29.671 22.6029 28.1449 25.3739 25.3739C28.1449 22.6029 29.671 18.9186 29.671 15C29.671 11.0814 28.1449 7.39709 25.3739 4.62608C22.6029 1.85508 18.9189 0.328962 15 0.328962Z" fill="#E1AA73"/>
<path d="M2.86546 11.3965L3.16024 11.2891L3.1699 11.3178C3.15424 11.3313 3.14407 11.3431 3.1412 11.3527C3.13781 11.3642 3.1412 11.3958 3.1532 11.4456C3.1772 11.5554 3.18842 11.6506 3.18737 11.7297C3.18633 11.8087 3.17094 11.8961 3.14276 11.9913C3.08589 12.1826 2.99641 12.326 2.87485 12.4218C2.80545 12.4755 2.72719 12.5123 2.64136 12.5319C2.54875 12.552 2.45458 12.5491 2.36092 12.5222C2.23179 12.4854 2.12953 12.4132 2.05361 12.3054C1.93596 12.1372 1.91483 11.9238 1.99153 11.6655C2.0197 11.5706 2.05466 11.4886 2.0977 11.4203C2.14049 11.3519 2.20205 11.2779 2.2824 11.1975C2.31971 11.1618 2.34005 11.1367 2.34345 11.1252C2.34632 11.1158 2.34423 11.1007 2.33849 11.0809L2.36353 11.0618L2.55241 11.3071L2.52971 11.3256C2.52214 11.3222 2.51719 11.3209 2.51562 11.3193C2.51014 11.3167 2.50623 11.3154 2.5031 11.3146C2.47049 11.3055 2.42014 11.342 2.35179 11.4245C2.28684 11.5022 2.24066 11.5865 2.21353 11.6775C2.17596 11.804 2.17649 11.9175 2.21484 12.018C2.25788 12.1322 2.33432 12.205 2.44571 12.2368C2.5571 12.2684 2.6625 12.2475 2.76137 12.1737C2.84798 12.109 2.91059 12.0133 2.94815 11.887C2.97763 11.7879 2.98311 11.6827 2.96615 11.5713C2.95233 11.4847 2.9312 11.4367 2.9038 11.4289C2.90276 11.4286 2.89259 11.4268 2.87537 11.4242L2.86546 11.3965ZM3.28755 12.223L3.20642 12.1398C3.18268 12.115 3.1832 12.114 3.18972 12.092C3.24216 11.9154 3.32825 11.8312 3.4266 11.8591C3.47381 11.8726 3.50616 11.9045 3.52442 11.9538C3.54399 12.007 3.5406 12.0751 3.51581 12.1586C3.49129 12.241 3.46155 12.3086 3.42555 12.3618L3.38642 12.3245C3.40886 12.289 3.42425 12.2548 3.4339 12.2225C3.46103 12.1317 3.44616 12.0662 3.39503 12.0516C3.35668 12.0406 3.31625 12.0654 3.30372 12.1072C3.29433 12.1385 3.29851 12.1682 3.31468 12.1964L3.28755 12.2227V12.223Z" fill="#E1AA73"/>
<path d="M3.12033 10.5278L3.37651 10.6395L3.68877 9.92913C3.70677 9.88817 3.70051 9.86156 3.66034 9.82869L3.6726 9.80078L3.98408 9.93643L3.97182 9.96435C3.92251 9.95704 3.89721 9.97113 3.87921 10.0121L3.42138 11.054L3.39503 11.0425C3.40442 10.9906 3.39216 10.9651 3.35381 10.9484L2.49449 10.5737C2.45588 10.5571 2.43214 10.5657 2.39692 10.6074L2.37057 10.5959L2.81484 9.58478C2.83389 9.54173 2.8271 9.51617 2.78771 9.48356L2.79945 9.45642L3.11094 9.59234L3.0992 9.61921C3.04754 9.61217 3.02433 9.62469 3.00528 9.66747L2.70684 10.3468L2.93772 10.4475L3.12294 10.0259C3.14094 9.98496 3.13441 9.95939 3.0958 9.92496L3.1078 9.89809L3.41172 10.0306L3.39998 10.0575C3.34911 10.051 3.32485 10.063 3.30607 10.1057L3.12085 10.5273L3.12033 10.5278Z" fill="#E1AA73"/>
<path d="M3.8891 8.90702L3.91441 9.12485L4.15911 9.27225C4.19511 9.2939 4.22067 9.28894 4.26059 9.2519L4.28432 9.26625L4.06363 9.63747L4.0391 9.6226C4.05476 9.57225 4.04589 9.54512 4.00989 9.52347L3.20692 9.03955C3.17091 9.0179 3.14613 9.02337 3.10622 9.06042L3.0817 9.04555L3.30239 8.67432L3.32692 8.68919C3.31153 8.74111 3.32013 8.76641 3.35613 8.78833L3.67779 8.98216L3.61805 8.41006C3.61336 8.3678 3.60397 8.34171 3.58727 8.3318C3.56979 8.3211 3.54788 8.33206 3.51996 8.36493L3.49544 8.35006L3.7764 7.87788L3.80014 7.89222C3.78971 7.91779 3.78449 7.94257 3.78449 7.96449C3.78449 7.98614 3.79206 8.04405 3.8064 8.13797L3.85936 8.65111L4.5105 8.51389C4.5945 8.49693 4.65059 8.48232 4.68007 8.47084C4.70955 8.45936 4.73512 8.44032 4.75807 8.4158L4.78181 8.43015L4.50868 8.88928L4.48494 8.87494C4.49772 8.83555 4.49642 8.81181 4.4805 8.80215C4.47424 8.7985 4.46798 8.7972 4.45989 8.79876C4.45155 8.79876 4.42728 8.8032 4.38502 8.81233L3.88936 8.90702H3.8891Z" fill="#E1AA73"/>
<path d="M3.81347 7.11117C3.83851 7.07673 3.86955 7.05664 3.90895 7.04934C3.94834 7.04203 3.98303 7.05012 4.01512 7.07412C4.04538 7.09682 4.06286 7.12864 4.06756 7.16908C4.07225 7.20951 4.0626 7.24552 4.03834 7.27891C4.01408 7.3123 3.98225 7.33343 3.9426 7.34073C3.90321 7.34804 3.86773 7.33917 3.83642 7.31595C3.80616 7.29326 3.78816 7.26221 3.78399 7.22256C3.77903 7.18212 3.78894 7.14586 3.8132 7.11117M4.32087 7.31204L5.0727 7.87344C5.10636 7.89848 5.13218 7.89614 5.17523 7.863L5.1974 7.87944L4.94357 8.22849L4.92062 8.21127C4.94096 8.16249 4.9347 8.13457 4.90079 8.10953L4.14921 7.54813C4.11556 7.52309 4.09051 7.52596 4.04747 7.55909L4.02451 7.54187L4.27834 7.19282L4.3013 7.21004C4.28121 7.26039 4.28747 7.28673 4.32113 7.31178" fill="#E1AA73"/>
<path d="M5.28922 7.00577L5.56053 7.25334C5.59158 7.28178 5.6174 7.28178 5.66332 7.25282L5.68367 7.27161L5.39905 7.59509L5.37792 7.57578C5.4027 7.52909 5.39879 7.50065 5.36775 7.47248L4.67382 6.83882C4.64278 6.81038 4.61773 6.8109 4.57182 6.83986L4.55069 6.82029L5.07844 6.22054C5.14679 6.14306 5.20314 6.08672 5.2467 6.0528C5.28948 6.01811 5.3354 5.99384 5.38236 5.97924C5.48071 5.94976 5.57462 5.97663 5.66488 6.05906C5.8021 6.18428 5.80784 6.32802 5.68314 6.53985L6.05985 6.57142C6.1295 6.57768 6.17907 6.57872 6.21089 6.57377C6.24168 6.56803 6.27115 6.55498 6.29568 6.5349L6.31602 6.55342L5.97819 6.93743L5.95784 6.91864C5.97611 6.88395 5.97715 6.85943 5.96124 6.84508C5.94976 6.83464 5.92524 6.82864 5.88741 6.82499L5.48331 6.78586L5.28975 7.00577H5.28922ZM5.13557 6.86516L5.42592 6.53516C5.46975 6.48533 5.49766 6.44281 5.50862 6.4102C5.52453 6.36429 5.51227 6.32229 5.4721 6.2855C5.43636 6.25289 5.40088 6.24246 5.3654 6.25289C5.33018 6.26359 5.28662 6.29881 5.2334 6.35933L4.94278 6.68934L5.13531 6.86516H5.13557Z" fill="#E1AA73"/>
<path d="M6.49238 6.24037L5.88715 5.51827C5.86002 5.48592 5.83524 5.48331 5.78619 5.50575L5.76767 5.48384L6.30298 5.01244C6.41464 4.91409 6.51299 4.85069 6.59986 4.82095C6.72195 4.77921 6.83856 4.78469 6.95178 4.83713C7.0303 4.87339 7.10439 4.93287 7.17248 5.01426C7.29874 5.16479 7.34804 5.32001 7.32039 5.47992C7.29457 5.62314 7.21239 5.74627 7.04282 5.89549L6.50751 6.36689L6.48899 6.34472C6.51925 6.30141 6.51925 6.27272 6.49212 6.24037M6.64395 5.96854L6.87691 5.76349C6.9836 5.66932 7.04204 5.57697 7.05039 5.48723C7.05926 5.39305 7.02587 5.3007 6.94969 5.20992C6.87378 5.11913 6.78977 5.07139 6.69743 5.06618C6.60612 5.06018 6.5182 5.10061 6.40499 5.20053L6.17202 5.40557L6.64368 5.96854H6.64395Z" fill="#E1AA73"/>
<path d="M7.82073 4.65582L7.97256 4.89347L8.60779 4.46042C8.64431 4.43538 8.65344 4.40929 8.63779 4.35868L8.66283 4.34147L8.84753 4.63025L8.82249 4.64747C8.7857 4.61382 8.75753 4.61199 8.72075 4.63677L7.78917 5.272L7.77351 5.24774C7.80873 5.20861 7.81238 5.18018 7.78943 5.14444L7.2802 4.34747C7.2575 4.31173 7.23324 4.30599 7.18185 4.32216L7.1662 4.2979L8.07013 3.68171C8.10848 3.65563 8.11656 3.63006 8.10169 3.5805L8.12569 3.56406L8.31039 3.85285L8.28639 3.86928C8.24752 3.83459 8.22169 3.83224 8.18335 3.85833L7.57603 4.27259L7.71299 4.48651L8.08995 4.22955C8.12648 4.20451 8.13456 4.1792 8.12152 4.12833L8.14552 4.1119L8.32578 4.3939L8.30152 4.41034C8.26317 4.37642 8.23683 4.37329 8.19848 4.39938L7.82151 4.65634L7.82073 4.65582Z" fill="#E1AA73"/>
<path d="M9.3153 3.69684L9.22112 3.8972L9.3453 4.15833C9.36356 4.19668 9.3873 4.20659 9.44 4.19694L9.452 4.22225L9.07295 4.4179L9.06042 4.39155C9.10008 4.35712 9.10712 4.3292 9.08886 4.29059L8.68137 3.43284C8.66311 3.39449 8.6399 3.38536 8.5872 3.39501L8.57468 3.36867L8.95373 3.17301L8.96625 3.19936C8.92607 3.23536 8.91981 3.26171 8.93807 3.30032L9.10138 3.64389L9.35469 3.1211C9.37321 3.08249 9.37921 3.05483 9.37086 3.03709C9.36199 3.01831 9.33799 3.01544 9.29756 3.02822L9.28504 3.00214L9.76739 2.753L9.77939 2.77831C9.75722 2.79448 9.73974 2.81274 9.72826 2.83153C9.71704 2.85031 9.69226 2.90379 9.65443 2.99222L9.42669 3.46101L10.0374 3.70311C10.1157 3.73493 10.1699 3.75372 10.2004 3.75998C10.231 3.7665 10.262 3.76441 10.2938 3.75606L10.3058 3.78137L9.83705 4.02346L9.82505 3.99815C9.85635 3.97128 9.86783 3.95041 9.86 3.93346C9.85687 3.92667 9.85218 3.92224 9.84487 3.91911C9.83809 3.91441 9.81565 3.90502 9.776 3.88937L9.31608 3.69658L9.3153 3.69684Z" fill="#E1AA73"/>
<path d="M10.8477 2.5537L11.1234 3.35588C11.1372 3.39632 11.1597 3.40884 11.2129 3.40519L11.222 3.4318L10.8247 3.58337L10.8153 3.55597C10.8584 3.52623 10.8683 3.4991 10.8544 3.45867L10.579 2.65674L10.2479 2.783C10.2049 2.79944 10.1916 2.82344 10.1947 2.87561L10.1676 2.88579L10.0554 2.55917L10.0836 2.54848C10.1115 2.59022 10.1363 2.59961 10.1793 2.58317L11.1101 2.22786C11.1531 2.21143 11.167 2.18847 11.1636 2.1363L11.1907 2.12586L11.3029 2.45274L11.2758 2.46291C11.2465 2.42065 11.2218 2.41126 11.1785 2.42769L10.8474 2.55396L10.8477 2.5537Z" fill="#E1AA73"/>
<path d="M12.0777 2.64057L12.1387 2.91892L12.8757 2.73109C12.9182 2.72014 12.9352 2.69874 12.9378 2.64526L12.9667 2.6377L13.0411 2.97657L13.0121 2.98388C12.9892 2.93901 12.9636 2.92727 12.9211 2.93823L11.8403 3.21371L11.834 3.18527C11.8799 3.16075 11.893 3.13466 11.8839 3.09292L11.6785 2.15847C11.6694 2.11673 11.6488 2.10239 11.5956 2.09978L11.5893 2.07108L12.638 1.80395C12.6826 1.79273 12.6988 1.77108 12.7014 1.7189L12.7293 1.71186L12.8037 2.05073L12.7758 2.05804C12.7513 2.01134 12.728 2.00012 12.6834 2.01134L11.9785 2.19082L12.0336 2.44178L12.4711 2.33039C12.5136 2.31943 12.5298 2.2983 12.5345 2.24534L12.5624 2.23804L12.6349 2.56857L12.607 2.57561C12.5827 2.53022 12.5593 2.5177 12.5146 2.52918L12.0774 2.64057H12.0777Z" fill="#E1AA73"/>
<path d="M13.5769 2.04056L13.6367 2.705C13.6406 2.74779 13.6604 2.76761 13.7113 2.77518L13.7139 2.80335L13.3207 2.85083L13.3181 2.82161C13.3667 2.80309 13.3828 2.77909 13.3789 2.73605L13.2928 1.77916C13.2889 1.73638 13.2704 1.71968 13.2182 1.71003L13.2156 1.68081L13.67 1.62603L13.6727 1.65525C13.6427 1.6662 13.628 1.68159 13.6296 1.70168C13.6312 1.71838 13.6445 1.7369 13.6687 1.7562L14.359 2.30221L14.3011 1.65785C14.2972 1.61507 14.2784 1.59603 14.2265 1.58872L14.2239 1.55951L14.617 1.51229L14.6196 1.54151C14.5701 1.56133 14.5549 1.58403 14.5588 1.62707L14.6449 2.58396C14.6488 2.62674 14.6674 2.64448 14.7195 2.65413L14.7219 2.68231L14.298 2.73344L14.2954 2.70526C14.3256 2.69535 14.3402 2.68074 14.3384 2.66092C14.3376 2.65152 14.3324 2.64161 14.323 2.63222C14.3136 2.62283 14.2928 2.60431 14.2594 2.5777L13.5764 2.04134L13.5769 2.04056Z" fill="#E1AA73"/>
<path d="M16.8467 2.28552L16.5775 2.26543C16.5321 2.26204 16.5105 2.27743 16.4917 2.32674L16.4632 2.32465L16.4932 2.01421L16.5217 2.0163C16.5305 2.06664 16.5491 2.08491 16.5945 2.0883L17.1574 2.13004L17.1546 2.16056C17.1037 2.17047 17.0833 2.19343 17.0786 2.24247L17.0546 2.49004C17.0505 2.53309 17.0664 2.5563 17.1146 2.57352L17.1123 2.59778C16.872 2.70579 16.6388 2.7517 16.4116 2.735C16.2162 2.72066 16.0623 2.66248 15.9496 2.5623C15.8891 2.507 15.8421 2.44126 15.8092 2.36378C15.7701 2.27221 15.756 2.17595 15.7657 2.0763C15.779 1.93777 15.8343 1.81829 15.9303 1.71655C16.0805 1.55977 16.2861 1.49168 16.5483 1.51098C16.6633 1.51933 16.7919 1.55429 16.9341 1.61559C16.9902 1.63985 17.0241 1.65185 17.0338 1.65264C17.0455 1.65342 17.0606 1.64925 17.0776 1.63907L17.1016 1.65446L16.9323 1.93986L16.9083 1.92525L16.9088 1.91899C16.9114 1.8929 16.8874 1.86473 16.8384 1.83342C16.7473 1.77499 16.6461 1.74212 16.5352 1.73377C16.4074 1.72438 16.2994 1.75125 16.2115 1.81438C16.1189 1.88038 16.0659 1.97586 16.0542 2.09847C16.043 2.21378 16.0732 2.309 16.1447 2.38413C16.2183 2.4603 16.3278 2.50439 16.4726 2.51509C16.6109 2.52526 16.7296 2.50883 16.8298 2.46448L16.8472 2.285L16.8467 2.28552Z" fill="#E1AA73"/>
<path d="M17.8362 2.38648L17.7736 2.66796L18.5093 2.82005C18.5518 2.82892 18.5761 2.81666 18.6009 2.76866L18.6298 2.77466L18.5536 3.11692L18.5247 3.11092C18.5231 3.05979 18.5051 3.03788 18.4629 3.02901L17.3839 2.80622L17.3904 2.77726C17.4418 2.77492 17.4642 2.75692 17.4736 2.71465L17.6839 1.76977C17.6933 1.72751 17.681 1.70559 17.6346 1.67977L17.6411 1.65081L18.688 1.86707C18.7326 1.87621 18.7558 1.86368 18.7803 1.81699L18.8083 1.82273L18.7321 2.16525L18.7042 2.15951C18.7021 2.1063 18.6859 2.08569 18.6416 2.07656L17.938 1.93125L17.8814 2.18508L18.3181 2.27508C18.3606 2.28395 18.3838 2.27143 18.4104 2.22499L18.4383 2.23073L18.364 2.56491L18.3361 2.55917C18.3337 2.50674 18.3178 2.48535 18.2735 2.47596L17.837 2.38595L17.8362 2.38648Z" fill="#E1AA73"/>
<path d="M19.258 3.04336L19.8851 3.25362C19.9282 3.26797 19.9506 3.2578 19.9824 3.21371L20.0096 3.22284L19.8953 3.55493L19.8682 3.5458C19.8718 3.49337 19.8583 3.47093 19.8152 3.45658L18.856 3.13493L18.8656 3.10675C18.9168 3.1104 18.941 3.09527 18.9551 3.05432L19.2705 2.13813C19.2846 2.09717 19.275 2.07369 19.2319 2.04265L19.2416 2.01473L19.6376 2.14752L19.6279 2.17569C19.5755 2.17256 19.5525 2.18717 19.5384 2.22813L19.2577 3.04336H19.258Z" fill="#E1AA73"/>
<path d="M20.6753 3.27788L20.5509 3.53876L21.2273 3.86094C21.2662 3.87946 21.2928 3.8732 21.3273 3.8325L21.3539 3.84528L21.2026 4.16251L21.1759 4.14998C21.1859 4.09964 21.1739 4.07381 21.1347 4.05529L20.1424 3.58284L20.1551 3.55597C20.2052 3.56589 20.2311 3.55337 20.2498 3.51423L20.6675 2.639C20.686 2.59987 20.6792 2.57535 20.6404 2.53935L20.6532 2.51248L21.616 2.97083C21.657 2.9904 21.6823 2.98362 21.7167 2.9437L21.7423 2.95596L21.591 3.27319L21.5654 3.26093C21.5753 3.20823 21.5647 3.18423 21.5237 3.16492L20.8767 2.85683L20.7646 3.09188L21.166 3.2831C21.2049 3.30162 21.2305 3.2951 21.2665 3.25597L21.292 3.26823L21.1444 3.57763L21.1188 3.56537C21.1282 3.51371 21.118 3.48867 21.0771 3.46936L20.6756 3.27814L20.6753 3.27788Z" fill="#E1AA73"/>
<path d="M22.1871 3.76311L21.8219 4.32842C21.7984 4.36495 21.8012 4.39338 21.8352 4.43225L21.8198 4.45625L21.4919 4.24051L21.508 4.21573C21.5563 4.23242 21.5834 4.22355 21.6069 4.18703L22.1328 3.37284C22.1563 3.33632 22.1526 3.31127 22.119 3.27006L22.1352 3.24527L22.5142 3.49467L22.498 3.51945C22.4686 3.50876 22.4477 3.51163 22.4367 3.52858C22.4276 3.54267 22.4263 3.56615 22.4328 3.59693L22.6193 4.47477L22.9736 3.92615C22.9971 3.88963 22.9945 3.86276 22.9598 3.82337L22.9757 3.79859L23.3036 4.01433L23.2874 4.03911C23.2376 4.02294 23.2121 4.03129 23.1886 4.06781L22.6627 4.882C22.6392 4.91852 22.6423 4.94461 22.676 4.98583L22.6606 5.00983L22.3073 4.77713L22.3227 4.75313C22.3517 4.7646 22.3718 4.76278 22.3827 4.74582C22.388 4.73773 22.39 4.72652 22.3887 4.71295C22.3874 4.69939 22.383 4.67121 22.3741 4.62869L22.1871 3.76311Z" fill="#E1AA73"/>
<path d="M23.8335 5.74419L24.3077 6.20776C24.3403 6.23959 24.3646 6.23985 24.4113 6.21324L24.4316 6.23333L24.1919 6.48872L24.1715 6.46864C24.1963 6.42194 24.1935 6.39585 24.1611 6.36403L23.4359 5.65497L23.456 5.63332C23.5003 5.65888 23.5282 5.65523 23.558 5.62366L24.2195 4.91904C24.2493 4.88748 24.2501 4.86191 24.2248 4.81469L24.2451 4.79304L24.5446 5.08574L24.5245 5.10739C24.4789 5.08183 24.4522 5.08548 24.4225 5.11705L23.834 5.74393L23.8335 5.74419Z" fill="#E1AA73"/>
<path d="M25.0024 6.57324L24.782 6.75768L25.2508 7.3483C25.2777 7.38221 25.304 7.38822 25.352 7.36578L25.3705 7.389L25.1026 7.61335L25.0841 7.59013C25.1141 7.54839 25.1141 7.51943 25.087 7.48552L24.3993 6.61916L24.422 6.60038C24.4627 6.63116 24.4909 6.63116 24.524 6.60351L25.2636 5.98471C25.2967 5.95706 25.3006 5.93149 25.281 5.88167L25.3037 5.86288L25.9711 6.70342C25.9995 6.73916 26.0248 6.74412 26.0723 6.72246L26.09 6.7449L25.8221 6.96925L25.8044 6.94682C25.8354 6.90299 25.8357 6.87638 25.8075 6.84064L25.359 6.27559L25.1605 6.44176L25.4389 6.79238C25.466 6.82655 25.4913 6.83151 25.5401 6.81142L25.5578 6.83386L25.2962 7.05273L25.2784 7.0303C25.3087 6.98699 25.3097 6.95986 25.2813 6.92412L25.003 6.57351L25.0024 6.57324Z" fill="#E1AA73"/>
<path d="M25.7279 8.08006L26.0399 8.59789C26.0637 8.63702 26.0879 8.64302 26.1383 8.62946L26.1531 8.65398L25.8607 8.84259L25.8453 8.81702C25.88 8.77946 25.8847 8.75233 25.861 8.7132L25.31 7.79883L25.363 7.76466L26.4769 7.87318L26.1784 7.37804C26.155 7.33891 26.1315 7.33239 26.0801 7.34674L26.0652 7.32195L26.3577 7.13334L26.3725 7.15786C26.3373 7.197 26.3337 7.22334 26.3574 7.26274L26.8985 8.16093L26.8552 8.18884L25.7279 8.08006Z" fill="#E1AA73"/>
<path d="M26.4213 9.38103L26.6676 9.93591C26.6864 9.97791 26.7096 9.98678 26.7613 9.97948L26.773 10.0058L26.461 10.1569L26.4487 10.1295C26.4876 10.0963 26.4954 10.07 26.4769 10.028L26.042 9.0479L26.0984 9.0205L27.187 9.2686L26.9517 8.73798C26.9329 8.69598 26.9107 8.68659 26.858 8.69441L26.8463 8.66806L27.1583 8.51702L27.17 8.54337C27.1307 8.57806 27.1239 8.60363 27.1424 8.64563L27.5694 9.60799L27.5233 9.63043L26.4213 9.38051V9.38103Z" fill="#E1AA73"/>
<path d="M27.1951 10.5884L26.9258 10.6794L27.146 11.4106C27.1585 11.4529 27.1807 11.468 27.2329 11.4652L27.2415 11.4939L26.9144 11.6047L26.9058 11.576C26.9483 11.5481 26.9587 11.5207 26.9459 11.4787L26.6232 10.406L26.6509 10.3966C26.6772 10.441 26.7033 10.4514 26.7435 10.4378L27.6464 10.1321C27.6868 10.1183 27.6996 10.0958 27.6996 10.0416L27.7272 10.0322L28.0403 11.0731C28.0536 11.1171 28.0753 11.1315 28.1266 11.1289L28.135 11.1568L27.8079 11.2677L27.7995 11.2398C27.8439 11.21 27.8535 11.1852 27.8402 11.1409L27.6297 10.4415L27.3871 10.5237L27.5178 10.9578C27.5305 10.9998 27.5522 11.0141 27.6041 11.0136L27.6125 11.0412L27.2932 11.1495L27.2848 11.1216C27.3281 11.0921 27.3391 11.0671 27.3258 11.0227L27.1951 10.5886V10.5884Z" fill="#E1AA73"/>
<path d="M28.0865 12.3597L27.2593 12.5295C27.2175 12.5381 27.2013 12.559 27.1948 12.613L27.1674 12.6187L27.0954 12.198L27.1239 12.1922C27.1445 12.2397 27.169 12.2533 27.2105 12.2449L28.0377 12.0751L27.9777 11.7245C27.9699 11.6788 27.9493 11.6621 27.8981 11.6582L27.8932 11.6295L28.2302 11.5604L28.2352 11.5901C28.1895 11.6125 28.176 11.6363 28.1838 11.6822L28.3523 12.6683C28.3601 12.714 28.38 12.7309 28.4308 12.7346L28.4358 12.7633L28.0987 12.8324L28.0938 12.8037C28.1402 12.78 28.1538 12.7562 28.1462 12.7106L28.0862 12.36L28.0865 12.3597Z" fill="#E1AA73"/>
<path d="M11.1182 23.3608L11.0418 23.7221L11.0094 23.7398C10.9664 23.7142 10.9158 23.6936 10.8581 23.678C10.8005 23.6623 10.7441 23.6545 10.6893 23.6545C10.5837 23.6545 10.5051 23.6837 10.4543 23.7427C10.4034 23.8014 10.3778 23.8974 10.3778 24.0307C10.3778 24.1815 10.4058 24.2926 10.4616 24.3641C10.5174 24.4356 10.6022 24.4713 10.7157 24.4713C10.7686 24.4713 10.825 24.4653 10.8847 24.4536C10.9445 24.4418 10.9969 24.4262 11.0418 24.4066L11.0801 24.4301L11.0418 24.7885C10.9301 24.8219 10.8106 24.8386 10.6833 24.8386C10.4305 24.8386 10.2391 24.7734 10.1089 24.6432C9.97844 24.513 9.91348 24.3255 9.91348 24.0805C9.91348 23.8355 9.98287 23.6365 10.1219 23.5003C10.261 23.3641 10.4579 23.2961 10.7125 23.2961C10.8594 23.2961 10.9945 23.3174 11.1179 23.3608" fill="#E1AA73"/>
<path d="M12.8384 23.4857C12.9626 23.6141 13.0249 23.7946 13.0249 24.0278C13.0249 24.2863 12.9574 24.4867 12.8222 24.6286C12.6871 24.7705 12.4951 24.8417 12.2465 24.8417C12.0193 24.8417 11.8434 24.776 11.719 24.6448C11.5946 24.5136 11.5325 24.3286 11.5325 24.0896C11.5325 23.8369 11.6 23.6412 11.7352 23.5022C11.8703 23.3631 12.0623 23.2935 12.3112 23.2935C12.5384 23.2935 12.714 23.3576 12.8387 23.486M12.1054 23.6795C12.0662 23.702 12.0378 23.7411 12.02 23.7969C12.0023 23.8528 11.9937 23.9305 11.9937 24.0304C11.9937 24.1577 12.0028 24.255 12.0216 24.3229C12.0401 24.3904 12.0701 24.4379 12.1114 24.4653C12.1526 24.4927 12.2102 24.5065 12.2846 24.5065C12.3589 24.5065 12.4129 24.4953 12.4521 24.4729C12.4912 24.4504 12.5196 24.4116 12.5371 24.3568C12.5548 24.302 12.5637 24.2237 12.5637 24.1217C12.5637 23.9965 12.5548 23.8995 12.5371 23.8309C12.5196 23.7622 12.4896 23.7142 12.4476 23.6868C12.4054 23.6595 12.3461 23.6456 12.27 23.6456C12.1993 23.6456 12.1445 23.6568 12.1054 23.6793" fill="#E1AA73"/>
<path d="M13.9946 23.6605L13.9886 23.9456H14.1735L14.4527 23.9368L14.4793 23.9691L14.4498 24.2952L14.1415 24.2863L13.9797 24.2892V24.3304L13.9975 24.8123H13.5537L13.5743 24.3745L13.5537 23.3198H14.5792L14.6027 23.3521L14.5732 23.6751L14.1853 23.6605H13.9946Z" fill="#E1AA73"/>
<path d="M15.5017 23.6605L15.4957 23.9456H15.6809L15.96 23.9368L15.9864 23.9691L15.9569 24.2952L15.6485 24.2863L15.487 24.2892V24.3304L15.5045 24.8123H15.061L15.0814 24.3745L15.061 23.3198H16.0863L16.1097 23.3521L16.0805 23.6751L15.6926 23.6605H15.5017Z" fill="#E1AA73"/>
<path d="M17.6641 24.4567L17.6904 24.4862L17.6612 24.8123H16.5827L16.6033 24.3745L16.5827 23.3198H17.6758L17.7021 23.3521L17.6729 23.6751L17.285 23.6605H17.0233L17.0176 23.8898H17.2704L17.5261 23.8809L17.5493 23.9133L17.5229 24.2394L17.2409 24.2305L17.0087 24.2334L17.0059 24.3304L17.0119 24.4716H17.2587L17.6641 24.4567Z" fill="#E1AA73"/>
<path d="M19.2629 24.4562L19.2896 24.4856L19.2601 24.8117H18.1819L18.2025 24.374L18.1819 23.3193H19.2747L19.3013 23.3516L19.2718 23.6748L18.8839 23.66H18.6225L18.6165 23.8893H18.8693L19.1249 23.8804L19.1484 23.9128L19.1221 24.2389L18.8398 24.23L18.6079 24.2331L18.605 24.3299L18.6108 24.471H18.8575L19.2629 24.4562Z" fill="#E1AA73"/>
<path d="M22.2583 23.9897H20.2838V24.0996H22.2583V23.9897Z" fill="#E1AA73"/>
<path d="M9.25973 24.0445H7.28543V24.1543H9.25973V24.0445Z" fill="#E1AA73"/>
<path d="M9.914 12.7766C9.99983 12.8527 10.0971 12.9013 10.2064 12.9221C10.3155 12.943 10.4219 12.9461 10.5252 12.931C10.6285 12.9161 10.7196 12.8835 10.7986 12.8334C10.8774 12.7834 10.9251 12.7239 10.9411 12.6558C10.8824 12.6939 10.8231 12.7187 10.7637 12.7296C10.7042 12.7411 10.6486 12.7385 10.5972 12.722C10.5458 12.7059 10.4999 12.6793 10.4595 12.6422C10.4191 12.6054 10.3909 12.5577 10.375 12.4998C10.3327 12.3521 10.323 12.1753 10.3457 11.9689C10.3682 11.7625 10.4138 11.5489 10.4819 11.3272C10.5503 11.1057 10.6358 10.8871 10.7389 10.6711C10.8419 10.455 10.9528 10.2604 11.071 10.0867C11.1894 9.91295 11.3112 9.77234 11.4367 9.66382C11.5619 9.55556 11.6801 9.49712 11.7905 9.48851C11.8964 9.48486 11.9686 9.53651 12.007 9.64347C12.0453 9.75043 12.0586 9.89573 12.0466 10.0791C12.0346 10.2625 12.0041 10.4746 11.9551 10.7157C11.9058 10.957 11.8455 11.2064 11.774 11.4638C11.7023 11.7216 11.6251 11.9786 11.5419 12.2342C11.4586 12.4901 11.3783 12.7257 11.3005 12.9407C11.2228 13.1559 11.1531 13.3411 11.0918 13.4968C11.0305 13.6528 10.987 13.7603 10.9614 13.8198C10.9142 13.921 10.922 14.0087 10.9846 14.0833C11.0472 14.1579 11.1278 14.2148 11.2262 14.2542C11.3243 14.2936 11.4208 14.3129 11.5155 14.3116C11.6099 14.3105 11.6655 14.2826 11.6819 14.2278C11.9162 13.4201 12.156 12.733 12.4012 12.1664C12.6464 11.6 12.8796 11.1229 13.1011 10.7357C13.2354 10.4963 13.3682 10.3019 13.4989 10.1524C13.6299 10.0035 13.7408 9.91347 13.8321 9.88321C13.9231 9.85295 13.9847 9.89234 14.0162 10.0019C14.0478 10.1115 14.034 10.3048 13.9745 10.5824C13.9275 10.819 13.8628 11.0765 13.7804 11.3548C13.698 11.6334 13.6158 11.9152 13.5336 12.2003C13.4515 12.4857 13.3808 12.7669 13.3213 13.0445C13.2621 13.3221 13.2318 13.5761 13.2308 13.8065C13.2341 14.0277 13.2785 14.2103 13.3643 14.3538C13.3888 14.395 13.4155 14.4323 13.4434 14.4668C13.7173 14.9489 16.0015 15.2661 17.3447 14.8171C17.9124 14.6275 18.4096 14.28 18.9509 14.0572C20.0145 13.6176 21.1731 13.5769 22.3162 13.6787C21.8899 13.4671 21.4266 13.3197 20.9464 13.2435C20.9889 13.2039 21.0314 13.1603 21.0742 13.1115C21.2028 12.9647 21.3272 12.8011 21.4478 12.6206C21.5683 12.44 21.6818 12.2566 21.7882 12.0699C21.8946 11.8831 21.9888 11.714 22.0713 11.5619C22.0885 11.5299 22.0864 11.4993 22.0645 11.4706C22.0428 11.4422 22.0141 11.4195 21.9789 11.4025C21.9437 11.3858 21.9064 11.377 21.8672 11.3762C21.8281 11.3754 21.8018 11.3843 21.7887 11.4028C21.5286 11.8773 21.3087 12.2373 21.1282 12.4831C20.9477 12.7288 20.8115 12.8556 20.7194 12.8634C20.6871 12.8645 20.6685 12.8293 20.6636 12.757C20.6586 12.685 20.6758 12.5783 20.7144 12.4369C20.7533 12.2955 20.8164 12.1215 20.9036 11.9154C20.9907 11.7091 21.1081 11.4722 21.2555 11.2051C21.2858 11.1545 21.2805 11.1015 21.2396 11.0465C21.1984 10.9914 21.1446 10.945 21.0789 10.9066C21.0129 10.8683 20.944 10.8458 20.8723 10.8393C20.8005 10.8331 20.7491 10.8505 20.7186 10.8923C20.6654 10.9528 20.6156 11.0146 20.5694 11.077C20.5232 11.1396 20.4755 11.1988 20.427 11.2549C20.3471 11.2126 20.2715 11.1691 20.2008 11.1239C20.1301 11.0791 20.0597 11.0454 19.9897 11.023C19.9196 11.0008 19.8478 10.9953 19.7745 11.0071C19.701 11.0188 19.6216 11.0598 19.5366 11.1307C19.4203 11.2343 19.3039 11.3671 19.1873 11.5293C19.0707 11.6916 18.9663 11.8659 18.8737 12.0519C18.7811 12.2381 18.7036 12.4296 18.6415 12.6258C18.5795 12.8222 18.5442 13.0064 18.5367 13.1783C18.5299 13.2464 18.5586 13.3095 18.623 13.3682C18.6473 13.3904 18.6734 13.4102 18.7002 13.429C18.3212 13.5555 17.956 13.7637 17.6121 13.9362C16.4335 14.5422 14.5983 14.6877 14.1047 14.4263C14.0444 14.3465 14.0069 14.2349 13.9915 14.0914C13.9742 13.9294 13.981 13.7361 14.0123 13.5114C14.0436 13.2868 14.088 13.0447 14.1456 12.7852C14.2033 12.5259 14.2711 12.2582 14.3489 11.9822C14.4266 11.7062 14.5025 11.4359 14.5761 11.1711C14.6619 10.8612 14.7203 10.5902 14.7514 10.3588C14.7824 10.1274 14.7892 9.93304 14.7723 9.77547C14.755 9.61817 14.7183 9.49295 14.6619 9.40007C14.6056 9.3072 14.5354 9.24433 14.4511 9.21094C14.2826 9.14468 14.1198 9.13711 13.9622 9.18772C13.8049 9.23859 13.6547 9.3286 13.5117 9.45773C13.3685 9.58712 13.2347 9.74078 13.1094 9.91895C12.9842 10.0974 12.8718 10.2787 12.7721 10.4629C12.6725 10.6471 12.5853 10.8218 12.5105 10.987C12.4356 11.1524 12.3769 11.2831 12.3341 11.3793C12.355 11.3198 12.385 11.2218 12.4241 11.0848C12.463 10.9478 12.4969 10.7955 12.5256 10.6272C12.554 10.4592 12.5733 10.2844 12.583 10.1037C12.5927 9.92287 12.5754 9.75956 12.5311 9.61425C12.4865 9.46921 12.4111 9.34973 12.3039 9.25659C12.1966 9.1632 12.044 9.12016 11.846 9.1272C11.6663 9.13346 11.4936 9.17937 11.3285 9.26416C11.1628 9.3492 11.0068 9.46295 10.8594 9.6059C10.7123 9.74886 10.5751 9.91321 10.448 10.0982C10.3207 10.2834 10.2075 10.4793 10.1089 10.6859C10.01 10.8928 9.92652 11.1046 9.85817 11.3217C9.78982 11.5385 9.73843 11.7472 9.70399 11.947C9.66982 12.1559 9.67478 12.3273 9.71886 12.4614C9.76295 12.5955 9.82765 12.7004 9.91348 12.7763M19.5444 13.2292C19.6172 13.1366 19.6874 13.0442 19.7542 12.9521C19.8243 12.8548 19.8893 12.7633 19.9485 12.6777C20.0077 12.5919 20.0638 12.5167 20.117 12.4515C20.0883 12.5567 20.0625 12.6725 20.0393 12.7998C20.0163 12.9271 20.0106 13.0267 20.0223 13.0985C20.026 13.128 20.0357 13.1574 20.0508 13.1869C20.0161 13.188 19.9814 13.1887 19.9467 13.1906C19.8123 13.1974 19.678 13.2107 19.5444 13.2292ZM19.2588 12.648C19.2963 12.536 19.3462 12.4134 19.4082 12.2801C19.4703 12.1471 19.5439 12.0112 19.6289 11.8726C19.714 11.7341 19.8076 11.6133 19.9102 11.5103C19.959 11.4545 19.9997 11.4305 20.0323 11.4383C20.0649 11.4461 20.0899 11.4691 20.1074 11.5069C20.1249 11.5447 20.1345 11.5859 20.1361 11.6311C20.1377 11.6762 20.1319 11.708 20.1186 11.7265C20.0662 11.8095 19.9981 11.9092 19.9149 12.025C19.8314 12.1408 19.7453 12.2569 19.6574 12.3727C19.5692 12.4888 19.4842 12.5947 19.4023 12.6902C19.3203 12.7857 19.2546 12.8546 19.2056 12.8971C19.2037 12.8428 19.2215 12.7599 19.259 12.648" fill="#E1AA73"/>
<path d="M14.5604 12.4693C14.5148 12.6088 14.4829 12.751 14.4649 12.896C14.4469 13.0414 14.4587 13.1741 14.4999 13.2944C14.5262 13.3839 14.5844 13.4653 14.6747 13.5388C14.7649 13.6124 14.8672 13.6721 14.982 13.7178C15.0968 13.7635 15.2108 13.7922 15.3243 13.8039C15.4377 13.8156 15.5306 13.7997 15.6029 13.7567C15.6887 13.7087 15.7662 13.6437 15.8348 13.5621C15.9034 13.4807 15.9626 13.3974 16.013 13.3119C16.0628 13.2266 16.1048 13.1439 16.139 13.0635C16.1729 12.9832 16.2008 12.92 16.2222 12.8741C16.3479 12.9104 16.457 12.9292 16.5493 12.9302C16.6002 12.931 16.6531 12.9287 16.7082 12.9234C16.6991 13.0116 16.6928 13.0959 16.6897 13.1757C16.685 13.3022 16.691 13.4058 16.7077 13.4867C16.7241 13.5584 16.7677 13.6176 16.8386 13.6648C16.9093 13.7121 16.9902 13.7441 17.0807 13.7611C17.1712 13.7783 17.2625 13.7817 17.3544 13.7718C17.4462 13.7619 17.5192 13.7355 17.573 13.6928C17.6719 13.6171 17.7796 13.4981 17.896 13.3359C18.0123 13.1736 18.1263 12.9947 18.2369 12.7987C18.3475 12.6031 18.4477 12.403 18.5374 12.1987C18.6272 11.9947 18.6942 11.8106 18.7394 11.6462C18.7801 11.4912 18.7795 11.3433 18.7375 11.2025C18.6955 11.0616 18.6337 10.9431 18.5518 10.8466C18.4699 10.7504 18.3765 10.6825 18.2711 10.6434C18.166 10.6043 18.0723 10.6043 17.9909 10.6434C18.1281 10.7378 18.2087 10.8683 18.2333 11.0345C18.2575 11.2009 18.2466 11.3819 18.2007 11.5776C18.1545 11.7735 18.0833 11.9723 17.9865 12.1745C17.89 12.3766 17.7913 12.5598 17.6909 12.7236C17.5905 12.8874 17.4984 13.0228 17.4146 13.1295C17.3309 13.2365 17.2774 13.2926 17.2545 13.2978C17.2469 13.2214 17.2579 13.1011 17.2866 12.9375C17.3155 12.774 17.3507 12.6033 17.393 12.4257C17.4352 12.248 17.4788 12.0803 17.5239 11.923C17.5691 11.7657 17.6066 11.6548 17.6366 11.5904C17.6492 11.5583 17.6343 11.5239 17.5915 11.4871C17.5487 11.4503 17.4968 11.4192 17.436 11.3945C17.375 11.3694 17.3124 11.3548 17.2474 11.3504C17.1827 11.3459 17.1347 11.36 17.1037 11.3926C17.0768 11.4208 17.0468 11.4792 17.0129 11.5687C16.979 11.6579 16.9451 11.7675 16.9104 11.8974C16.8757 12.0273 16.8415 12.1674 16.8076 12.3177C16.7841 12.4218 16.7651 12.5251 16.7481 12.6281C16.6779 12.6386 16.607 12.6401 16.535 12.6323C16.44 12.6221 16.3714 12.6041 16.3289 12.5786C16.3599 12.4147 16.3852 12.2559 16.4053 12.1017C16.4251 11.9475 16.4207 11.7873 16.3918 11.6212C16.3623 11.4417 16.2858 11.2998 16.1622 11.1957C16.0383 11.0916 15.9034 11.0219 15.7568 10.9865C15.6102 10.951 15.4716 10.946 15.341 10.9708C15.2105 10.9958 15.1255 11.0451 15.0869 11.1187C15.0394 11.2108 15.0196 11.305 15.0276 11.4018C15.0357 11.4985 15.0506 11.594 15.0725 11.6882C15.0501 11.7117 15.0256 11.7328 14.9987 11.7516C14.9716 11.7706 14.947 11.7918 14.9246 11.8152C14.8622 11.8763 14.7973 11.9655 14.73 12.0829C14.6627 12.2006 14.6061 12.3289 14.5602 12.4682M15.7111 11.3548C15.7307 11.3858 15.7497 11.4357 15.7685 11.5053C15.787 11.5747 15.8017 11.6532 15.8116 11.7409C15.8215 11.8286 15.8236 11.9167 15.8176 12.0049C15.8116 12.0931 15.7957 12.1695 15.7704 12.2334C15.6856 12.0558 15.637 11.888 15.6245 11.7305C15.612 11.5729 15.641 11.4477 15.7114 11.3548M15.055 13.1426C15.0642 13.0134 15.0837 12.884 15.114 12.7544C15.1443 12.6247 15.1756 12.5094 15.2089 12.409C15.2423 12.3086 15.27 12.2465 15.2924 12.2233C15.3858 12.3871 15.515 12.5201 15.6803 12.6227C15.6214 12.7831 15.5517 12.9344 15.4716 13.0774C15.3913 13.2203 15.2632 13.3468 15.0871 13.4569C15.0566 13.3768 15.0462 13.2722 15.0553 13.1431" fill="#E1AA73"/>
<path d="M24.3383 15.8137C24.2143 15.7638 24.1061 15.7492 24.0137 15.7688C23.8888 15.7975 23.7448 15.8606 23.5812 15.9577C23.4179 16.055 23.2538 16.1669 23.0892 16.2934C22.9243 16.4205 22.7618 16.5483 22.6006 16.6782C22.4396 16.8079 22.2985 16.9164 22.1782 17.0038C22.0413 16.8699 21.9583 16.6978 21.9293 16.487C21.9004 16.2762 21.9053 16.0711 21.9442 15.8718C21.9831 15.6725 22.0522 15.4988 22.1516 15.3509C22.2513 15.2027 22.3642 15.1273 22.4913 15.1244C22.4801 15.1583 22.4636 15.205 22.4414 15.2658C22.419 15.3264 22.4002 15.39 22.3851 15.4568C22.37 15.5233 22.3582 15.5914 22.3499 15.6605C22.3415 15.7299 22.346 15.7902 22.3632 15.8413C22.3885 15.9115 22.4266 15.9759 22.478 16.0344C22.5288 16.0928 22.5841 16.1392 22.6436 16.1742C22.7031 16.2091 22.7618 16.2342 22.82 16.2496C22.8776 16.265 22.923 16.265 22.9554 16.2496C22.9011 16.1489 22.9029 16.013 22.9606 15.8416C23.018 15.6704 23.1035 15.4923 23.217 15.307C23.3305 15.1221 23.4547 14.9457 23.5895 14.7785C23.7244 14.6116 23.8423 14.4884 23.9436 14.4089C23.9876 14.3729 23.9882 14.3139 23.9456 14.2317C23.9029 14.1498 23.8434 14.0708 23.7675 13.9943C23.6916 13.9182 23.612 13.8584 23.5285 13.8154C23.445 13.7723 23.3811 13.7689 23.3373 13.8049C23.2627 13.8824 23.1656 13.993 23.0456 14.1357C22.9259 14.2789 22.7892 14.4936 22.6366 14.7798C22.5873 14.7506 22.5197 14.7164 22.4331 14.677C22.3465 14.6376 22.2523 14.6053 22.15 14.5797C22.048 14.5547 21.9466 14.5443 21.8466 14.5482C21.7467 14.5523 21.6617 14.5797 21.5918 14.6309C21.4527 14.7391 21.3296 14.8646 21.2232 15.0065C21.1165 15.1484 21.0325 15.3005 20.9709 15.4623C20.9091 15.624 20.8731 15.792 20.8624 15.9663C20.8538 16.11 20.8676 16.2509 20.9018 16.3894C20.8358 16.5225 20.7645 16.6558 20.6873 16.7896C20.5684 16.9949 20.4439 17.1872 20.3135 17.3672C20.1828 17.5472 20.049 17.7076 19.9125 17.8485C19.7756 17.9896 19.6467 18.1005 19.5257 18.1814C19.5155 18.0447 19.5332 17.8767 19.5789 17.6766C19.6243 17.4767 19.679 17.268 19.7435 17.0505C19.8077 16.8332 19.876 16.625 19.9483 16.4265C20.0205 16.2282 20.0784 16.0618 20.1223 15.9274C20.1497 15.8468 20.1322 15.768 20.0696 15.6905C20.007 15.6136 19.9237 15.5491 19.8199 15.4977C19.7156 15.4466 19.6047 15.4153 19.487 15.4044C19.3691 15.3934 19.2718 15.4135 19.1954 15.4649C19.0809 15.5455 18.9643 15.6425 18.8456 15.7558C18.7269 15.8692 18.6108 15.996 18.4973 16.1351C18.3835 16.2746 18.2708 16.4236 18.1589 16.5822C18.047 16.7413 17.9429 16.8994 17.8477 17.057C17.8519 17.0241 17.8759 16.9599 17.9189 16.8652C17.9622 16.7703 18.0144 16.6602 18.0752 16.5345C18.1362 16.4087 18.1999 16.2733 18.2662 16.1275C18.3324 15.9819 18.3937 15.8382 18.4503 15.6965C18.4665 15.6431 18.4402 15.5828 18.3718 15.5157C18.3032 15.449 18.2174 15.396 18.1143 15.3579C18.0113 15.3198 17.908 15.3042 17.8049 15.3117C17.7019 15.3193 17.6304 15.3704 17.5905 15.4651C17.4942 15.6618 17.4055 15.87 17.3236 16.0878C17.308 16.0949 17.2954 16.104 17.2876 16.116C16.9378 16.8162 16.6393 17.3489 16.392 17.7141C16.1445 18.0794 15.9545 18.2703 15.822 18.2865C15.7753 18.2899 15.7466 18.2398 15.7357 18.1357C15.7247 18.0319 15.7435 17.8767 15.7918 17.67C15.8403 17.4637 15.9217 17.2086 16.0365 16.9057C16.1512 16.6025 16.3078 16.2538 16.5063 15.8593C16.5475 15.7844 16.5368 15.708 16.4745 15.6308C16.4116 15.5536 16.3318 15.4891 16.2345 15.4375C16.1369 15.3856 16.0362 15.3571 15.9321 15.3514C15.828 15.3462 15.755 15.3744 15.7127 15.4364C15.6392 15.527 15.5705 15.6188 15.5071 15.7117C15.4438 15.8048 15.378 15.8932 15.311 15.9767C15.1931 15.9198 15.0817 15.8611 14.9768 15.7998C14.8719 15.7388 14.7684 15.6942 14.6661 15.6655C14.5636 15.6371 14.4595 15.6334 14.3541 15.654C14.2484 15.6749 14.136 15.7388 14.017 15.8458C13.8542 16.002 13.6933 16.2005 13.5339 16.4411C13.5068 16.4818 13.4812 16.5238 13.4551 16.5655C13.4335 16.571 13.4149 16.5814 13.4001 16.5984C13.2923 16.8616 13.1449 17.1345 12.9587 17.4165C12.7721 17.6987 12.5801 17.9536 12.3827 18.1808C12.1854 18.4083 11.9934 18.5943 11.8066 18.7388C11.6199 18.8839 11.4725 18.9502 11.3647 18.9384C11.2904 18.9306 11.2466 18.8766 11.2325 18.7762C11.2181 18.6757 11.2166 18.5596 11.2267 18.4276C11.2372 18.2961 11.2578 18.1652 11.288 18.0353C11.3188 17.9054 11.348 17.8065 11.3767 17.7389C11.5001 17.7825 11.6123 17.8067 11.7133 17.8125C11.814 17.8182 11.9295 17.8 12.0602 17.7577C12.242 17.6852 12.4017 17.5573 12.5387 17.3737C12.6756 17.1903 12.7883 16.9952 12.877 16.7888C12.9652 16.5827 13.0312 16.3863 13.0745 16.1998C13.1173 16.0132 13.1366 15.8844 13.1314 15.8124C13.1335 15.6616 13.0513 15.5434 12.8843 15.4573C12.7661 15.4007 12.6605 15.3477 12.5666 15.299C12.4727 15.2504 12.3814 15.2144 12.2929 15.1915C12.2042 15.1685 12.1202 15.1617 12.0407 15.1706C11.9611 15.1797 11.8763 15.2108 11.7866 15.263C11.6397 15.3587 11.4863 15.5045 11.3269 15.6997C11.2121 15.84 11.1028 15.9958 10.9987 16.1661C10.9959 16.1664 10.9932 16.1656 10.9901 16.1664C10.7585 16.2031 10.544 16.2647 10.3465 16.3513C10.1488 16.4379 9.92992 16.5326 9.68992 16.6352C9.57044 16.4672 9.41104 16.3234 9.21173 16.2039C9.01243 16.0845 8.81547 16.0218 8.62085 16.0166C8.69599 15.9457 8.78938 15.8536 8.90156 15.7406C9.01347 15.6277 9.12617 15.5014 9.23991 15.3621C9.35339 15.2228 9.46087 15.0725 9.56287 14.911C9.66461 14.7498 9.74261 14.5818 9.79688 14.4076C9.85062 14.2336 9.84253 14.0541 9.77235 13.8694C9.70192 13.6847 9.59261 13.5177 9.44443 13.368C9.29626 13.2185 9.12173 13.0969 8.92086 13.0038C8.71999 12.9107 8.51598 12.865 8.30885 12.8671C8.0485 12.8734 7.76858 12.9365 7.47014 13.0567C7.17118 13.177 6.87535 13.338 6.58238 13.5394C6.28968 13.7413 6.0069 13.9682 5.73454 14.2205C5.46219 14.4733 5.22193 14.7316 5.01401 14.9956C4.80609 15.2598 4.63913 15.5176 4.51391 15.7691C4.38843 16.0208 4.32661 16.2444 4.32765 16.4408C4.33104 16.6699 4.40148 16.853 4.5387 16.9899C4.67592 17.1272 4.82827 17.2193 4.99575 17.2657C5.16297 17.3124 5.31871 17.314 5.46245 17.2706C5.60645 17.2273 5.6868 17.136 5.7035 16.9975C5.46637 17.0476 5.32262 17.0059 5.27254 16.872C5.22271 16.7382 5.2488 16.5496 5.35132 16.3065C5.45358 16.0631 5.62393 15.7855 5.86185 15.4732C6.09977 15.1612 6.3849 14.8552 6.71726 14.556C6.63299 14.7717 6.52943 15.0509 6.40786 15.3939C6.28577 15.7367 6.16472 16.0912 6.04446 16.4567C5.9242 16.8227 5.81202 17.1812 5.70741 17.5326C5.60306 17.884 5.52245 18.1764 5.46584 18.4096C5.43428 18.5234 5.44784 18.6188 5.50706 18.6963C5.56628 18.7738 5.64402 18.832 5.74054 18.8706C5.8162 18.898 5.8955 18.9084 5.97872 18.9022C6.06194 18.8959 6.14281 18.8346 6.22107 18.7175C6.26281 18.6488 6.3356 18.5453 6.4389 18.4068C6.54247 18.2685 6.66352 18.1187 6.8023 17.9578C6.94109 17.7971 7.08952 17.6322 7.24761 17.4634C7.4057 17.2946 7.56536 17.1454 7.72632 17.0158C7.88728 16.8861 8.04224 16.7862 8.19093 16.7163C8.33963 16.6464 8.46877 16.6271 8.57807 16.6584C8.63259 16.674 8.67512 16.7069 8.70564 16.757C8.7359 16.8073 8.75834 16.8579 8.77216 16.9093C8.78599 16.9607 8.79303 17.0095 8.79303 17.0552C8.79303 17.1011 8.7899 17.1274 8.7839 17.1345C8.53451 17.2902 8.25954 17.4874 7.95928 17.7254C7.65901 17.9635 7.36214 18.2228 7.06839 18.503C6.77439 18.7835 6.49838 19.0772 6.24012 19.3842C5.98185 19.6913 5.7695 19.9884 5.60332 20.2757C5.42019 20.6033 5.33828 20.8811 5.35888 21.1089C5.37897 21.3366 5.47106 21.4984 5.63541 21.5944C5.7995 21.6904 6.01994 21.7099 6.29699 21.6536C6.57378 21.5972 6.87378 21.4493 7.19727 21.2093C7.54005 20.9612 7.86667 20.6737 8.17737 20.3464C8.48755 20.019 8.76173 19.6764 8.99964 19.3185C9.2373 18.9606 9.43191 18.6024 9.5827 18.2442C9.73348 17.886 9.81748 17.549 9.83444 17.2333C9.95575 17.1593 10.1172 17.0784 10.3184 16.9915C10.4238 16.9461 10.5302 16.9044 10.6379 16.8658C10.5941 16.9665 10.5516 17.0687 10.5122 17.1736C10.4058 17.4564 10.3306 17.7274 10.2858 17.9857C10.2414 18.2442 10.2338 18.4824 10.2631 18.6997C10.2925 18.917 10.3752 19.0861 10.5111 19.2071C10.5751 19.2614 10.6565 19.3177 10.7543 19.3756C10.8524 19.4338 10.9596 19.4834 11.0762 19.5238C11.1928 19.5643 11.3084 19.5869 11.4224 19.5916C11.5364 19.5963 11.6415 19.5692 11.7375 19.5095C11.9418 19.3767 12.1471 19.211 12.3532 19.0122C12.4703 18.8995 12.5833 18.7801 12.6931 18.6551C12.6871 18.7248 12.6834 18.7934 12.6832 18.8602C12.6769 18.9588 12.7221 19.0488 12.8183 19.1302C12.9146 19.2115 13.0247 19.2755 13.1486 19.3219C13.2722 19.3686 13.3962 19.3936 13.5203 19.3978C13.6442 19.4017 13.7342 19.372 13.7898 19.3091C13.9075 19.1826 14.0194 19.0467 14.1261 18.9014C14.2323 18.7561 14.3337 18.611 14.4303 18.4665C14.5265 18.3217 14.6155 18.1861 14.6964 18.059C14.7772 17.932 14.8544 17.82 14.9275 17.7227C14.892 17.8761 14.861 18.0454 14.8344 18.2307C14.808 18.4159 14.8051 18.5604 14.8263 18.6635C14.8385 18.7412 14.8792 18.8184 14.9486 18.8951C15.0177 18.9721 15.0994 19.0347 15.1933 19.0835C15.2872 19.1322 15.3895 19.1609 15.5006 19.1688C15.6115 19.1771 15.7151 19.1547 15.8116 19.1017C15.9919 19.0034 16.1706 18.8445 16.3485 18.6251C16.4813 18.4613 16.6101 18.2841 16.7353 18.0937C16.7265 18.131 16.7173 18.1691 16.7087 18.2056C16.648 18.4688 16.6033 18.6799 16.5749 18.8393C16.5593 18.8993 16.5919 18.9559 16.6727 19.0088C16.7536 19.0621 16.8452 19.1009 16.9472 19.1262C17.0497 19.1518 17.1504 19.1589 17.2498 19.1482C17.3492 19.1377 17.4136 19.1017 17.4426 19.0407C17.5049 18.8855 17.5957 18.689 17.7152 18.4508C17.8347 18.2129 17.9675 17.9706 18.1133 17.7243C18.2588 17.4778 18.4073 17.2443 18.5583 17.0236C18.7091 16.8029 18.8471 16.6323 18.9721 16.5118C18.9556 16.559 18.928 16.6607 18.8894 16.8175C18.8508 16.974 18.8135 17.1488 18.7775 17.3413C18.7417 17.5341 18.7169 17.7256 18.7044 17.9163C18.6916 18.1073 18.7026 18.257 18.7376 18.3658C18.7556 18.43 18.8103 18.4915 18.9016 18.5502C18.9929 18.6089 19.0965 18.6538 19.2123 18.6846C19.3284 18.7154 19.4466 18.7313 19.5671 18.7321C19.6874 18.7328 19.7925 18.7073 19.8823 18.6546C20.0169 18.5729 20.1593 18.4412 20.3098 18.2596C20.4604 18.0783 20.6059 17.8761 20.7468 17.6528C20.8877 17.4298 21.0176 17.1992 21.1373 16.9612C21.1465 16.943 21.1548 16.9258 21.1637 16.9078C21.1812 16.9289 21.1992 16.9498 21.2182 16.9701C21.3526 17.1141 21.4859 17.2662 21.6181 17.4269C21.3792 17.6343 21.1462 17.8545 20.9192 18.0874C20.692 18.3201 20.5112 18.5659 20.3764 18.8247C20.2887 18.9948 20.2509 19.1419 20.2634 19.2653C20.2759 19.3887 20.32 19.492 20.3964 19.5747C20.4729 19.6574 20.5744 19.7171 20.7006 19.7536C20.8269 19.7899 20.962 19.8082 21.1058 19.8074C21.2498 19.8066 21.3953 19.786 21.543 19.7456C21.6906 19.7054 21.8216 19.648 21.9367 19.5742C22.1091 19.4633 22.2698 19.3305 22.419 19.1753C22.5682 19.0203 22.6848 18.8562 22.7691 18.6828C22.8534 18.5095 22.8954 18.3345 22.8961 18.1579C22.8961 17.981 22.8401 17.8083 22.7274 17.64C22.6903 17.5902 22.6535 17.5438 22.6167 17.5007C22.58 17.4577 22.5432 17.4113 22.5061 17.3614C22.5549 17.2988 22.6629 17.1976 22.8299 17.0575C22.9968 16.9174 23.1784 16.7732 23.3748 16.6245C23.571 16.4758 23.762 16.3406 23.9469 16.2191C24.1319 16.0975 24.2736 16.0231 24.3722 15.9963C24.4116 15.9871 24.4429 15.9848 24.4669 15.9892C24.4903 15.9942 24.5091 15.9978 24.5227 15.9999C24.5363 16.0023 24.548 16.0015 24.5577 15.9973C24.5673 15.9934 24.5845 15.9772 24.6093 15.9491C24.5524 15.9076 24.4624 15.8619 24.338 15.8118M11.6233 17.0739C11.684 16.9451 11.7573 16.8055 11.8432 16.655C11.929 16.5047 12.0187 16.362 12.1127 16.2274C12.2066 16.0928 12.2848 16.0005 12.348 15.9498C12.3427 16.0618 12.3208 16.1974 12.2827 16.3573C12.2441 16.5172 12.1886 16.6704 12.1158 16.8165C12.0427 16.9626 11.9585 17.0849 11.862 17.1838C11.7654 17.2826 11.6566 17.3267 11.5356 17.3158C11.5333 17.2834 11.5622 17.2026 11.623 17.0737M8.32685 15.1604C8.13772 15.407 7.94597 15.6423 7.75162 15.8658C7.55753 16.0897 7.37701 16.2926 7.20953 16.4755C7.04231 16.6581 6.92204 16.7946 6.84848 16.8851C6.90378 16.7304 6.96613 16.5559 7.03552 16.3605C7.10492 16.1656 7.17535 15.9655 7.24709 15.7604C7.31883 15.5554 7.39292 15.3537 7.46857 15.155C7.54423 14.9564 7.6191 14.7723 7.69371 14.6029C7.7164 14.5489 7.71588 14.4968 7.69214 14.4459C7.6684 14.3953 7.63136 14.3504 7.58205 14.3116C7.53223 14.2727 7.47666 14.2424 7.41483 14.2205C7.35301 14.1991 7.30214 14.1863 7.26144 14.1827C7.39396 14.0747 7.53875 13.9758 7.69632 13.8855C7.85336 13.7955 8.00676 13.7204 8.15624 13.6601C8.30572 13.6001 8.44294 13.5571 8.56816 13.5315C8.69338 13.5062 8.78755 13.5104 8.85016 13.5451C8.98895 13.6135 9.04608 13.7306 9.02156 13.896C8.99677 14.0616 8.92216 14.2521 8.79747 14.4676C8.67303 14.683 8.51572 14.9139 8.32685 15.1602M8.38372 18.4519C8.28537 18.6162 8.16485 18.7955 8.02189 18.9893C7.87893 19.1831 7.7211 19.3796 7.54866 19.5791C7.37596 19.7784 7.20587 19.9663 7.03813 20.1423C6.87065 20.3184 6.71126 20.4726 6.56047 20.6046C6.40969 20.7369 6.28264 20.8298 6.17959 20.8832C6.21794 20.6777 6.32751 20.44 6.5083 20.1713C6.68934 19.9029 6.90039 19.6352 7.1417 19.3686C7.38301 19.102 7.63371 18.851 7.89406 18.6157C8.15415 18.3804 8.37955 18.1939 8.56998 18.0551C8.5439 18.1553 8.48181 18.2875 8.38372 18.4519ZM14.8899 16.6764C14.8187 16.7995 14.7258 16.9472 14.6116 17.1191C14.497 17.2913 14.3794 17.4637 14.2583 17.6361C14.137 17.8088 14.0199 17.9667 13.9067 18.1091C13.7935 18.2515 13.7024 18.3548 13.6335 18.419C13.6278 18.3408 13.6489 18.2197 13.6972 18.0556C13.7452 17.8918 13.8107 17.7118 13.8934 17.5156C13.9758 17.32 14.0747 17.1193 14.1903 16.9143C14.3056 16.7092 14.4344 16.5298 14.5769 16.3751C14.6442 16.2916 14.7018 16.2545 14.7493 16.2642C14.7968 16.2738 14.8344 16.3057 14.8615 16.3592C14.8889 16.4129 14.9051 16.4721 14.9097 16.5373C14.9144 16.6025 14.9079 16.649 14.8897 16.6764M21.9134 18.2414C21.8602 18.3828 21.7835 18.5226 21.6836 18.6611C21.5832 18.7996 21.4718 18.9207 21.3489 19.0245C21.2263 19.1286 21.1185 19.1873 21.0257 19.2003C21.0943 18.953 21.2132 18.7268 21.382 18.521C21.5508 18.3154 21.7313 18.1107 21.9239 17.9067C21.97 17.9883 21.9667 18.0997 21.9134 18.2414Z" fill="#E1AA73"/>
</g>
</g>
<defs>
<clipPath id="clip0_8_6">
<rect width="30" height="30" fill="white"/>
</clipPath>
<clipPath id="clip1_8_6">
<rect width="30" height="30" fill="white"/>
</clipPath>
</defs>
</svg>
