<svg width="696" height="649" viewBox="0 0 696 649" fill="none" xmlns="http://www.w3.org/2000/svg">
<path d="M552.812 179.424C513.281 175.674 476.797 182.783 450.469 197.158C462.891 213.017 470.859 237.861 470.859 265.83C470.859 288.642 465.547 309.346 456.875 324.814C478.984 338.017 507.266 347.314 538.594 350.283C614.141 357.471 678.594 324.971 682.5 277.783C686.406 230.596 628.359 186.611 552.812 179.424Z" fill="#191919" fill-opacity="0.5"/>
<path d="M0 309.267L0.78125 333.486C2.5 386.377 21.25 437.861 55.1563 482.236C87.6563 524.814 132.969 559.736 186.328 583.252C198.203 588.486 212.031 583.096 217.188 571.221C222.422 559.346 217.031 545.517 205.156 540.361C159.062 520.049 120.078 490.127 92.3438 453.799C69.6875 424.111 55.2344 390.752 49.8438 356.142H645.625C640.156 391.142 625.469 424.814 602.344 454.814C574.141 491.377 534.531 521.377 487.656 541.455C475.781 546.533 470.312 560.361 475.391 572.236C479.219 581.142 487.812 586.455 496.953 586.455C500.078 586.455 503.203 585.83 506.172 584.58C619.062 535.986 691.328 439.814 694.688 333.486L695.469 309.267H0Z" fill="#212121"/>
<path d="M409.922 548.408H285.703C258.203 548.408 235.625 570.908 235.625 598.486C235.625 626.064 258.125 648.564 285.703 648.564H409.922C437.422 648.564 460 626.064 460 598.486C460 570.908 437.422 548.408 409.922 548.408ZM409.922 601.611H285.703C284.063 601.611 282.5 600.049 282.5 598.408C282.5 596.767 284.063 595.205 285.703 595.205H409.922C411.563 595.205 413.125 596.767 413.125 598.408C413.125 600.049 411.563 601.611 409.922 601.611Z" fill="#212121"/>
<path d="M336.641 215.127C329.141 204.58 314.453 202.158 303.906 209.736C293.359 217.236 290.938 231.924 298.516 242.471C306.953 254.267 311.484 268.252 311.484 282.861C311.484 295.83 321.953 306.299 334.922 306.299C347.891 306.299 358.359 295.83 358.359 282.861C358.359 258.33 350.859 234.892 336.641 215.127ZM285.312 174.736C271.484 169.189 256.953 166.377 241.953 166.377C177.734 166.377 125.547 218.564 125.547 282.783C125.547 295.752 136.016 306.221 148.984 306.221C161.953 306.221 172.422 295.752 172.422 282.783C172.422 244.424 203.594 213.252 241.953 213.252C250.938 213.252 259.609 214.892 267.812 218.252C279.844 223.096 293.438 217.236 298.281 205.205C303.125 193.174 297.344 179.502 285.312 174.736Z" fill="#212121" fill-opacity="0.75"/>
<path d="M376.719 137.939C340.235 102.314 292.578 82.6269 242.5 82.6269C192.422 82.6269 144.766 102.236 108.281 137.939C72.2659 173.174 50.469 220.752 46.8752 271.846C45.9377 284.736 55.7034 295.986 68.594 296.846C81.4846 297.705 92.7346 288.017 93.594 275.127C96.3283 235.439 113.203 198.643 141.016 171.455C168.672 144.424 204.688 129.502 242.5 129.502C280.235 129.502 316.328 144.424 343.985 171.455C371.797 198.643 388.594 235.439 391.406 275.127C392.266 287.471 402.578 296.924 414.766 296.924C415.313 296.924 415.86 296.924 416.406 296.846C429.297 295.908 439.063 284.736 438.125 271.846C434.531 220.752 412.735 173.174 376.719 137.939ZM646.797 224.814C637.813 209.658 625.156 196.221 609.219 184.814L651.328 139.267C660.078 129.736 659.531 114.892 650 106.142C640.469 97.3925 625.625 97.9394 616.875 107.471L566.094 162.471C562.188 161.064 558.203 159.736 554.141 158.564L618.516 34.1894C624.453 22.705 620 8.56437 608.438 2.62687C596.953 -3.31063 582.813 1.1425 576.875 12.705L505.625 150.439C501.328 150.205 496.953 150.049 492.578 150.049C475.469 150.049 458.594 151.924 442.344 155.674C429.766 158.564 421.875 171.142 424.766 183.799C427.656 196.377 440.235 204.267 452.891 201.377C465.625 198.408 478.985 196.924 492.5 196.924C526.563 196.924 558.281 206.143 581.797 222.939C602.969 238.018 614.61 257.314 614.61 277.236C614.61 290.205 625.078 300.674 638.047 300.674C651.016 300.674 661.485 290.205 661.485 277.236C661.485 258.877 656.563 241.221 646.797 224.814Z" fill="#212121"/>
</svg>
