<svg width="100" height="100" viewBox="0 0 100 100" fill="none" xmlns="http://www.w3.org/2000/svg">
<rect width="100" height="100" rx="50" fill="#121D23"/>
<path fill-rule="evenodd" clip-rule="evenodd" d="M47.0284 39.1609C48.5488 39.1609 49.9801 39.4282 51.3203 39.9651C52.6605 40.4997 53.8268 41.23 54.8171 42.1537C55.8073 43.0796 56.5877 44.1641 57.1581 45.4117C57.7286 46.6593 58.0127 47.9937 58.0127 49.4173C58.0127 50.8214 57.7286 52.1428 57.1581 53.3817C56.5877 54.6206 55.8073 55.7008 54.8171 56.6245C53.8268 57.5482 52.6605 58.2785 51.3203 58.8153C49.9801 59.35 48.5488 59.6195 47.0284 59.6195C45.508 59.6195 44.083 59.35 42.7513 58.8153C41.4217 58.2785 40.2597 57.5482 39.2694 56.6245C38.2791 55.7008 37.4987 54.6206 36.9283 53.3817C36.3579 52.1428 36.0738 50.8214 36.0738 49.4173C36.0738 47.9937 36.3579 46.6593 36.9283 45.4117C37.4987 44.1641 38.2791 43.0796 39.2694 42.1537C40.2597 41.23 41.4217 40.4997 42.7513 39.9651C44.083 39.4282 45.508 39.1609 47.0284 39.1609ZM47.0284 56.7636C48.0695 56.7636 49.0556 56.5701 49.9844 56.1833C50.9153 55.7964 51.7253 55.2726 52.4166 54.6097C53.1058 53.9468 53.6508 53.1687 54.0516 52.2754C54.4524 51.3821 54.6517 50.4302 54.6517 49.4173C54.6517 48.4045 54.4524 47.4482 54.0516 46.5441C53.6508 45.6421 53.1058 44.8553 52.4166 44.1837C51.7253 43.5121 50.9153 42.9818 49.9844 42.5971C49.0556 42.2102 48.0695 42.0168 47.0284 42.0168C45.9872 42.0168 45.0075 42.2102 44.0872 42.5971C43.1669 42.9818 42.3611 43.5121 41.6719 44.1837C40.9806 44.8553 40.4357 45.6421 40.0349 46.5441C39.6363 47.4482 39.4348 48.4045 39.4348 49.4173C39.4348 50.4302 39.6363 51.3821 40.0349 52.2754C40.4357 53.1687 40.9806 53.9468 41.6719 54.6097C42.3611 55.2726 43.1669 55.7964 44.0872 56.1833C45.0075 56.5701 45.9872 56.7636 47.0284 56.7636ZM73.4284 43.1011L74.9431 39.4652L84 59.8694H80.5832L78.7629 55.6047H68.5567L69.7747 52.6542H77.5051L73.4284 43.1011ZM19.0324 47.0331V59.8694H16V39.1609L34.7434 59.8694H30.3178L19.0324 47.0331ZM31.5307 51.7668V43.3034L34.7434 39.4934V55.8986L31.5307 51.7668ZM64.8296 52.2167L72.3237 31L74.1695 38.5578L64.8296 59.8694L58.1669 44.4402H61.4983L64.8296 52.2167ZM48.1535 68.3983C48.4234 68.3983 48.6709 68.3387 48.8965 68.2201C49.1217 68.1015 49.3062 67.9426 49.4496 67.7439L50.0001 68.1235C49.7892 68.3887 49.5247 68.5988 49.2061 68.7545C48.888 68.9102 48.5368 68.9881 48.1535 68.9881C47.8372 68.9881 47.5401 68.9318 47.2617 68.8186C46.9834 68.706 46.7412 68.553 46.5344 68.3603C46.3279 68.1675 46.1644 67.9417 46.0442 67.6825C45.9241 67.4238 45.8642 67.1463 45.8642 66.8504C45.8642 66.5546 45.9241 66.2771 46.0442 66.0184C46.1644 65.7592 46.3279 65.5334 46.5344 65.3406C46.7412 65.1479 46.9834 64.9949 47.2617 64.8822C47.5401 64.7691 47.8372 64.7128 48.1535 64.7128C48.5368 64.7128 48.888 64.7907 49.2061 64.9464C49.5247 65.102 49.7892 65.3122 50.0001 65.5774L49.4496 65.957C49.3062 65.7583 49.1217 65.5994 48.8965 65.4808C48.6709 65.3622 48.4234 65.3026 48.1535 65.3026C47.9341 65.3026 47.7286 65.3434 47.5369 65.4254C47.3448 65.5073 47.1773 65.6181 47.0338 65.7583C46.8909 65.8984 46.7769 66.0619 46.6925 66.2487C46.6081 66.4356 46.5661 66.6361 46.5661 66.8504C46.5661 67.0648 46.6081 67.2653 46.6925 67.4522C46.7769 67.639 46.8909 67.8025 47.0338 67.9426C47.1773 68.0827 47.3448 68.194 47.5369 68.2755C47.7286 68.3575 47.9341 68.3983 48.1535 68.3983ZM56.4082 67.6532V68.3868H58.4701L57.9063 69H55.738V67.6532H56.4082ZM55.738 67.1037V66.5198H58.4701L57.9063 67.1037H55.738ZM55.738 65.9703V64.7366H58.4701L57.9063 65.3384H56.4082V65.9703H55.738ZM39.4669 68.994V65.5156L40.1433 64.7128V68.994H39.4669ZM53.9641 65.5096L54.6405 64.7068V68.9821H53.9641V67.0895H52.1618V66.5409H53.9641V65.5096ZM50.9572 68.9881V65.5096L51.6336 64.7068V68.9881H50.9572ZM38.3694 64.7128L36.635 66.871L38.3694 69H37.5978L36.2606 67.3363L36.0551 67.5923L35.3849 68.4212V65.5156L36.0551 64.7128V66.6522L37.5978 64.7128H38.3694ZM60.2065 66.2835V68.9881H59.5676V64.6249L63.5167 68.9881H62.5843L60.2065 66.2835ZM62.8399 67.2809V65.4977L63.5167 64.6949V68.1514L62.8399 67.2809ZM41.2408 65.3141L41.8873 64.7128H45.8642L45.1006 65.3141H43.8809V68.9881H43.2103V65.3141H41.2408Z" fill="#C9A581"/>
</svg>
