<svg width="100" height="100" viewBox="0 0 100 100" fill="none" xmlns="http://www.w3.org/2000/svg">
<rect width="100" height="100" rx="50" fill="#121D23"/>
<g clip-path="url(#clip0_49_2)">
<path d="M50.5 91C39.6817 91 29.5115 86.7872 21.8621 79.1379C14.2128 71.4885 10 61.3183 10 50.5C10 39.6817 14.2128 29.5115 21.8621 21.8621C29.5115 14.2128 39.6824 10 50.5 10C61.3176 10 71.4885 14.2128 79.1379 21.8621C86.7872 29.5115 91 39.6817 91 50.5C91 61.3183 86.7872 71.4885 79.1379 79.1379C71.4885 86.7872 61.3183 91 50.5 91ZM50.5 10.8882C39.9191 10.8882 29.9721 15.0087 22.4904 22.4904C15.0087 29.9721 10.8882 39.9198 10.8882 50.5C10.8882 61.0802 15.0087 71.0279 22.4904 78.5096C29.9721 85.9913 39.9198 90.1118 50.5 90.1118C61.0802 90.1118 71.0279 85.9913 78.5096 78.5096C85.9913 71.0279 90.1118 61.0802 90.1118 50.5C90.1118 39.9198 85.9913 29.9721 78.5096 22.4904C71.0279 15.0087 61.0809 10.8882 50.5 10.8882Z" fill="#DABEA2"/>
<path d="M17.7367 40.7706L18.5326 40.4804L18.5587 40.5579C18.5164 40.5945 18.489 40.6262 18.4812 40.6523C18.4721 40.6833 18.4812 40.7685 18.5136 40.9031C18.5784 41.1996 18.6087 41.4567 18.6059 41.6701C18.6031 41.8835 18.5615 42.1195 18.4854 42.3766C18.3319 42.8929 18.0903 43.2803 17.7621 43.5388C17.5747 43.6839 17.3634 43.7832 17.1317 43.836C16.8816 43.8902 16.6273 43.8825 16.3745 43.81C16.0258 43.7106 15.7497 43.5155 15.5447 43.2246C15.2271 42.7703 15.17 42.1941 15.3771 41.4968C15.4532 41.2404 15.5476 41.0193 15.6638 40.8347C15.7793 40.6502 15.9455 40.4502 16.1625 40.2332C16.2632 40.1367 16.3181 40.0691 16.3273 40.0381C16.335 40.0127 16.3294 39.9719 16.3139 39.9184L16.3815 39.8669L16.8915 40.529L16.8302 40.5791C16.8098 40.5699 16.7964 40.5664 16.7922 40.5621C16.7774 40.5551 16.7668 40.5516 16.7584 40.5495C16.6703 40.5248 16.5344 40.6234 16.3498 40.846C16.1744 41.0559 16.0498 41.2834 15.9765 41.5292C15.8751 41.8708 15.8765 42.1772 15.98 42.4484C16.0963 42.7569 16.3026 42.9534 16.6034 43.0394C16.9042 43.1246 17.1887 43.0683 17.4557 42.8689C17.6895 42.6942 17.8586 42.4357 17.96 42.0948C18.0396 41.8272 18.0544 41.5433 18.0086 41.2426C17.9713 41.0087 17.9142 40.8791 17.8403 40.858C17.8374 40.8573 17.81 40.8523 17.7635 40.8453L17.7367 40.7706ZM18.8764 43.0021L18.6573 42.7774C18.5932 42.7104 18.5946 42.7076 18.6122 42.6485C18.7538 42.1716 18.9862 41.9441 19.2518 42.0195C19.3793 42.0561 19.4666 42.142 19.5159 42.2752C19.5688 42.4188 19.5596 42.6027 19.4927 42.8281C19.4265 43.0507 19.3462 43.2331 19.249 43.3768L19.1433 43.276C19.2039 43.1803 19.2455 43.088 19.2715 43.0006C19.3448 42.7555 19.3046 42.5787 19.1666 42.5393C19.063 42.5097 18.9538 42.5766 18.92 42.6893C18.8947 42.7738 18.9059 42.8541 18.9496 42.9302L18.8764 43.0013V43.0021Z" fill="#DABEA2"/>
<path d="M18.4248 38.4252L19.1165 38.7266L19.9596 36.8086C20.0082 36.6981 19.9913 36.6262 19.8829 36.5375L19.916 36.4621L20.757 36.8284L20.7239 36.9037C20.5908 36.884 20.5224 36.9221 20.4738 37.0326L19.2377 39.8459L19.1665 39.8149C19.1919 39.6747 19.1588 39.6057 19.0552 39.5606L16.7351 38.5491C16.6308 38.504 16.5667 38.5273 16.4717 38.64L16.4005 38.609L17.6 35.8789C17.6515 35.7627 17.6331 35.6936 17.5268 35.6056L17.5585 35.5323L18.3995 35.8993L18.3678 35.9719C18.2283 35.9529 18.1656 35.9867 18.1142 36.1022L17.3084 37.9363L17.9318 38.2082L18.4319 37.07C18.4805 36.9594 18.4629 36.8904 18.3586 36.7974L18.391 36.7248L19.2116 37.0826L19.1799 37.1552C19.0426 37.1376 18.9771 37.17 18.9263 37.2855L18.4263 38.4237L18.4248 38.4252Z" fill="#DABEA2"/>
<path d="M20.5006 34.049L20.5689 34.6371L21.2296 35.0351C21.3268 35.0935 21.3959 35.0801 21.5036 34.9801L21.5677 35.0189L20.9718 36.0212L20.9056 35.981C20.9479 35.8451 20.9239 35.7718 20.8267 35.7134L18.6587 34.4068C18.5615 34.3483 18.4946 34.3631 18.3868 34.4631L18.3206 34.423L18.9165 33.4207L18.9827 33.4608C18.9412 33.601 18.9644 33.6693 19.0616 33.7285L19.9301 34.2518L19.7688 32.7072C19.7561 32.5931 19.7307 32.5226 19.6857 32.4958C19.6385 32.467 19.5793 32.4966 19.5039 32.5853L19.4377 32.5452L20.1963 31.2703L20.2604 31.309C20.2323 31.378 20.2182 31.4449 20.2182 31.5041C20.2182 31.5626 20.2386 31.7189 20.2773 31.9725L20.4203 33.358L22.1784 32.9875C22.4052 32.9417 22.5566 32.9023 22.6362 32.8713C22.7158 32.8403 22.7849 32.7889 22.8468 32.7227L22.9109 32.7614L22.1735 34.0011L22.1094 33.9623C22.1439 33.856 22.1404 33.7919 22.0974 33.7658C22.0805 33.756 22.0636 33.7524 22.0418 33.7567C22.0192 33.7567 21.9537 33.7686 21.8396 33.7933L20.5013 34.049H20.5006Z" fill="#DABEA2"/>
<path d="M20.2963 29.2002C20.3639 29.1072 20.4478 29.053 20.5541 29.0332C20.6605 29.0135 20.7542 29.0354 20.8408 29.1002C20.9225 29.1614 20.9697 29.2474 20.9824 29.3565C20.995 29.4657 20.969 29.5629 20.9035 29.6531C20.838 29.7432 20.752 29.8003 20.645 29.82C20.5386 29.8397 20.4428 29.8158 20.3583 29.7531C20.2766 29.6918 20.228 29.608 20.2167 29.5009C20.2033 29.3918 20.2301 29.2939 20.2956 29.2002M21.6663 29.7425L23.6963 31.2583C23.7871 31.3259 23.8569 31.3196 23.9731 31.2301L24.033 31.2745L23.3476 32.217L23.2856 32.1705C23.3406 32.0388 23.3237 31.9634 23.2321 31.8958L21.2028 30.38C21.112 30.3124 21.0444 30.3201 20.9281 30.4096L20.8662 30.3631L21.5515 29.4206L21.6135 29.4671C21.5592 29.6031 21.5761 29.6742 21.667 29.7418" fill="#DABEA2"/>
<path d="M24.2809 28.9156L25.0134 29.584C25.0973 29.6608 25.167 29.6608 25.291 29.5826L25.3459 29.6333L24.5774 30.5067L24.5204 30.4546C24.5873 30.3285 24.5767 30.2518 24.4929 30.1757L22.6193 28.4648C22.5355 28.388 22.4679 28.3894 22.3439 28.4676L22.2869 28.4148L23.7118 26.7955C23.8963 26.5863 24.0485 26.4341 24.1661 26.3426C24.2816 26.2489 24.4056 26.1834 24.5324 26.1439C24.7979 26.0643 25.0515 26.1369 25.2952 26.3595C25.6657 26.6976 25.6812 27.0857 25.3445 27.6576L26.3616 27.7428C26.5497 27.7597 26.6835 27.7626 26.7694 27.7492C26.8525 27.7337 26.9321 27.6985 26.9983 27.6442L27.0533 27.6942L26.1411 28.7311L26.0862 28.6803C26.1355 28.5867 26.1383 28.5205 26.0953 28.4817C26.0643 28.4535 25.9981 28.4373 25.896 28.4275L24.805 28.3218L24.2823 28.9156H24.2809ZM23.866 28.5359L24.65 27.6449C24.7683 27.5104 24.8437 27.3956 24.8733 27.3075C24.9162 27.1836 24.8831 27.0702 24.7747 26.9709C24.6782 26.8828 24.5824 26.8546 24.4866 26.8828C24.3915 26.9117 24.2739 27.0068 24.1302 27.1702L23.3455 28.0612L23.8653 28.5359H23.866Z" fill="#DABEA2"/>
<path d="M27.5294 26.849L25.8953 24.8993C25.822 24.812 25.7551 24.8049 25.6227 24.8655L25.5727 24.8063L27.018 23.5336C27.3195 23.268 27.585 23.0968 27.8196 23.0166C28.1492 22.9039 28.4641 22.9186 28.7698 23.0602C28.9818 23.1581 29.1818 23.3187 29.3657 23.5385C29.7066 23.9449 29.8397 24.364 29.765 24.7958C29.6953 25.1825 29.4734 25.5149 29.0156 25.9178L27.5703 27.1906L27.5202 27.1307C27.602 27.0138 27.602 26.9363 27.5287 26.849M27.9386 26.115L28.5676 25.5614C28.8557 25.3071 29.0135 25.0578 29.036 24.8155C29.06 24.5612 28.9698 24.3119 28.7641 24.0668C28.5592 23.8216 28.3324 23.6927 28.083 23.6786C27.8365 23.6624 27.5991 23.7716 27.2934 24.0414L26.6645 24.595L27.9379 26.115H27.9386Z" fill="#DABEA2"/>
<path d="M31.116 22.5707L31.5259 23.2123L33.241 22.0431C33.3397 21.9755 33.3643 21.9051 33.322 21.7684L33.3897 21.7219L33.8884 22.5016L33.8207 22.5481C33.7214 22.4573 33.6454 22.4523 33.546 22.5193L31.0308 24.2344L30.9885 24.1689C31.0836 24.0632 31.0935 23.9864 31.0315 23.8899L29.6566 21.7381C29.5953 21.6416 29.5298 21.6261 29.391 21.6698L29.3488 21.6043L31.7894 19.9406C31.8929 19.8702 31.9147 19.8011 31.8746 19.6673L31.9394 19.6229L32.4381 20.4027L32.3733 20.447C32.2683 20.3533 32.1986 20.347 32.0951 20.4174L30.4553 21.536L30.8251 22.1135L31.8429 21.4197C31.9415 21.3521 31.9633 21.2838 31.9281 21.1465L31.9929 21.1021L32.4796 21.8635L32.4141 21.9079C32.3106 21.8163 32.2394 21.8079 32.1359 21.8783L31.1181 22.5721L31.116 22.5707Z" fill="#DABEA2"/>
<path d="M35.1513 19.9815L34.897 20.5224L35.2323 21.2275C35.2816 21.331 35.3457 21.3578 35.488 21.3317L35.5204 21.4001L34.4969 21.9283L34.4631 21.8572C34.5702 21.7642 34.5892 21.6889 34.5399 21.5846L33.4397 19.2687C33.3904 19.1651 33.3277 19.1405 33.1854 19.1665L33.1516 19.0954L34.175 18.5671L34.2089 18.6383C34.1004 18.7355 34.0835 18.8066 34.1328 18.9109L34.5737 19.8385L35.2576 18.427C35.3077 18.3227 35.3239 18.2481 35.3013 18.2002C35.2774 18.1494 35.2126 18.1417 35.1034 18.1762L35.0696 18.1058L36.3719 17.4331L36.4043 17.5014C36.3445 17.5451 36.2973 17.5944 36.2663 17.6451C36.236 17.6958 36.1691 17.8402 36.067 18.079L35.4521 19.3447L37.101 19.9984C37.3123 20.0843 37.4588 20.135 37.5412 20.1519C37.6236 20.1695 37.7074 20.1639 37.7933 20.1414L37.8257 20.2097L36.56 20.8633L36.5276 20.795C36.6121 20.7225 36.6431 20.6661 36.622 20.6203C36.6135 20.602 36.6009 20.59 36.5811 20.5816C36.5628 20.5689 36.5023 20.5436 36.3952 20.5013L35.1534 19.9808L35.1513 19.9815Z" fill="#DABEA2"/>
<path d="M39.2887 16.895L40.0332 19.0609C40.0705 19.1701 40.1311 19.2039 40.2748 19.1941L40.2994 19.2659L39.2267 19.6751L39.2013 19.6012C39.3176 19.5209 39.3443 19.4476 39.307 19.3384L38.5632 17.1732L37.6694 17.5142C37.5531 17.5585 37.5172 17.6233 37.5257 17.7642L37.4524 17.7917L37.1495 16.9098L37.2256 16.8809C37.301 16.9936 37.3679 17.019 37.4841 16.9746L39.9973 16.0153C40.1135 15.9709 40.1508 15.9089 40.1417 15.768L40.2149 15.7399L40.5178 16.6224L40.4445 16.6499C40.3656 16.5358 40.2987 16.5104 40.1818 16.5548L39.288 16.8957L39.2887 16.895Z" fill="#DABEA2"/>
<path d="M42.6098 17.1296L42.7746 17.8811L44.7644 17.374C44.8792 17.3444 44.925 17.2867 44.932 17.1423L45.0102 17.1218L45.211 18.0368L45.1328 18.0565C45.0708 17.9354 45.0018 17.9037 44.887 17.9333L41.9688 18.6771L41.9519 18.6003C42.0759 18.5341 42.1111 18.4637 42.0864 18.351L41.5321 15.8279C41.5074 15.7152 41.4518 15.6765 41.3081 15.6695L41.2912 15.592L44.1227 14.8707C44.2432 14.8404 44.2868 14.782 44.2939 14.6411L44.3693 14.6221L44.57 15.537L44.4946 15.5568C44.4284 15.4307 44.3657 15.4004 44.2453 15.4307L42.3421 15.9153L42.4907 16.5929L43.6719 16.2921C43.7867 16.2625 43.8304 16.2055 43.8431 16.0625L43.9185 16.0428L44.1143 16.9352L44.0389 16.9542C43.9734 16.8316 43.91 16.7978 43.7896 16.8288L42.6091 17.1296H42.6098Z" fill="#DABEA2"/>
<path d="M46.6577 15.5095L46.819 17.3035C46.8296 17.419 46.8831 17.4725 47.0205 17.4929L47.0275 17.569L45.966 17.6972L45.959 17.6183C46.09 17.5683 46.1337 17.5035 46.1231 17.3873L45.8907 14.8037C45.8801 14.6882 45.8301 14.6431 45.6892 14.617L45.6822 14.5381L46.9092 14.3902L46.9162 14.4691C46.8352 14.4987 46.7958 14.5403 46.8 14.5945C46.8042 14.6396 46.8402 14.6896 46.9057 14.7417L48.7694 16.2159L48.613 14.4762C48.6025 14.3606 48.5518 14.3092 48.4116 14.2895L48.4045 14.2106L49.466 14.0831L49.4731 14.162C49.3392 14.2155 49.2984 14.2768 49.3089 14.393L49.5414 16.9766C49.5519 17.0922 49.602 17.1401 49.7428 17.1661L49.7492 17.2422L48.6046 17.3802L48.5975 17.3042C48.6792 17.2774 48.7187 17.238 48.7138 17.1844C48.7116 17.1591 48.6976 17.1323 48.6722 17.1069C48.6468 17.0816 48.5905 17.0316 48.5003 16.9597L46.6563 15.5116L46.6577 15.5095Z" fill="#DABEA2"/>
<path d="M55.4862 16.1709L54.7593 16.1167C54.6367 16.1075 54.5783 16.1491 54.5275 16.2822L54.4508 16.2766L54.5318 15.4384L54.6085 15.444C54.6325 15.58 54.6825 15.6293 54.8051 15.6384L56.3251 15.7511L56.3173 15.8335C56.18 15.8603 56.125 15.9223 56.1123 16.0547L56.0475 16.7231C56.0363 16.8394 56.0792 16.902 56.2095 16.9485L56.2032 17.014C55.5545 17.3056 54.9248 17.4296 54.3113 17.3845C53.7837 17.3458 53.3682 17.1887 53.0639 16.9182C52.9005 16.7689 52.7737 16.5914 52.6849 16.3822C52.5793 16.135 52.5412 15.8751 52.5673 15.606C52.6032 15.232 52.7526 14.9094 53.0118 14.6347C53.4175 14.2114 53.9725 14.0276 54.6804 14.0797C54.991 14.1022 55.3383 14.1966 55.7221 14.3621C55.8736 14.4276 55.9651 14.46 55.9912 14.4621C56.0229 14.4643 56.0637 14.453 56.1095 14.4255L56.1743 14.4671L55.7172 15.2376L55.6524 15.1982L55.6538 15.1813C55.6609 15.1109 55.5961 15.0348 55.4636 14.9503C55.2178 14.7925 54.9445 14.7037 54.6452 14.6812C54.3 14.6558 54.0084 14.7284 53.7711 14.8988C53.521 15.077 53.378 15.3348 53.3463 15.6659C53.316 15.9772 53.3977 16.2343 53.5907 16.4372C53.7894 16.6428 54.0852 16.7619 54.4761 16.7908C54.8494 16.8182 55.1699 16.7739 55.4404 16.6541L55.4876 16.1695L55.4862 16.1709Z" fill="#DABEA2"/>
<path d="M58.1578 16.4434L57.9888 17.2035L59.9751 17.6141C60.0899 17.638 60.1554 17.6049 60.2223 17.4753L60.3005 17.4915L60.0948 18.4157L60.0166 18.3995C60.0124 18.2614 59.9638 18.2022 59.8497 18.1783L56.9365 17.5768L56.9541 17.4986C57.0928 17.4922 57.1534 17.4436 57.1788 17.3295L57.7465 14.7783C57.7718 14.6642 57.7387 14.6051 57.6134 14.5353L57.631 14.4572L60.4576 15.0411C60.578 15.0657 60.6407 15.0319 60.7069 14.9058L60.7823 14.9213L60.5766 15.8462L60.5012 15.8307C60.4956 15.687 60.4519 15.6313 60.3322 15.6067L58.4325 15.2143L58.2797 15.8997L59.4588 16.1427C59.5736 16.1666 59.6363 16.1328 59.7081 16.0075L59.7835 16.0229L59.5827 16.9252L59.5074 16.9097C59.501 16.7682 59.4581 16.7104 59.3383 16.685L58.1599 16.442L58.1578 16.4434Z" fill="#DABEA2"/>
<path d="M61.9966 18.2171L63.6898 18.7848C63.8061 18.8236 63.8666 18.7961 63.9526 18.6771L64.0258 18.7017L63.7173 19.5984L63.644 19.5737C63.6539 19.4321 63.6173 19.3716 63.5011 19.3328L60.9111 18.4643L60.9372 18.3883C61.0752 18.3981 61.1408 18.3573 61.1788 18.2467L62.0304 15.773C62.0684 15.6624 62.0423 15.599 61.9261 15.5152L61.9522 15.4398L63.0214 15.7983L62.9953 15.8744C62.8538 15.866 62.7918 15.9054 62.7537 16.016L61.9958 18.2171H61.9966Z" fill="#DABEA2"/>
<path d="M65.8233 18.8503L65.4874 19.5546L67.3138 20.4245C67.4187 20.4745 67.4906 20.4576 67.5835 20.3478L67.6554 20.3823L67.2469 21.2388L67.175 21.205C67.2018 21.069 67.1694 20.9993 67.0637 20.9493L64.3843 19.6737L64.4189 19.6011C64.5541 19.6279 64.6238 19.5941 64.6745 19.4884L65.8022 17.1253C65.8522 17.0197 65.8339 16.9534 65.729 16.8562L65.7635 16.7837L68.3633 18.0213C68.4739 18.0741 68.5422 18.0558 68.6352 17.948L68.7042 17.9811L68.2957 18.8376L68.2266 18.8045C68.2534 18.6622 68.2245 18.5974 68.1139 18.5453L66.3671 17.7134L66.0642 18.3481L67.1482 18.8644C67.2532 18.9144 67.3222 18.8968 67.4194 18.7911L67.4885 18.8242L67.0898 19.6596L67.0208 19.6265C67.0461 19.487 67.0186 19.4194 66.9081 19.3673L65.8241 18.851L65.8233 18.8503Z" fill="#DABEA2"/>
<path d="M69.9051 20.1604L68.919 21.6867C68.8556 21.7853 68.8634 21.8621 68.955 21.967L68.9134 22.0318L68.028 21.4493L68.0717 21.3824C68.202 21.4275 68.2752 21.4036 68.3386 21.3049L69.7586 19.1066C69.822 19.008 69.8122 18.9404 69.7213 18.8291L69.765 18.7622L70.7884 19.4356L70.7447 19.5025C70.6651 19.4736 70.6088 19.4814 70.5792 19.5271C70.5546 19.5652 70.551 19.6286 70.5686 19.7117L71.0723 22.0819L72.0288 20.6006C72.0922 20.502 72.0851 20.4294 71.9914 20.3231L72.0344 20.2562L72.9198 20.8387L72.8761 20.9056C72.7416 20.8619 72.6726 20.8844 72.6092 20.9831L71.1892 23.1814C71.1258 23.28 71.1342 23.3504 71.2251 23.4617L71.1835 23.5265L70.2298 22.8982L70.2714 22.8334C70.3496 22.8644 70.4038 22.8595 70.4334 22.8137C70.4475 22.7919 70.4531 22.7616 70.4496 22.7249C70.4461 22.6883 70.4341 22.6122 70.4102 22.4974L69.9051 20.1604Z" fill="#DABEA2"/>
<path d="M74.3504 25.5093L75.6309 26.7609C75.7189 26.8468 75.7844 26.8475 75.9105 26.7757L75.9655 26.8299L75.3182 27.5195L75.2632 27.4653C75.3301 27.3392 75.3224 27.2688 75.235 27.1828L73.2769 25.2684L73.3312 25.2099C73.4509 25.2789 73.5263 25.2691 73.6066 25.1838L75.3928 23.2814C75.4731 23.1961 75.4752 23.1271 75.4069 22.9996L75.4618 22.9412L76.2704 23.7315L76.2162 23.7899C76.093 23.7209 76.0211 23.7307 75.9408 23.816L74.3518 25.5086L74.3504 25.5093Z" fill="#DABEA2"/>
<path d="M77.5065 27.7478L76.9114 28.2458L78.1771 29.8405C78.2496 29.932 78.3208 29.9482 78.4504 29.8877L78.5004 29.9503L77.777 30.5561L77.727 30.4934C77.808 30.3807 77.808 30.3025 77.7347 30.211L75.8781 27.8718L75.9393 27.8211C76.0492 27.9042 76.1253 27.9042 76.2147 27.8295L78.2116 26.1588C78.3011 26.0841 78.3116 26.0151 78.2588 25.8805L78.3201 25.8298L80.1218 28.0993C80.1986 28.1958 80.2669 28.2092 80.3951 28.1507L80.443 28.2113L79.7196 28.817L79.6717 28.7564C79.7556 28.6381 79.7563 28.5663 79.6802 28.4698L78.4694 26.9441L77.9334 27.3928L78.6849 28.3395C78.7582 28.4317 78.8265 28.4451 78.9582 28.3909L79.0061 28.4515L78.2996 29.0424L78.2517 28.9818C78.3335 28.8649 78.3363 28.7917 78.2595 28.6952L77.5079 27.7485L77.5065 27.7478Z" fill="#DABEA2"/>
<path d="M79.4654 31.8161L80.3078 33.2143C80.3719 33.3199 80.4374 33.3361 80.5734 33.2995L80.6135 33.3657L79.8239 33.875L79.7824 33.806C79.8761 33.7045 79.8887 33.6313 79.8246 33.5256L78.337 31.0568L78.48 30.9646L81.4876 31.2576L80.6819 29.9207C80.6185 29.815 80.5551 29.7974 80.4163 29.8362L80.3762 29.7693L81.1657 29.26L81.2059 29.3262C81.1108 29.4319 81.1009 29.503 81.165 29.6094L82.6259 32.0345L82.509 32.1099L79.4654 31.8161Z" fill="#DABEA2"/>
<path d="M81.3376 35.3288L82.0025 36.827C82.0532 36.9404 82.1159 36.9643 82.2554 36.9446L82.2871 37.0158L81.4447 37.4236L81.4116 37.3496C81.5165 37.2602 81.5377 37.189 81.4876 37.0756L80.3135 34.4293L80.4656 34.3554L83.4049 35.0252L82.7696 33.5926C82.7189 33.4792 82.659 33.4538 82.5167 33.4749L82.485 33.4038L83.3274 32.996L83.3591 33.0671C83.2528 33.1608 83.2345 33.2298 83.2845 33.3432L84.4375 35.9416L84.3128 36.0022L81.3376 35.3274V35.3288Z" fill="#DABEA2"/>
<path d="M83.4267 38.5886L82.6998 38.8344L83.2943 40.8088C83.3281 40.9229 83.388 40.9637 83.5288 40.956L83.5521 41.0334L82.6688 41.3328L82.6456 41.2553C82.7604 41.1799 82.7886 41.106 82.754 40.9926L81.8828 38.0963L81.9574 38.0709C82.0286 38.1906 82.099 38.2188 82.2075 38.1822L84.6453 37.3567C84.7544 37.3194 84.7889 37.2588 84.7889 37.1123L84.8636 37.0869L85.7088 39.8973C85.7448 40.0163 85.8032 40.0551 85.942 40.048L85.9645 40.1234L85.0812 40.4228L85.0587 40.3474C85.1785 40.2671 85.2045 40.2002 85.1686 40.0804L84.6002 38.1921L83.9451 38.4139L84.298 39.586C84.3325 39.6994 84.391 39.7381 84.5311 39.7367L84.5537 39.8114L83.6915 40.1037L83.669 40.0283C83.7859 39.9487 83.8155 39.8811 83.7796 39.7614L83.4267 38.5893V38.5886Z" fill="#DABEA2"/>
<path d="M85.8335 43.3712L83.6 43.8297C83.4873 43.853 83.4436 43.9093 83.426 44.0551L83.3521 44.0706L83.1577 42.9345L83.2344 42.919C83.2901 43.0472 83.3563 43.0838 83.4683 43.0613L85.7018 42.6027L85.5398 41.6561C85.5187 41.5328 85.463 41.4877 85.325 41.4771L85.3116 41.3997L86.2216 41.213L86.235 41.2933C86.1117 41.3539 86.0751 41.418 86.0962 41.5419L86.5513 44.2044C86.5724 44.3277 86.6259 44.3735 86.7633 44.3833L86.7767 44.4608L85.8666 44.6475L85.8532 44.57C85.9786 44.5059 86.0152 44.4418 85.9948 44.3185L85.8328 43.3719L85.8335 43.3712Z" fill="#DABEA2"/>
<path d="M40.0191 73.0741L39.8127 74.0496L39.7254 74.0975C39.6092 74.0285 39.4725 73.9729 39.3168 73.9306C39.1612 73.8883 39.009 73.8672 38.8611 73.8672C38.5759 73.8672 38.3638 73.9461 38.2265 74.1053C38.0891 74.2638 38.0201 74.523 38.0201 74.8829C38.0201 75.29 38.0955 75.5901 38.2462 75.7831C38.3969 75.9761 38.6259 76.0726 38.9323 76.0726C39.0752 76.0726 39.2274 76.0564 39.3887 76.0247C39.55 75.993 39.6916 75.9507 39.8127 75.8979L39.9163 75.9613L39.8127 76.9291C39.5112 77.0192 39.1887 77.0643 38.8449 77.0643C38.1624 77.0643 37.6454 76.8882 37.2939 76.5367C36.9417 76.1853 36.7664 75.6788 36.7664 75.0174C36.7664 74.356 36.9537 73.8186 37.3291 73.4509C37.7046 73.0833 38.2364 72.8994 38.9238 72.8994C39.3204 72.8994 39.6852 72.9572 40.0184 73.0741" fill="#DABEA2"/>
<path d="M44.6637 73.4114C44.9989 73.758 45.1673 74.2454 45.1673 74.8751C45.1673 75.5731 44.9848 76.1141 44.62 76.4972C44.2551 76.8804 43.7367 77.0727 43.0655 77.0727C42.452 77.0727 41.9772 76.8952 41.6413 76.5409C41.3053 76.1866 41.1376 75.6872 41.1376 75.042C41.1376 74.3595 41.3201 73.8312 41.6849 73.4558C42.0498 73.0804 42.5682 72.8923 43.2401 72.8923C43.8536 72.8923 44.3277 73.0656 44.6644 73.4122M42.6844 73.9348C42.5788 73.9954 42.502 74.101 42.4541 74.2517C42.4062 74.4025 42.3829 74.6124 42.3829 74.8822C42.3829 75.2259 42.4076 75.4886 42.4583 75.6717C42.5083 75.8542 42.5893 75.9824 42.7006 76.0563C42.8119 76.1303 42.9676 76.1676 43.1683 76.1676C43.369 76.1676 43.5148 76.1373 43.6205 76.0767C43.7262 76.0162 43.8029 75.9112 43.8501 75.7633C43.898 75.6154 43.922 75.4041 43.922 75.1287C43.922 74.7906 43.898 74.5286 43.8501 74.3433C43.8029 74.1581 43.7219 74.0285 43.6085 73.9545C43.4944 73.8805 43.3345 73.8432 43.1289 73.8432C42.938 73.8432 42.7901 73.8735 42.6844 73.9341" fill="#DABEA2"/>
<path d="M47.7854 73.8834L47.7692 74.6533H48.2686L49.0223 74.6293L49.0941 74.7167L49.0145 75.5971L48.182 75.5732L47.7453 75.5809V75.6922L47.7931 76.9931H46.595L46.6507 75.8112L46.595 72.9635H49.3639L49.4273 73.0508L49.3477 73.9228L48.3003 73.8834H47.7854Z" fill="#DABEA2"/>
<path d="M51.8545 73.8834L51.8383 74.6533H52.3384L53.092 74.6293L53.1632 74.7167L53.0836 75.5971L52.251 75.5732L51.815 75.5809V75.6922L51.8622 76.9931H50.6648L50.7197 75.8112L50.6648 72.9635H53.4329L53.4963 73.0508L53.4174 73.9228L52.37 73.8834H51.8545Z" fill="#DABEA2"/>
<path d="M57.6929 76.0331L57.7641 76.1127L57.6852 76.9931H54.7734L54.829 75.8112L54.7734 72.9635H57.7246L57.7958 73.0508L57.7169 73.9228L56.6695 73.8834H55.963L55.9475 74.5025H56.6301L57.3203 74.4786L57.383 74.5659L57.3119 75.4464L56.5505 75.4224L55.9236 75.4302L55.9159 75.6922L55.932 76.0733H56.5984L57.6929 76.0331Z" fill="#DABEA2"/>
<path d="M62.0099 76.0316L62.0818 76.1112L62.0022 76.9917H59.0911L59.1467 75.8098L59.0911 72.962H62.0416L62.1135 73.0494L62.0339 73.9221L60.9865 73.8819H60.2807L60.2645 74.5011H60.9471L61.6373 74.4771L61.7007 74.5645L61.6296 75.4449L60.8675 75.421L60.2413 75.4294L60.2335 75.6907L60.249 76.0718H60.9154L62.0099 76.0316Z" fill="#DABEA2"/>
<path d="M70.0974 74.7722H64.7661V75.0687H70.0974V74.7722Z" fill="#DABEA2"/>
<path d="M35.0013 74.9202H29.6707V75.2167H35.0013V74.9202Z" fill="#DABEA2"/>
<path d="M36.7678 44.4968C36.9996 44.7025 37.2623 44.8335 37.5574 44.8898C37.8518 44.9462 38.1392 44.9546 38.4181 44.9138C38.6971 44.8736 38.9429 44.7856 39.1563 44.6503C39.369 44.5151 39.4979 44.3545 39.5409 44.1707C39.3824 44.2735 39.2225 44.3404 39.0619 44.37C38.9013 44.401 38.7513 44.3939 38.6125 44.3496C38.4738 44.3059 38.3498 44.2341 38.2406 44.134C38.1315 44.0347 38.0554 43.9058 38.0124 43.7495C37.8983 43.3508 37.8723 42.8732 37.9335 42.3161C37.9941 41.7589 38.1174 41.1821 38.3012 40.5834C38.4858 39.9854 38.7168 39.3951 38.995 38.8119C39.2732 38.2287 39.5726 37.7032 39.8917 37.2341C40.2114 36.765 40.5404 36.3854 40.8792 36.0924C41.2173 35.8 41.5363 35.6423 41.8343 35.619C42.1203 35.6092 42.3154 35.7486 42.4189 36.0374C42.5225 36.3262 42.5584 36.7185 42.526 37.2137C42.4936 37.7089 42.4112 38.2815 42.2787 38.9323C42.1456 39.5839 41.9829 40.2572 41.7899 40.9524C41.5962 41.6483 41.3877 42.3421 41.163 43.0324C40.9383 43.7234 40.7214 44.3594 40.5115 44.9398C40.3016 45.5209 40.1135 46.021 39.948 46.4415C39.7825 46.8627 39.6649 47.1529 39.5958 47.3135C39.4683 47.5868 39.4895 47.8235 39.6585 48.0249C39.8276 48.2264 40.0452 48.3799 40.3108 48.4863C40.5756 48.5926 40.8362 48.6448 41.0919 48.6412C41.3469 48.6384 41.4969 48.5631 41.5413 48.4151C42.1738 46.2344 42.8211 44.3792 43.4832 42.8493C44.1453 41.3201 44.775 40.0318 45.373 38.9866C45.7357 38.34 46.0943 37.8152 46.4471 37.4116C46.8007 37.0094 47.1001 36.7664 47.3466 36.6847C47.5924 36.603 47.7587 36.7094 47.8439 37.0052C47.9291 37.301 47.8918 37.823 47.7312 38.5724C47.6044 39.2113 47.4297 39.9065 47.2071 40.658C46.9846 41.4103 46.7627 42.171 46.5408 42.9408C46.319 43.7114 46.1281 44.4707 45.9675 45.2202C45.8076 45.9696 45.7259 46.6556 45.7231 47.2776C45.7322 47.8749 45.852 48.3679 46.0837 48.7553C46.1499 48.8666 46.2218 48.9674 46.2971 49.0603C47.0367 50.362 53.2041 51.2185 56.8308 50.0063C58.3635 49.4942 59.706 48.556 61.1676 47.9545C64.0392 46.7676 67.1673 46.6578 70.2538 46.9325C69.1029 46.3612 67.8519 45.9633 66.5552 45.7576C66.67 45.6505 66.7848 45.5329 66.9004 45.4012C67.2476 45.0046 67.5836 44.563 67.909 44.0756C68.2344 43.5882 68.5408 43.093 68.8282 42.5887C69.1156 42.0843 69.3698 41.6279 69.5924 41.2173C69.6389 41.1306 69.6333 41.0482 69.5741 40.9708C69.5156 40.894 69.4382 40.8327 69.3431 40.7869C69.248 40.7418 69.1473 40.7179 69.0416 40.7158C68.936 40.7137 68.8648 40.7376 68.8296 40.7876C68.1273 42.0688 67.5336 43.0409 67.0462 43.7044C66.5587 44.3679 66.1911 44.7102 65.9424 44.7313C65.8551 44.7341 65.8051 44.6391 65.7917 44.444C65.7783 44.2495 65.8248 43.9615 65.929 43.5797C66.034 43.1979 66.2044 42.7281 66.4397 42.1717C66.675 41.6145 66.9919 40.975 67.3899 40.2537C67.4716 40.1171 67.4575 39.9741 67.3469 39.8255C67.2356 39.6768 67.0905 39.5515 66.913 39.4479C66.7348 39.3444 66.5489 39.2838 66.3552 39.2662C66.1615 39.2493 66.0227 39.2965 65.9403 39.4092C65.7966 39.5726 65.6621 39.7395 65.5374 39.9079C65.4127 40.0769 65.2838 40.2368 65.1528 40.3882C64.9373 40.2741 64.733 40.1565 64.5422 40.0347C64.3513 39.9135 64.1611 39.8226 63.9723 39.7621C63.7829 39.7022 63.5892 39.6874 63.3912 39.7191C63.1926 39.7508 62.9785 39.8614 62.7489 40.053C62.4347 40.3326 62.1206 40.6911 61.8057 41.1292C61.4909 41.5673 61.2091 42.0379 60.9591 42.5401C60.709 43.043 60.4998 43.56 60.3322 44.0897C60.1646 44.62 60.0695 45.1173 60.049 45.5815C60.0307 45.7653 60.1082 45.9358 60.2822 46.0943C60.3477 46.1541 60.4181 46.2077 60.4907 46.2584C59.4672 46.6 58.4811 47.1621 57.5528 47.6277C54.3705 49.2639 49.4153 49.6569 48.0827 48.9512C47.92 48.7356 47.8185 48.4341 47.777 48.0468C47.7305 47.6093 47.7488 47.0874 47.8333 46.481C47.9178 45.8745 48.0376 45.2209 48.1933 44.52C48.3489 43.8199 48.5321 43.0972 48.742 42.352C48.9519 41.6068 49.1568 40.8771 49.3554 40.1621C49.5872 39.3254 49.745 38.5935 49.8288 37.9688C49.9126 37.344 49.9309 36.8193 49.8851 36.3938C49.8386 35.9691 49.7393 35.631 49.5872 35.3802C49.435 35.1295 49.2456 34.9597 49.0181 34.8696C48.563 34.6907 48.1235 34.6703 47.6981 34.8069C47.2734 34.9442 46.8676 35.1873 46.4817 35.5359C46.095 35.8853 45.7336 36.3001 45.3955 36.7812C45.0574 37.263 44.7539 37.7525 44.4848 38.2498C44.2157 38.7471 43.9805 39.219 43.7783 39.6649C43.5762 40.1114 43.4177 40.4643 43.3022 40.7242C43.3585 40.5636 43.4395 40.2988 43.5452 39.929C43.6501 39.5592 43.7417 39.1479 43.8192 38.6936C43.896 38.2399 43.9481 37.768 43.9741 37.2799C44.0002 36.7918 43.9537 36.3509 43.834 35.9585C43.7135 35.5669 43.51 35.2443 43.2205 34.9928C42.931 34.7407 42.5189 34.6245 41.9843 34.6435C41.499 34.6604 41.0327 34.7844 40.5869 35.0133C40.1396 35.2429 39.7184 35.55 39.3204 35.936C38.9232 36.322 38.5527 36.7657 38.2097 37.2651C37.8659 37.7652 37.5602 38.2942 37.294 38.852C37.027 39.4106 36.8016 39.9825 36.6171 40.5686C36.4326 41.1539 36.2938 41.7174 36.2008 42.2569C36.1085 42.8211 36.1219 43.2839 36.241 43.6459C36.36 44.008 36.5347 44.2911 36.7664 44.4961M62.77 45.7188C62.9665 45.4688 63.156 45.2195 63.3363 44.9708C63.5258 44.7081 63.7011 44.4609 63.861 44.2298C64.0209 43.9981 64.1724 43.7952 64.3161 43.6191C64.2386 43.903 64.1688 44.2157 64.1062 44.5595C64.0442 44.9032 64.0287 45.1723 64.0604 45.366C64.0702 45.4456 64.0963 45.5251 64.1371 45.6047C64.0435 45.6076 63.9498 45.6097 63.8561 45.6146C63.4934 45.6329 63.1306 45.6688 62.77 45.7188ZM61.9987 44.1495C62.1001 43.8474 62.2347 43.5163 62.4023 43.1564C62.5699 42.7972 62.7686 42.4302 62.9982 42.0562C63.2278 41.6822 63.4807 41.356 63.7575 41.0778C63.8892 40.9271 63.9991 40.8623 64.0871 40.8834C64.1752 40.9045 64.2428 40.9665 64.29 41.0687C64.3372 41.1708 64.3632 41.2821 64.3675 41.4039C64.3717 41.5258 64.3562 41.6117 64.3203 41.6617C64.1787 41.8857 63.9949 42.1548 63.7702 42.4675C63.5448 42.7803 63.3123 43.0937 63.075 43.4064C62.8369 43.7199 62.6073 44.0058 62.3861 44.2636C62.1649 44.5214 61.9874 44.7074 61.855 44.8222C61.8501 44.6757 61.898 44.4517 61.9994 44.1495" fill="#DABEA2"/>
<path d="M49.3132 43.667C49.1899 44.0438 49.104 44.4277 49.0554 44.8193C49.0068 45.2117 49.0385 45.5702 49.1498 45.8949C49.2209 46.1365 49.378 46.3563 49.6217 46.5549C49.8654 46.7535 50.1415 46.9148 50.4514 47.0381C50.7614 47.1613 51.0692 47.2388 51.3756 47.2705C51.682 47.3022 51.9327 47.2593 52.1278 47.143C52.3596 47.0134 52.5688 46.838 52.754 46.6176C52.9392 46.3978 53.0991 46.1731 53.2351 45.9421C53.3696 45.7118 53.483 45.4885 53.5753 45.2715C53.6669 45.0546 53.7422 44.8841 53.8 44.7602C54.1395 44.8581 54.4339 44.9088 54.6832 44.9116C54.8206 44.9137 54.9636 44.9074 55.1122 44.8933C55.0875 45.1314 55.0706 45.3589 55.0622 45.5744C55.0495 45.916 55.0657 46.1957 55.1108 46.414C55.1552 46.6077 55.2728 46.7676 55.4644 46.8951C55.6553 47.0226 55.8736 47.1092 56.118 47.155C56.3624 47.2015 56.609 47.2106 56.8569 47.1839C57.1048 47.1571 57.3021 47.086 57.4472 46.9705C57.7141 46.7662 58.005 46.445 58.3192 46.0069C58.6333 45.5688 58.9411 45.0856 59.2398 44.5566C59.5384 44.0284 59.8089 43.4881 60.0512 42.9366C60.2935 42.3858 60.4745 41.8885 60.5964 41.4448C60.7062 41.0264 60.7048 40.627 60.5914 40.2466C60.478 39.8663 60.3111 39.5465 60.0899 39.2859C59.8687 39.026 59.6166 38.8429 59.332 38.7372C59.0482 38.6315 58.7953 38.6315 58.5755 38.7372C58.946 38.9922 59.1637 39.3444 59.2299 39.793C59.2954 40.2424 59.2658 40.7312 59.1418 41.2595C59.0172 41.7885 58.8249 42.3252 58.5636 42.8711C58.303 43.417 58.0367 43.9114 57.7655 44.3538C57.4943 44.7961 57.2457 45.1617 57.0196 45.4498C56.7935 45.7385 56.6491 45.89 56.5871 45.9041C56.5667 45.6977 56.5963 45.373 56.6738 44.9313C56.752 44.4897 56.847 44.0291 56.9611 43.5494C57.0753 43.0697 57.1929 42.6168 57.3147 42.1921C57.4366 41.7674 57.538 41.468 57.619 41.294C57.6528 41.2074 57.6127 41.1144 57.4972 41.0151C57.3817 40.9158 57.2415 40.832 57.0774 40.7651C56.9125 40.6974 56.7435 40.658 56.5681 40.646C56.3934 40.634 56.2638 40.6721 56.18 40.7601C56.1075 40.8362 56.0265 40.994 55.9349 41.2356C55.8433 41.4765 55.7518 41.7723 55.6581 42.1231C55.5644 42.4738 55.4721 42.8521 55.3806 43.2578C55.3172 43.5388 55.2658 43.8177 55.22 44.096C55.0305 44.1241 54.8389 44.1284 54.6445 44.1072C54.3881 44.0798 54.2029 44.0312 54.0881 43.9621C54.1719 43.5198 54.2402 43.0909 54.2944 42.6746C54.348 42.2583 54.336 41.8258 54.2578 41.3771C54.1782 40.8925 53.9718 40.5094 53.638 40.2283C53.3034 39.9473 52.9392 39.7592 52.5434 39.6634C52.1475 39.5676 51.7735 39.5543 51.4206 39.6212C51.0685 39.6888 50.8388 39.8219 50.7346 40.0205C50.6064 40.2692 50.5529 40.5235 50.5747 40.7848C50.5965 41.0461 50.6367 41.3039 50.6959 41.5582C50.6353 41.6216 50.5691 41.6786 50.4965 41.7293C50.4233 41.7807 50.3571 41.8378 50.2965 41.9012C50.1281 42.066 49.9528 42.3069 49.771 42.6239C49.5893 42.9415 49.4365 43.2881 49.3125 43.6642M52.4201 40.658C52.473 40.7418 52.5244 40.8763 52.5751 41.0644C52.6251 41.2518 52.6645 41.4638 52.6913 41.7004C52.7181 41.9371 52.7237 42.1752 52.7075 42.4133C52.6913 42.6513 52.6484 42.8577 52.58 43.0303C52.3511 42.5506 52.2201 42.0977 52.1863 41.6723C52.1525 41.2468 52.2307 40.9087 52.4208 40.658M50.6487 45.485C50.6733 45.1363 50.7261 44.7869 50.8079 44.4369C50.8896 44.0868 50.9741 43.7755 51.0642 43.5043C51.1544 43.2331 51.2291 43.0655 51.2896 43.0028C51.5418 43.4451 51.8905 43.8044 52.337 44.0812C52.1778 44.5144 51.9898 44.9229 51.7735 45.3089C51.5566 45.6949 51.2108 46.0365 50.7353 46.3337C50.6529 46.1175 50.6247 45.835 50.6494 45.4864" fill="#DABEA2"/>
<path d="M75.7132 52.6969C75.3787 52.5624 75.0864 52.5229 74.837 52.5757C74.4996 52.6532 74.1108 52.8237 73.6692 53.0857C73.2283 53.3484 72.7852 53.6506 72.3408 53.9922C71.8956 54.3352 71.4568 54.6804 71.0215 55.0311C70.5869 55.3812 70.2059 55.6742 69.8811 55.9102C69.5114 55.5489 69.2874 55.084 69.2092 54.5149C69.131 53.9457 69.1444 53.3921 69.2493 52.854C69.3543 52.3158 69.5409 51.8467 69.8093 51.4474C70.0784 51.0473 70.3834 50.8437 70.7264 50.836C70.6961 50.9275 70.6517 51.0536 70.5918 51.2177C70.5313 51.3812 70.4806 51.553 70.4397 51.7333C70.3989 51.9129 70.3672 52.0968 70.3446 52.2834C70.3221 52.4708 70.334 52.6335 70.3805 52.7716C70.4489 52.961 70.5517 53.135 70.6905 53.2928C70.8278 53.4506 70.9771 53.5759 71.1377 53.6703C71.2983 53.7647 71.4568 53.8323 71.6139 53.8739C71.7695 53.9154 71.8921 53.9154 71.9794 53.8739C71.8329 53.602 71.8379 53.235 71.9935 52.7723C72.1485 52.3102 72.3795 51.8291 72.6859 51.329C72.9923 50.8296 73.3276 50.3535 73.6917 49.902C74.0559 49.4512 74.3743 49.1187 74.6476 48.9039C74.7666 48.8067 74.768 48.6475 74.6532 48.4257C74.5377 48.2045 74.3771 47.9911 74.1721 47.7847C73.9671 47.579 73.7523 47.4177 73.5269 47.3015C73.3015 47.1853 73.129 47.1761 73.0106 47.2733C72.8092 47.4825 72.5472 47.7812 72.2231 48.1665C71.8998 48.5531 71.5308 49.1328 71.1187 49.9055C70.9856 49.8266 70.8032 49.7344 70.5693 49.628C70.3355 49.5216 70.0812 49.4343 69.8051 49.3653C69.5297 49.2977 69.2557 49.2695 68.9859 49.28C68.7161 49.2913 68.4865 49.3653 68.2977 49.5033C67.9223 49.7956 67.5899 50.1344 67.3025 50.5176C67.0144 50.9008 66.7876 51.3114 66.6214 51.7481C66.4544 52.1848 66.3572 52.6384 66.3284 53.109C66.3051 53.4971 66.3424 53.8774 66.4347 54.2514C66.2565 54.6106 66.0642 54.9706 65.8557 55.3319C65.5345 55.8862 65.1986 56.4054 64.8464 56.8914C64.4935 57.3774 64.1322 57.8106 63.7638 58.1909C63.394 58.572 63.046 58.8713 62.7192 59.0897C62.6917 58.7206 62.7396 58.267 62.8629 57.7267C62.9855 57.1872 63.1334 56.6237 63.3074 56.0363C63.4806 55.4495 63.6652 54.8875 63.8603 54.3514C64.0554 53.8161 64.2118 53.3667 64.3301 53.004C64.404 52.7864 64.3569 52.5736 64.1878 52.3644C64.0188 52.1567 63.7941 51.9827 63.5137 51.8439C63.232 51.7059 62.9326 51.6213 62.615 51.5918C62.2966 51.5622 62.0339 51.6164 61.8275 51.7552C61.5183 51.9728 61.2034 52.2348 60.8829 52.5405C60.5625 52.8469 60.249 53.1892 59.9426 53.5647C59.6355 53.9415 59.3312 54.3437 59.0291 54.7719C58.7269 55.2016 58.4459 55.6284 58.1888 56.0539C58.2 55.9651 58.2648 55.7919 58.3811 55.5362C58.498 55.2798 58.6389 54.9825 58.803 54.643C58.9678 54.3035 59.1397 53.938 59.3186 53.5442C59.4975 53.1512 59.663 52.7631 59.8158 52.3806C59.8595 52.2362 59.7884 52.0735 59.6038 51.8925C59.4186 51.7122 59.1868 51.5692 58.9086 51.4664C58.6304 51.3635 58.3515 51.3213 58.0733 51.3417C57.795 51.3621 57.602 51.5002 57.4943 51.7559C57.2344 52.287 56.9949 52.849 56.7737 53.4372C56.7315 53.4562 56.6976 53.4809 56.6765 53.5133C55.732 55.4038 54.9262 56.8421 54.2584 57.8282C53.59 58.8143 53.0772 59.3299 52.7194 59.3735C52.5933 59.3827 52.5159 59.2474 52.4863 58.9664C52.4567 58.6861 52.5074 58.267 52.6377 57.7091C52.7687 57.152 52.9885 56.4631 53.2984 55.6453C53.6083 54.8269 54.0309 53.8852 54.567 52.8202C54.6782 52.618 54.6494 52.4116 54.481 52.2031C54.3113 51.9946 54.0957 51.8207 53.833 51.6812C53.5696 51.541 53.2977 51.4643 53.0167 51.4488C52.7356 51.4347 52.5384 51.5108 52.4243 51.6784C52.2257 51.9228 52.0404 52.1707 51.8693 52.4215C51.6981 52.673 51.5206 52.9117 51.3396 53.1371C51.0212 52.9836 50.7204 52.8251 50.4373 52.6596C50.1541 52.4947 49.8745 52.3743 49.5984 52.2968C49.3216 52.22 49.0405 52.2102 48.756 52.2658C48.4707 52.3222 48.1671 52.4947 47.8459 52.7835C47.4064 53.2054 46.9718 53.7415 46.5415 54.3909C46.4682 54.5008 46.3992 54.6142 46.3288 54.7269C46.2703 54.7417 46.2203 54.7698 46.1801 54.8156C45.8892 55.5263 45.4913 56.2631 44.9884 57.0245C44.4847 57.7866 43.9663 58.4748 43.4331 59.0883C42.9006 59.7025 42.3822 60.2047 41.8779 60.5949C41.3736 60.9865 40.9756 61.1654 40.6847 61.1337C40.484 61.1126 40.3656 60.9668 40.3276 60.6956C40.2889 60.4244 40.2846 60.111 40.3121 59.7546C40.3403 59.3996 40.3959 59.046 40.4776 58.6952C40.5608 58.3445 40.6396 58.0775 40.7171 57.8951C41.0503 58.0127 41.3532 58.0782 41.6257 58.0937C41.8976 58.1092 42.2097 58.0599 42.5625 57.9458C43.0535 57.75 43.4846 57.4048 43.8543 56.909C44.2241 56.4138 44.5284 55.8869 44.7679 55.3298C45.006 54.7734 45.1842 54.243 45.3011 53.7393C45.4166 53.2357 45.4687 52.8878 45.4546 52.6934C45.4603 52.2863 45.2384 51.9672 44.7876 51.7347C44.4685 51.5819 44.1833 51.4389 43.9297 51.3072C43.6761 51.1762 43.4296 51.079 43.1908 51.017C42.9513 50.955 42.7245 50.9367 42.5097 50.9607C42.2949 50.9853 42.066 51.0691 41.8237 51.21C41.4271 51.4685 41.013 51.8622 40.5826 52.3891C40.2727 52.768 39.9775 53.1885 39.6965 53.6485C39.6888 53.6492 39.6817 53.6471 39.6733 53.6492C39.0478 53.7485 38.4688 53.9147 37.9356 54.1486C37.4017 54.3824 36.8107 54.6381 36.1627 54.9149C35.8401 54.4613 35.4098 54.0732 34.8716 53.7506C34.3335 53.428 33.8017 53.259 33.2763 53.2449C33.4791 53.0533 33.7313 52.8047 34.0342 52.4997C34.3363 52.1947 34.6406 51.8538 34.9477 51.4777C35.2541 51.1015 35.5443 50.6958 35.8197 50.2598C36.0944 49.8245 36.305 49.3709 36.4515 48.9004C36.5966 48.4306 36.5748 47.946 36.3853 47.4473C36.1951 46.9486 35.9 46.4978 35.4999 46.0935C35.0998 45.6899 34.6286 45.3617 34.0863 45.1102C33.5439 44.8588 32.9931 44.7355 32.4338 44.7412C31.7309 44.7581 30.9751 44.9285 30.1693 45.2532C29.3621 45.5779 28.5634 46.0125 27.7724 46.5563C26.9821 47.1015 26.2186 47.7143 25.4832 48.3954C24.7479 49.0779 24.0992 49.7752 23.5378 50.488C22.9764 51.2015 22.5256 51.8974 22.1875 52.5765C21.8487 53.2562 21.6818 53.8598 21.6846 54.3902C21.6938 55.0086 21.8839 55.5031 22.2544 55.8729C22.6249 56.2434 23.0363 56.492 23.4885 56.6174C23.94 56.7434 24.3605 56.7477 24.7486 56.6308C25.1374 56.5138 25.3543 56.2673 25.3994 55.8933C24.7591 56.0285 24.371 55.9158 24.2358 55.5545C24.1013 55.1932 24.1717 54.6839 24.4485 54.0274C24.7246 53.3703 25.1846 52.6208 25.8269 51.7777C26.4693 50.9353 27.2392 50.1091 28.1365 49.3012C27.909 49.8837 27.6294 50.6374 27.3012 51.5636C26.9715 52.4891 26.6447 53.4463 26.32 54.4331C25.9953 55.4214 25.6924 56.3892 25.41 57.3379C25.1282 58.2867 24.9106 59.0763 24.7577 59.706C24.6725 60.0131 24.7091 60.2709 24.869 60.4801C25.0289 60.6893 25.2388 60.8463 25.4994 60.9506C25.7037 61.0245 25.9178 61.0527 26.1425 61.0358C26.3672 61.0189 26.5855 60.8534 26.7969 60.5371C26.9095 60.3519 27.1061 60.0723 27.385 59.6982C27.6646 59.3249 27.9914 58.9206 28.3662 58.486C28.7409 58.0521 29.1417 57.607 29.5685 57.1513C29.9954 56.6955 30.4264 56.2927 30.861 55.9426C31.2956 55.5925 31.714 55.3228 32.1155 55.134C32.517 54.9452 32.8656 54.8931 33.1607 54.9776C33.308 55.0199 33.4228 55.1086 33.5052 55.2439C33.5869 55.3798 33.6475 55.5165 33.6848 55.6552C33.7221 55.794 33.7411 55.9257 33.7411 56.0489C33.7411 56.1729 33.7327 56.2441 33.7165 56.2631C33.0431 56.6836 32.3007 57.2161 31.49 57.8585C30.6793 58.5015 29.8777 59.2017 29.0846 59.9581C28.2908 60.7153 27.5456 61.5084 26.8483 62.3375C26.151 63.1665 25.5776 63.9688 25.1289 64.7443C24.6345 65.6289 24.4133 66.3791 24.4689 66.994C24.5232 67.6089 24.7718 68.0456 25.2156 68.3048C25.6586 68.564 26.2538 68.6168 27.0018 68.4647C27.7491 68.3126 28.5592 67.9132 29.4326 67.2652C30.3581 66.5953 31.24 65.8191 32.0788 64.9352C32.9163 64.0512 33.6566 63.1264 34.299 62.16C34.9407 61.1936 35.4661 60.2265 35.8732 59.2594C36.2804 58.2923 36.5072 57.3823 36.5529 56.53C36.8805 56.33 37.3165 56.1116 37.8595 55.8771C38.1441 55.7545 38.4315 55.6418 38.7224 55.5376C38.604 55.8095 38.4892 56.0856 38.3829 56.3687C38.0955 57.1323 37.8926 57.8641 37.7715 58.5614C37.6517 59.2594 37.6313 59.9025 37.7102 60.4892C37.7898 61.076 38.0131 61.5324 38.3801 61.8592C38.5526 62.0057 38.7724 62.1579 39.0365 62.3142C39.3014 62.4713 39.5908 62.6051 39.9057 62.7143C40.2205 62.8235 40.5326 62.8848 40.8404 62.8974C41.1482 62.9101 41.432 62.8369 41.6912 62.6756C42.2428 62.317 42.7971 61.8698 43.3535 61.3331C43.6698 61.0288 43.9748 60.7062 44.2713 60.3688C44.2551 60.5569 44.2453 60.7421 44.2446 60.9224C44.2276 61.1887 44.3495 61.4317 44.6094 61.6514C44.8693 61.8712 45.1666 62.0438 45.5011 62.1691C45.835 62.2952 46.1696 62.3628 46.5048 62.3741C46.8394 62.3847 47.0824 62.3044 47.2324 62.1346C47.5501 61.793 47.8523 61.426 48.1404 61.0337C48.427 60.6414 48.701 60.2498 48.9617 59.8595C49.2216 59.4686 49.4617 59.1023 49.6801 58.7593C49.8985 58.4163 50.1069 58.1141 50.3042 57.8514C50.2084 58.2656 50.1246 58.7227 50.0527 59.2228C49.9816 59.7229 49.9738 60.1131 50.0309 60.3913C50.064 60.6012 50.1739 60.8097 50.3612 61.0168C50.5479 61.2246 50.7683 61.3936 51.0219 61.5253C51.2755 61.6571 51.5516 61.7345 51.8516 61.7557C52.151 61.7782 52.4306 61.7176 52.6912 61.5747C53.178 61.3091 53.6604 60.8802 54.1408 60.2878C54.4993 59.8454 54.8473 59.3672 55.1854 58.853C55.1614 58.9537 55.1368 59.0566 55.1135 59.1552C54.9494 59.8659 54.829 60.4357 54.7522 60.8661C54.7099 61.0281 54.798 61.1809 55.0163 61.3239C55.2347 61.4676 55.4819 61.5725 55.7573 61.6409C56.0341 61.7099 56.306 61.7289 56.5744 61.7C56.8427 61.6719 57.0167 61.5747 57.0949 61.4098C57.2632 60.9907 57.5084 60.4604 57.831 59.8173C58.1536 59.1749 58.5121 58.5205 58.9058 57.8556C59.2988 57.19 59.6996 56.5596 60.1074 55.9637C60.5146 55.3678 60.8872 54.9072 61.2246 54.5818C61.1802 54.7093 61.1055 54.984 61.0013 55.4073C60.897 55.8299 60.7963 56.3018 60.6991 56.8216C60.6026 57.3422 60.5357 57.8592 60.5019 58.374C60.4674 58.8896 60.497 59.2939 60.5913 59.5877C60.6399 59.7609 60.7879 59.9272 61.0344 60.0856C61.2809 60.2441 61.5605 60.3653 61.8733 60.4484C62.1867 60.5315 62.5058 60.5745 62.8312 60.5766C63.1559 60.5787 63.4398 60.5097 63.6821 60.3674C64.0455 60.1469 64.4301 59.7912 64.8365 59.301C65.2429 58.8114 65.636 58.2656 66.0163 57.6626C66.3967 57.0604 66.7474 56.4378 67.0707 55.7954C67.0954 55.7461 67.1179 55.6996 67.1419 55.651C67.1891 55.708 67.2377 55.7644 67.2891 55.8193C67.6518 56.2081 68.0118 56.6188 68.3689 57.0527C67.7237 57.6126 67.0947 58.2071 66.4819 58.8361C65.8684 59.4644 65.3803 60.1279 65.0161 60.8266C64.7795 61.2859 64.6773 61.6831 64.7111 62.0163C64.745 62.3494 64.864 62.6284 65.0704 62.8517C65.2767 63.0749 65.5507 63.2362 65.8917 63.3348C66.2326 63.4328 66.5974 63.4821 66.9855 63.4799C67.3743 63.4778 67.7674 63.4222 68.166 63.313C68.5647 63.2045 68.9183 63.0496 69.2289 62.8502C69.6945 62.5509 70.1284 62.1924 70.5313 61.7733C70.9342 61.3549 71.249 60.9118 71.4765 60.4434C71.704 59.9758 71.8174 59.5031 71.8195 59.0263C71.8195 58.5487 71.6681 58.0824 71.3638 57.6281C71.2638 57.4936 71.1645 57.3682 71.0652 57.252C70.9659 57.1358 70.8665 57.0104 70.7665 56.8759C70.8982 56.7068 71.1898 56.4335 71.6406 56.0553C72.0914 55.677 72.5817 55.2875 73.112 54.886C73.6417 54.4846 74.1573 54.1197 74.6567 53.7915C75.1561 53.4632 75.5386 53.2625 75.8048 53.1899C75.9112 53.1653 75.9957 53.159 76.0605 53.1709C76.1239 53.1843 76.1746 53.1942 76.2112 53.1998C76.2479 53.2062 76.2796 53.204 76.3056 53.1928C76.3317 53.1822 76.3782 53.1385 76.4451 53.0625C76.2915 52.9505 76.0485 52.8272 75.7125 52.692M41.3827 56.0997C41.5469 55.7517 41.7448 55.3749 41.9765 54.9685C42.2083 54.5627 42.4505 54.1775 42.7041 53.814C42.9577 53.4506 43.169 53.2012 43.3395 53.0646C43.3254 53.3667 43.2662 53.733 43.1634 54.1648C43.0591 54.5966 42.9091 55.01 42.7126 55.4045C42.5154 55.7989 42.2878 56.1292 42.0272 56.3962C41.7666 56.6632 41.4729 56.7822 41.1461 56.7526C41.1397 56.6653 41.2179 56.4469 41.382 56.099M32.4824 50.9332C31.9718 51.5988 31.4541 52.2341 30.9293 52.8378C30.4053 53.4421 29.9179 53.9901 29.4657 54.4839C29.0142 54.9769 28.6895 55.3453 28.4908 55.5897C28.6402 55.172 28.8085 54.7008 28.9959 54.1732C29.1832 53.6471 29.3734 53.1068 29.5671 52.5532C29.7608 51.9996 29.9608 51.4551 30.1651 50.9184C30.3694 50.3824 30.5715 49.8851 30.773 49.428C30.8342 49.2822 30.8328 49.1413 30.7687 49.0039C30.7046 48.8673 30.6046 48.7461 30.4715 48.6412C30.337 48.5362 30.1869 48.4545 30.02 48.3954C29.8531 48.3376 29.7157 48.3031 29.6058 48.2932C29.9637 48.0016 30.3546 47.7347 30.78 47.491C31.204 47.248 31.6182 47.0451 32.0218 46.8824C32.4254 46.7204 32.7959 46.6042 33.134 46.5352C33.4721 46.4668 33.7263 46.4781 33.8954 46.5718C34.2701 46.7563 34.4244 47.0726 34.3582 47.5191C34.2912 47.9664 34.0898 48.4806 33.7531 49.0624C33.4171 49.6442 32.9924 50.2676 32.4824 50.9325M32.636 59.8201C32.3705 60.2638 32.045 60.7477 31.659 61.2711C31.2731 61.7944 30.8469 62.3248 30.3813 62.8636C29.9151 63.4018 29.4558 63.9089 29.0029 64.3843C28.5507 64.8598 28.1203 65.2761 27.7132 65.6325C27.3061 65.9896 26.9631 66.2403 26.6849 66.3847C26.7884 65.8297 27.0842 65.188 27.5724 64.4625C28.0612 63.7377 28.631 63.0151 29.2825 62.2952C29.9341 61.5754 30.611 60.8978 31.3139 60.2624C32.0162 59.6271 32.6247 59.1235 33.1389 58.7488C33.0685 59.0192 32.9008 59.3763 32.636 59.8201ZM50.2027 55.0262C50.0104 55.3587 49.7597 55.7573 49.4512 56.2215C49.142 56.6864 48.8243 57.152 48.4975 57.6176C48.17 58.0838 47.8537 58.51 47.548 58.8946C47.2423 59.2791 46.9965 59.5581 46.8105 59.7313C46.795 59.52 46.8521 59.1932 46.9824 58.7502C47.112 58.3078 47.2888 57.8218 47.5121 57.2921C47.7347 56.7639 48.0016 56.2222 48.3136 55.6686C48.625 55.115 48.9729 54.6304 49.3575 54.2127C49.5392 53.9873 49.6949 53.8873 49.8231 53.9133C49.9513 53.9394 50.0527 54.0253 50.126 54.1697C50.1999 54.3148 50.2436 54.4747 50.2563 54.6508C50.2689 54.8269 50.2513 54.9523 50.202 55.0262M69.1662 59.2517C69.0225 59.6334 68.8155 60.011 68.5457 60.385C68.2745 60.759 67.9737 61.0858 67.642 61.3662C67.3109 61.6472 67.02 61.8057 66.7693 61.8409C66.9545 61.1732 67.2757 60.5625 67.7314 60.0067C68.1872 59.4517 68.6746 58.8988 69.1944 58.348C69.3191 58.5684 69.3099 58.8692 69.1662 59.2517Z" fill="#DABEA2"/>
</g>
<defs>
<clipPath id="clip0_49_2">
<rect width="81" height="81" fill="white" transform="translate(10 10)"/>
</clipPath>
</defs>
</svg>
