<svg width="340" height="71" viewBox="0 0 340 71" fill="none" xmlns="http://www.w3.org/2000/svg">
<path d="M339.363 69.9998H333.363V25.8998C333.363 23.4998 333.096 21.8665 332.563 20.9998C332.029 20.1331 330.829 19.6998 328.963 19.6998H327.063C323.529 19.6998 321.763 22.2998 321.763 27.4998V69.9998H315.763V14.7998H321.363V21.0998C322.363 16.5665 325.129 14.2998 329.663 14.2998H331.563C334.563 14.2998 336.596 14.9665 337.663 16.2998C338.796 17.6331 339.363 20.0331 339.363 23.4998V69.9998Z" fill="#858585"/>
<path d="M302.294 58.5998V51.3998H307.994V59.7998C307.994 63.9998 307.327 66.8331 305.994 68.2998C304.727 69.7665 302.227 70.4998 298.494 70.4998H294.294C290.494 70.4998 287.961 69.7665 286.694 68.2998C285.427 66.8331 284.794 63.9998 284.794 59.7998V24.8998C284.794 20.7665 285.427 17.9665 286.694 16.4998C288.027 15.0331 290.561 14.2998 294.294 14.2998H298.494C302.227 14.2998 304.727 15.0331 305.994 16.4998C307.327 17.9665 307.994 20.7665 307.994 24.8998V43.9998H290.794V58.5998C290.794 61.1331 291.061 62.8665 291.594 63.7998C292.194 64.6665 293.494 65.0998 295.494 65.0998H297.694C299.694 65.0998 300.961 64.6665 301.494 63.7998C302.027 62.9331 302.294 61.1998 302.294 58.5998ZM290.794 26.1998V38.7998H302.294V26.1998C302.294 23.5998 302.027 21.8665 301.494 20.9998C300.961 20.1331 299.694 19.6998 297.694 19.6998H295.494C293.494 19.6998 292.194 20.1665 291.594 21.0998C291.061 21.9665 290.794 23.6665 290.794 26.1998Z" fill="#858585"/>
<path d="M277.058 70H271.058V25.9C271.058 23.5 270.791 21.8667 270.258 21C269.725 20.1333 268.525 19.7 266.658 19.7H264.758C261.225 19.7 259.458 22.3 259.458 27.5V70H253.458V0H259.458V19.5C260.658 16.0333 263.291 14.3 267.358 14.3H269.258C272.258 14.3 274.291 14.9667 275.358 16.3C276.491 17.6333 277.058 20.0333 277.058 23.5V70Z" fill="#858585"/>
<path d="M240.087 58.5998V47.9998H245.787V59.7998C245.787 63.9998 245.12 66.8331 243.787 68.2998C242.52 69.7665 240.02 70.4998 236.287 70.4998H232.087C228.287 70.4998 225.754 69.7665 224.487 68.2998C223.22 66.8331 222.587 63.9998 222.587 59.7998V24.8998C222.587 20.7665 223.22 17.9665 224.487 16.4998C225.82 15.0331 228.354 14.2998 232.087 14.2998H236.287C240.02 14.2998 242.52 15.0331 243.787 16.4998C245.12 17.9665 245.787 20.7665 245.787 24.8998V35.7998H240.087V26.1998C240.087 23.5998 239.82 21.8665 239.287 20.9998C238.754 20.1331 237.487 19.6998 235.487 19.6998H233.287C231.287 19.6998 229.987 20.1665 229.387 21.0998C228.854 21.9665 228.587 23.6665 228.587 26.1998V58.5998C228.587 61.1331 228.854 62.8665 229.387 63.7998C229.987 64.6665 231.287 65.0998 233.287 65.0998H235.487C237.487 65.0998 238.754 64.6665 239.287 63.7998C239.82 62.9331 240.087 61.1998 240.087 58.5998Z" fill="#858585"/>
<path d="M202.204 19.8998V14.7998H206.504V2.7998H212.504V14.7998H218.204V19.8998H212.504V57.3998C212.504 62.7331 213.037 66.9331 214.104 69.9998H207.604C206.871 68.1331 206.504 64.3998 206.504 58.7998V19.8998H202.204Z" fill="#858585"/>
<path d="M197.349 14.8V70H191.349V14.8H197.349ZM191.349 7.1V0H197.349V7.1H191.349Z" fill="#858585"/>
<path d="M157.959 70V0H164.559V31.8C165.093 30.2667 165.793 28.6667 166.659 27L179.759 0H186.259L169.759 32.9L186.859 70H179.859L166.559 40.6C165.759 38.8667 165.093 37.1333 164.559 35.4V70H157.959Z" fill="#858585"/>
<path d="M106.815 51.2998C106.815 47.6331 107.415 44.7665 108.615 42.6998C109.882 40.6331 112.282 38.9998 115.815 37.7998C120.015 36.3331 122.582 35.1998 123.515 34.3998C124.515 33.5998 125.015 31.9665 125.015 29.4998C125.015 28.1665 124.848 27.2331 124.515 26.6998C124.182 26.1665 123.548 25.8998 122.615 25.8998H121.815C120.882 25.8998 120.248 26.1665 119.915 26.6998C119.648 27.1665 119.515 28.0998 119.515 29.4998V33.7998H107.615V28.0998C107.615 22.6998 108.448 19.0665 110.115 17.1998C111.848 15.2665 115.148 14.2998 120.015 14.2998H125.215C130.082 14.2998 133.348 15.2665 135.015 17.1998C136.748 19.0665 137.615 22.6998 137.615 28.0998V60.6998C137.615 64.4331 137.915 67.5331 138.515 69.9998H126.515C125.982 68.9998 125.615 66.8331 125.415 63.4998C124.548 68.1665 121.715 70.4998 116.915 70.4998H114.715C111.715 70.4998 109.648 69.7331 108.515 68.1998C107.382 66.6665 106.815 63.9998 106.815 60.1998V51.2998ZM125.015 54.9998V45.0998L123.515 45.5998C121.715 46.1998 120.582 46.8998 120.115 47.6998C119.648 48.4331 119.415 49.7665 119.415 51.6998V55.3998C119.415 56.7331 119.548 57.6665 119.815 58.1998C120.148 58.6665 120.782 58.8998 121.715 58.8998H122.415C124.148 58.8998 125.015 57.5998 125.015 54.9998Z" fill="#858585"/>
<path d="M85.3072 14.7998L87.1072 28.5998C88.0406 35.6665 88.8072 44.6665 89.4072 55.5998C89.9406 45.5998 90.7406 36.5998 91.8072 28.5998L93.6072 14.7998H105.007L96.9072 69.9998H80.5072L72.4072 14.7998H85.3072Z" fill="#858585"/>
<path d="M70.3366 28.0998V56.6998C70.3366 62.0331 69.47 65.6665 67.7366 67.5998C66.07 69.5331 62.8033 70.4998 57.9366 70.4998H51.9366C47.07 70.4998 43.77 69.5665 42.0366 67.6998C40.37 65.7665 39.5366 62.0998 39.5366 56.6998V28.0998C39.5366 22.6998 40.37 19.0665 42.0366 17.1998C43.77 15.2665 47.07 14.2998 51.9366 14.2998H57.9366C62.8033 14.2998 66.07 15.2665 67.7366 17.1998C69.47 19.0665 70.3366 22.6998 70.3366 28.0998ZM52.1366 29.4998V55.2998C52.1366 56.6331 52.3033 57.5665 52.6366 58.0998C52.97 58.6331 53.6033 58.8998 54.5366 58.8998H55.3366C56.27 58.8998 56.9033 58.6331 57.2366 58.0998C57.57 57.5665 57.7366 56.6331 57.7366 55.2998V29.4998C57.7366 28.1665 57.57 27.2331 57.2366 26.6998C56.9033 26.1665 56.27 25.8998 55.3366 25.8998H54.5366C53.6033 25.8998 52.97 26.1665 52.6366 26.6998C52.3033 27.2331 52.1366 28.1665 52.1366 29.4998Z" fill="#858585"/>
<path d="M19.7 70L14 42.9C13.1333 38.5 12.3667 33.7 11.7 28.5C11.7 29.6333 11.7333 31.1667 11.8 33.1C11.8667 35.0333 11.9 36.8 11.9 38.4C11.9667 39.9333 12 41.4333 12 42.9V70H0V0H16.8L21.3 23.7C21.7667 26.1 22.4333 30.9 23.3 38.1C23.3 36.9667 23.2667 35.4333 23.2 33.5C23.1333 31.5667 23.0667 29.8 23 28.2C23 26.6 23 25.1 23 23.7V0H35.1V70H19.7Z" fill="#858585"/>
</svg>
