<svg width="744" height="407" viewBox="0 0 744 407" fill="none" xmlns="http://www.w3.org/2000/svg">
<path fill-rule="evenodd" clip-rule="evenodd" d="M339.487 87.4072C356.122 87.4072 371.783 90.2707 386.446 96.0205C401.109 101.747 413.87 109.569 424.704 119.462C435.539 129.379 444.078 140.995 450.319 154.357C456.56 167.719 459.669 182.012 459.669 197.26C459.669 212.297 456.56 226.451 450.319 239.72C444.078 252.989 435.539 264.558 424.704 274.452C413.87 284.345 401.109 292.167 386.446 297.917C371.783 303.643 356.122 306.53 339.487 306.53C322.852 306.53 307.261 303.643 292.691 297.917C278.144 292.167 265.429 284.345 254.594 274.452C243.76 264.558 235.222 252.989 228.981 239.72C222.739 226.451 219.631 212.297 219.631 197.26C219.631 182.012 222.739 167.719 228.981 154.357C235.222 140.995 243.76 129.379 254.594 119.462C265.429 109.569 278.144 101.747 292.691 96.0205C307.261 90.2707 322.852 87.4072 339.487 87.4072ZM339.487 275.941C350.878 275.941 361.667 273.87 371.829 269.726C382.015 265.582 390.877 259.972 398.441 252.872C405.981 245.772 411.944 237.439 416.329 227.871C420.714 218.303 422.895 208.107 422.895 197.26C422.895 186.412 420.714 176.169 416.329 166.485C411.944 156.824 405.981 148.397 398.441 141.204C390.877 134.011 382.015 128.331 371.829 124.211C361.667 120.067 350.878 117.996 339.487 117.996C328.096 117.996 317.376 120.067 307.307 124.211C297.238 128.331 288.421 134.011 280.881 141.204C273.317 148.397 267.355 156.824 262.97 166.485C258.609 176.169 256.404 186.412 256.404 197.26C256.404 208.107 258.609 218.303 262.97 227.871C267.355 237.439 273.317 245.772 280.881 252.872C288.421 259.972 297.238 265.582 307.307 269.726C317.376 273.87 328.096 275.941 339.487 275.941ZM628.335 129.61L644.907 90.6664L744 309.207H706.616L686.7 263.53H575.033L588.358 231.928H672.938L628.335 129.61ZM33.1776 171.723V309.207H0V87.4072L205.074 309.207H156.654L33.1776 171.723ZM169.925 222.424V131.776L205.074 90.9689V266.677L169.925 222.424ZM534.253 227.243L616.247 0L636.443 80.9482L534.253 309.207L461.355 143.951H497.804L534.253 227.243ZM351.797 400.555C354.75 400.555 357.458 399.918 359.927 398.647C362.39 397.377 364.409 395.675 365.978 393.546L372.001 397.612C369.693 400.452 366.8 402.703 363.314 404.371C359.834 406.038 355.991 406.872 351.797 406.872C348.336 406.872 345.085 406.269 342.04 405.058C338.995 403.851 336.345 402.213 334.082 400.148C331.823 398.083 330.034 395.665 328.719 392.889C327.404 390.118 326.749 387.146 326.749 383.977C326.749 380.809 327.404 377.837 328.719 375.065C330.034 372.289 331.823 369.871 334.082 367.806C336.345 365.741 338.995 364.103 342.04 362.897C345.085 361.685 348.336 361.082 351.797 361.082C355.991 361.082 359.834 361.916 363.314 363.583C366.8 365.251 369.693 367.502 372.001 370.342L365.978 374.408C364.409 372.279 362.39 370.578 359.927 369.307C357.458 368.037 354.75 367.399 351.797 367.399C349.397 367.399 347.148 367.836 345.051 368.714C342.949 369.592 341.116 370.779 339.547 372.279C337.983 373.78 336.736 375.531 335.812 377.532C334.888 379.534 334.429 381.682 334.429 383.977C334.429 386.273 334.888 388.421 335.812 390.422C336.736 392.423 337.983 394.174 339.547 395.675C341.116 397.176 342.949 398.368 345.051 399.241C347.148 400.119 349.397 400.555 351.797 400.555ZM442.113 392.575V400.433H464.673L458.504 407H434.781V392.575H442.113ZM434.781 386.69V380.436H464.673L458.504 386.69H434.781ZM434.781 374.55V361.337H464.673L458.504 367.782H442.113V374.55H434.781ZM256.756 406.936V369.68L264.157 361.082V406.936H256.756ZM415.372 369.616L422.773 361.018V406.809H415.372V386.537H395.652V380.661H415.372V369.616ZM382.473 406.872V369.616L389.874 361.018V406.872H382.473ZM244.748 361.082L225.771 384.198L244.748 407H236.305L221.675 389.181L219.426 391.923L212.094 400.8V369.68L219.426 361.082V381.853L236.305 361.082H244.748ZM483.671 377.905V406.872H476.681V360.14L519.889 406.872H509.687L483.671 377.905ZM512.483 388.587V369.489L519.889 360.891V397.911L512.483 388.587ZM276.165 367.522L283.238 361.082H326.749L318.395 367.522H305.05V406.872H297.712V367.522H276.165Z" fill="url(#paint0_linear_38_6)"/>
<defs>
<linearGradient id="paint0_linear_38_6" x1="144" y1="131" x2="672.5" y2="427.5" gradientUnits="userSpaceOnUse">
<stop stop-color="#C9A581"/>
<stop offset="1" stop-color="#E4CCB4"/>
</linearGradient>
</defs>
</svg>
