<svg width="500" height="500" viewBox="0 0 500 500" fill="none" xmlns="http://www.w3.org/2000/svg">
<g clip-path="url(#clip0_72_4)">
<path d="M250 460C193.905 460 141.171 438.156 101.507 398.493C61.844 358.829 40 306.095 40 250C40 193.905 61.844 141.171 101.507 101.507C141.171 61.844 193.909 40 250 40C306.091 40 358.829 61.844 398.493 101.507C438.156 141.171 460 193.905 460 250C460 306.095 438.156 358.829 398.493 398.493C358.829 438.156 306.095 460 250 460ZM250 44.6055C195.136 44.6055 143.559 65.9711 104.765 104.765C65.9711 143.559 44.6055 195.14 44.6055 250C44.6055 304.86 65.9711 356.441 104.765 395.235C143.559 434.029 195.14 455.395 250 455.395C304.86 455.395 356.441 434.029 395.235 395.235C434.029 356.441 455.395 304.86 455.395 250C455.395 195.14 434.029 143.559 395.235 104.765C356.441 65.9711 304.864 44.6055 250 44.6055Z" fill="#D6B89A"/>
<path d="M80.1161 199.552L84.2432 198.047L84.3783 198.449C84.1592 198.638 84.0167 198.803 83.9765 198.938C83.9291 199.099 83.9765 199.541 84.1445 200.238C84.4806 201.776 84.6376 203.109 84.623 204.215C84.6084 205.322 84.3929 206.546 83.9985 207.879C83.2023 210.556 81.9496 212.564 80.2476 213.905C79.2761 214.657 78.1804 215.172 76.9789 215.446C75.6823 215.727 74.3639 215.687 73.0527 215.311C71.2448 214.796 69.8132 213.784 68.7504 212.276C67.1032 209.92 66.8074 206.933 67.8811 203.317C68.2756 201.988 68.765 200.841 69.3676 199.884C69.9666 198.927 70.8285 197.89 71.9534 196.765C72.4756 196.265 72.7605 195.914 72.808 195.753C72.8482 195.622 72.819 195.41 72.7386 195.132L73.0892 194.866L75.7334 198.299L75.4157 198.558C75.3098 198.511 75.2404 198.492 75.2185 198.47C75.1418 198.434 75.087 198.416 75.0432 198.405C74.5866 198.277 73.8818 198.788 72.9249 199.942C72.0155 201.031 71.369 202.21 70.9892 203.485C70.4633 205.256 70.4706 206.845 71.0074 208.251C71.6101 209.851 72.6802 210.87 74.2397 211.315C75.7992 211.757 77.2747 211.465 78.6589 210.432C79.8714 209.526 80.748 208.185 81.2739 206.418C81.6866 205.03 81.7633 203.558 81.5259 201.999C81.3323 200.786 81.0365 200.114 80.653 200.004C80.6384 200.001 80.496 199.975 80.2549 199.939L80.1161 199.552ZM86.0254 211.122L84.8896 209.957C84.5573 209.61 84.5646 209.595 84.6559 209.288C85.39 206.816 86.5952 205.636 87.9721 206.027C88.6331 206.217 89.086 206.662 89.3417 207.353C89.6156 208.098 89.5681 209.051 89.2212 210.22C88.8778 211.374 88.4615 212.32 87.9575 213.065L87.4096 212.543C87.7237 212.046 87.9392 211.567 88.0744 211.115C88.4542 209.844 88.246 208.927 87.5302 208.722C86.9933 208.569 86.4272 208.916 86.2519 209.5C86.1204 209.939 86.1788 210.355 86.4053 210.749L86.0254 211.118V211.122Z" fill="#D6B89A"/>
<path d="M83.6844 187.39L87.2709 188.953L91.6426 179.008C91.8946 178.434 91.807 178.062 91.2445 177.602L91.4162 177.211L95.777 179.11L95.6053 179.501C94.915 179.399 94.5608 179.596 94.3088 180.169L87.8991 194.756L87.5302 194.596C87.6617 193.869 87.49 193.511 86.9531 193.277L74.9227 188.032C74.3821 187.799 74.0498 187.919 73.5567 188.504L73.1879 188.343L79.4076 174.187C79.6742 173.584 79.5793 173.226 79.0278 172.77L79.1921 172.39L83.5529 174.293L83.3886 174.669C82.6654 174.57 82.3404 174.746 82.0738 175.345L77.8956 184.855L81.1278 186.265L83.7209 180.363C83.9729 179.789 83.8816 179.431 83.3411 178.949L83.5091 178.573L87.7639 180.428L87.5996 180.805C86.8874 180.713 86.5477 180.881 86.2848 181.48L83.6917 187.382L83.6844 187.39Z" fill="#D6B89A"/>
<path d="M94.4476 164.698L94.8019 167.748L98.2277 169.811C98.7317 170.115 99.0896 170.045 99.6484 169.527L99.9807 169.727L96.8909 174.925L96.5476 174.716C96.7668 174.012 96.6426 173.632 96.1386 173.329L84.897 166.554C84.393 166.251 84.046 166.327 83.4872 166.846L83.1439 166.638L86.2337 161.441L86.577 161.649C86.3615 162.376 86.4821 162.73 86.9861 163.037L91.4893 165.75L90.6529 157.741C90.5872 157.149 90.4557 156.784 90.222 156.645C89.9773 156.495 89.6705 156.649 89.2797 157.109L88.9364 156.901L92.8698 150.29L93.2022 150.491C93.0561 150.849 92.9831 151.196 92.9831 151.503C92.9831 151.806 93.089 152.617 93.2898 153.932L94.0312 161.116L103.147 159.194C104.323 158.957 105.108 158.753 105.521 158.592C105.934 158.431 106.292 158.165 106.613 157.821L106.946 158.022L103.122 164.45L102.789 164.249C102.968 163.698 102.95 163.365 102.727 163.23C102.64 163.179 102.552 163.161 102.439 163.183C102.322 163.183 101.982 163.245 101.39 163.373L94.4512 164.698H94.4476Z" fill="#D6B89A"/>
<path d="M93.3885 139.556C93.7391 139.074 94.1737 138.793 94.7252 138.691C95.2767 138.589 95.7624 138.702 96.2116 139.038C96.6353 139.356 96.88 139.801 96.9457 140.367C97.0115 140.933 96.8763 141.437 96.5367 141.905C96.197 142.372 95.7515 142.668 95.1963 142.77C94.6448 142.873 94.1481 142.748 93.7099 142.423C93.2862 142.106 93.0342 141.671 92.9758 141.116C92.9064 140.55 93.0451 140.042 93.3848 139.556M100.492 142.369L111.018 150.228C111.489 150.579 111.851 150.546 112.453 150.082L112.764 150.312L109.21 155.199L108.889 154.958C109.173 154.275 109.086 153.884 108.611 153.534L98.0889 145.674C97.6178 145.323 97.2671 145.363 96.6645 145.827L96.3431 145.586L99.8967 140.7L100.218 140.941C99.9369 141.646 100.025 142.014 100.496 142.365" fill="#D6B89A"/>
<path d="M114.049 138.081L117.847 141.547C118.282 141.945 118.644 141.945 119.286 141.539L119.571 141.802L115.587 146.331L115.291 146.061C115.638 145.407 115.583 145.009 115.148 144.615L105.433 135.743C104.999 135.345 104.648 135.353 104.005 135.758L103.71 135.484L111.098 127.088C112.055 126.003 112.844 125.214 113.454 124.739C114.053 124.253 114.696 123.914 115.353 123.709C116.73 123.297 118.045 123.673 119.308 124.827C121.229 126.58 121.31 128.592 119.564 131.558L124.838 132C125.813 132.087 126.507 132.102 126.952 132.033C127.383 131.952 127.796 131.77 128.139 131.489L128.424 131.748L123.695 137.124L123.41 136.861C123.665 136.375 123.68 136.032 123.457 135.831C123.297 135.685 122.953 135.601 122.424 135.55L116.766 135.002L114.056 138.081H114.049ZM111.898 136.112L115.963 131.492C116.576 130.795 116.967 130.199 117.121 129.743C117.343 129.1 117.172 128.512 116.609 127.997C116.109 127.54 115.612 127.394 115.116 127.54C114.622 127.69 114.013 128.183 113.267 129.031L109.199 133.651L111.894 136.112H111.898Z" fill="#D6B89A"/>
<path d="M130.893 127.365L122.42 117.256C122.04 116.803 121.693 116.766 121.007 117.081L120.747 116.774L128.242 110.174C129.805 108.797 131.182 107.91 132.398 107.493C134.107 106.909 135.74 106.986 137.325 107.72C138.424 108.228 139.461 109.06 140.415 110.2C142.182 112.307 142.873 114.48 142.485 116.719C142.124 118.724 140.973 120.448 138.599 122.537L131.105 129.137L130.846 128.826C131.269 128.22 131.269 127.818 130.89 127.365M133.015 123.56L136.277 120.689C137.77 119.371 138.588 118.078 138.705 116.821C138.83 115.503 138.362 114.21 137.296 112.939C136.233 111.668 135.057 111 133.764 110.927C132.486 110.843 131.255 111.409 129.67 112.807L126.408 115.678L133.012 123.56H133.015Z" fill="#D6B89A"/>
<path d="M149.49 105.182L151.616 108.509L160.509 102.446C161.02 102.095 161.148 101.73 160.929 101.022L161.28 100.781L163.866 104.824L163.515 105.065C163 104.594 162.606 104.568 162.091 104.915L149.048 113.808L148.829 113.469C149.322 112.921 149.373 112.523 149.052 112.022L141.923 100.865C141.605 100.364 141.266 100.284 140.546 100.51L140.327 100.171L152.982 91.5441C153.519 91.1789 153.632 90.821 153.424 90.1271L153.76 89.897L156.346 93.94L156.01 94.1701C155.465 93.6843 155.104 93.6515 154.567 94.0167L146.065 99.8165L147.982 102.811L153.259 99.2138C153.771 98.8632 153.884 98.509 153.701 97.7968L154.037 97.5667L156.561 101.515L156.221 101.745C155.685 101.27 155.316 101.226 154.779 101.591L149.501 105.189L149.49 105.182Z" fill="#D6B89A"/>
<path d="M170.414 91.7558L169.096 94.5607L170.834 98.2166C171.09 98.7535 171.422 98.8923 172.16 98.7571L172.328 99.1114L167.021 101.851L166.846 101.482C167.401 101 167.5 100.609 167.244 100.068L161.539 88.0597C161.284 87.5228 160.958 87.395 160.221 87.5301L160.045 87.1613L165.352 84.4221L165.527 84.791C164.965 85.295 164.877 85.6639 165.133 86.2044L167.419 91.0144L170.966 83.6953C171.225 83.1548 171.309 82.7676 171.192 82.5193C171.068 82.2563 170.732 82.2161 170.166 82.3951L169.99 82.0299L176.743 78.542L176.911 78.8963C176.601 79.1227 176.356 79.3784 176.196 79.6413C176.039 79.9043 175.692 80.653 175.162 81.8911L171.974 88.4542L180.524 91.8434C181.619 92.289 182.379 92.552 182.806 92.6396C183.233 92.7309 183.668 92.7017 184.114 92.5848L184.282 92.9391L177.719 96.3284L177.551 95.9741C177.989 95.5979 178.15 95.3058 178.04 95.0684C177.996 94.9734 177.93 94.9113 177.828 94.8675C177.733 94.8018 177.419 94.6703 176.864 94.4511L170.425 91.7521L170.414 91.7558Z" fill="#D6B89A"/>
<path d="M191.867 75.7519L195.728 86.9825C195.921 87.5486 196.235 87.7239 196.98 87.6728L197.108 88.0453L191.546 90.1673L191.414 89.7838C192.017 89.3674 192.156 88.9876 191.962 88.4215L188.106 77.1945L183.471 78.9622C182.868 79.1923 182.682 79.5283 182.726 80.2587L182.346 80.4012L180.776 75.8286L181.17 75.6788C181.561 76.2632 181.908 76.3947 182.51 76.1646L195.542 71.1902C196.144 70.9601 196.338 70.6387 196.29 69.9083L196.67 69.7622L198.241 74.3385L197.861 74.4809C197.452 73.8892 197.105 73.7578 196.498 73.9878L191.864 75.7555L191.867 75.7519Z" fill="#D6B89A"/>
<path d="M209.088 76.968L209.942 80.865L220.26 78.2354C220.855 78.082 221.093 77.7825 221.129 77.0338L221.534 76.9279L222.575 81.6721L222.17 81.7744C221.849 81.1462 221.491 80.9818 220.895 81.1352L205.764 84.992L205.676 84.5939C206.319 84.2506 206.502 83.8854 206.374 83.301L203.5 70.2187C203.372 69.6343 203.083 69.4335 202.338 69.3969L202.251 68.9952L216.933 65.2553C217.557 65.0983 217.784 64.7951 217.82 64.0647L218.211 63.9661L219.252 68.7103L218.861 68.8126C218.518 68.1588 218.193 68.0018 217.568 68.1588L207.7 70.6716L208.47 74.185L214.595 72.6255C215.19 72.4721 215.417 72.1763 215.483 71.4349L215.873 71.3326L216.889 75.96L216.498 76.0586C216.158 75.4231 215.83 75.2478 215.205 75.4085L209.084 76.968H209.088Z" fill="#D6B89A"/>
<path d="M230.077 68.5679L230.913 77.8702C230.968 78.4691 231.246 78.7467 231.958 78.8526L231.994 79.247L226.491 79.9118L226.454 79.5027C227.133 79.2434 227.36 78.9074 227.305 78.3048L226.1 64.9084C226.045 64.3094 225.786 64.0756 225.055 63.9405L225.019 63.5315L231.381 62.7645L231.417 63.1735C230.997 63.3269 230.793 63.5424 230.815 63.8236C230.837 64.0574 231.023 64.3167 231.363 64.587L241.026 72.2311L240.216 63.2101C240.161 62.6111 239.898 62.3445 239.171 62.2422L239.135 61.8332L244.638 61.1721L244.675 61.5812C243.981 61.8587 243.769 62.1765 243.824 62.7791L245.029 76.1755C245.084 76.7745 245.343 77.0228 246.074 77.158L246.107 77.5524L240.172 78.2682L240.135 77.8738C240.559 77.735 240.763 77.5305 240.738 77.2529C240.727 77.1214 240.654 76.9827 240.522 76.8512C240.391 76.7197 240.099 76.4604 239.631 76.0879L230.07 68.5789L230.077 68.5679Z" fill="#D6B89A"/>
<path d="M275.854 71.9971L272.085 71.7159C271.45 71.6684 271.146 71.8839 270.883 72.5742L270.485 72.545L270.905 68.1988L271.303 68.228C271.428 68.9329 271.687 69.1886 272.322 69.236L280.204 69.8204L280.164 70.2477C279.452 70.3865 279.167 70.7079 279.101 71.3945L278.765 74.8605C278.707 75.4631 278.929 75.7882 279.605 76.0292L279.572 76.3689C276.208 77.8809 272.943 78.5237 269.762 78.2899C267.027 78.0891 264.872 77.2746 263.294 75.8722C262.447 75.0979 261.789 74.1775 261.329 73.0928C260.781 71.8109 260.584 70.4632 260.719 69.068C260.906 67.1287 261.68 65.456 263.024 64.0316C265.128 61.8366 268.005 60.8834 271.676 61.1536C273.287 61.2705 275.087 61.7599 277.078 62.6182C277.863 62.9578 278.338 63.1258 278.473 63.1368C278.637 63.1478 278.849 63.0893 279.086 62.9469L279.422 63.1624L277.052 67.1579L276.716 66.9534L276.723 66.8657C276.76 66.5005 276.424 66.1061 275.737 65.6678C274.463 64.8497 273.046 64.3895 271.493 64.2726C269.704 64.1412 268.192 64.5173 266.961 65.4012C265.664 66.3252 264.923 67.6619 264.759 69.3785C264.602 70.9928 265.025 72.3258 266.026 73.3777C267.056 74.4441 268.59 75.0614 270.617 75.2111C272.553 75.3535 274.214 75.1234 275.617 74.5026L275.861 71.9898L275.854 71.9971Z" fill="#D6B89A"/>
<path d="M289.707 73.4106L288.831 77.3514L299.13 79.4807C299.725 79.6048 300.065 79.4332 300.412 78.7612L300.817 78.8452L299.751 83.6369L299.345 83.5529C299.323 82.8371 299.071 82.5303 298.48 82.4061L283.374 79.2871L283.465 78.8817C284.185 78.8488 284.499 78.5968 284.631 78.0052L287.574 64.7767C287.706 64.1851 287.534 63.8783 286.884 63.5167L286.975 63.1113L301.632 66.139C302.256 66.2669 302.581 66.0916 302.925 65.4378L303.315 65.5182L302.249 70.3135L301.858 70.2332C301.829 69.4881 301.602 69.1996 300.982 69.0718L291.131 67.0375L290.339 70.5911L296.453 71.8511C297.048 71.9753 297.373 71.8 297.746 71.1499L298.136 71.2303L297.096 75.9088L296.705 75.8284C296.672 75.0943 296.449 74.7948 295.828 74.6634L289.718 73.4033L289.707 73.4106Z" fill="#D6B89A"/>
<path d="M309.612 82.6071L318.392 85.5508C318.994 85.7516 319.309 85.6092 319.754 84.992L320.134 85.1198L318.534 89.7691L318.154 89.6413C318.206 88.9072 318.016 88.5931 317.413 88.3922L303.984 83.889L304.119 83.4946C304.835 83.5457 305.174 83.3339 305.372 82.7605L309.787 69.9338C309.984 69.3604 309.849 69.0317 309.247 68.5971L309.382 68.2063L314.926 70.0653L314.791 70.4597C314.057 70.4159 313.735 70.6204 313.538 71.1938L309.608 82.6071H309.612Z" fill="#D6B89A"/>
<path d="M329.454 85.8905L327.712 89.5427L337.183 94.0532C337.727 94.3125 338.099 94.2249 338.581 93.6551L338.954 93.8341L336.836 98.2752L336.463 98.0999C336.602 97.395 336.434 97.0334 335.886 96.7741L321.993 90.1599L322.172 89.7838C322.873 89.9225 323.235 89.7472 323.498 89.1994L329.345 76.9461C329.604 76.3983 329.509 76.055 328.965 75.551L329.144 75.1748L342.624 81.5918C343.198 81.8657 343.552 81.7707 344.034 81.212L344.392 81.3836L342.274 85.8247L341.916 85.6531C342.055 84.9153 341.905 84.5793 341.332 84.3091L332.274 79.9958L330.704 83.2864L336.324 85.9635C336.868 86.2228 337.226 86.1315 337.73 85.5837L338.088 85.7553L336.021 90.0869L335.663 89.9152C335.795 89.1921 335.652 88.8415 335.079 88.5712L329.458 85.8941L329.454 85.8905Z" fill="#D6B89A"/>
<path d="M350.619 92.6835L345.506 100.598C345.177 101.109 345.218 101.507 345.692 102.052L345.477 102.388L340.886 99.3671L341.112 99.0202C341.788 99.2539 342.168 99.1297 342.497 98.6184L349.86 87.2198C350.188 86.7085 350.137 86.3579 349.666 85.7808L349.892 85.4338L355.199 88.9254L354.973 89.2723C354.56 89.1226 354.268 89.1628 354.114 89.4002C353.987 89.5974 353.968 89.9261 354.06 90.3571L356.671 102.647L361.631 94.9662C361.959 94.4549 361.923 94.0787 361.437 93.5272L361.66 93.1802L366.251 96.2006L366.024 96.5476C365.327 96.3212 364.969 96.438 364.64 96.9493L357.277 108.348C356.949 108.859 356.992 109.225 357.463 109.802L357.248 110.138L352.303 106.88L352.518 106.544C352.924 106.704 353.205 106.679 353.358 106.442C353.431 106.328 353.461 106.171 353.442 105.981C353.424 105.791 353.362 105.397 353.238 104.802L350.619 92.6835Z" fill="#D6B89A"/>
<path d="M373.668 120.419L380.308 126.909C380.765 127.354 381.104 127.358 381.758 126.985L382.043 127.267L378.687 130.842L378.402 130.561C378.749 129.907 378.709 129.542 378.256 129.096L368.102 119.17L368.384 118.866C369.005 119.224 369.395 119.173 369.812 118.731L379.074 108.867C379.49 108.425 379.501 108.067 379.147 107.406L379.432 107.103L383.624 111.2L383.343 111.503C382.704 111.146 382.332 111.197 381.915 111.639L373.676 120.415L373.668 120.419Z" fill="#D6B89A"/>
<path d="M390.034 132.025L386.948 134.607L393.511 142.876C393.887 143.351 394.256 143.435 394.928 143.121L395.187 143.446L391.437 146.587L391.177 146.262C391.597 145.677 391.597 145.272 391.217 144.797L381.59 132.668L381.908 132.405C382.478 132.836 382.872 132.836 383.336 132.449L393.69 123.786C394.154 123.399 394.209 123.041 393.935 122.343L394.252 122.08L403.595 133.848C403.993 134.348 404.347 134.418 405.012 134.114L405.26 134.429L401.509 137.569L401.261 137.255C401.696 136.642 401.699 136.269 401.305 135.769L395.027 127.858L392.247 130.185L396.144 135.093C396.524 135.572 396.878 135.641 397.561 135.36L397.81 135.674L394.146 138.738L393.898 138.424C394.322 137.818 394.336 137.438 393.938 136.938L390.041 132.029L390.034 132.025Z" fill="#D6B89A"/>
<path d="M400.191 153.121L404.559 160.37C404.891 160.918 405.231 161.002 405.936 160.812L406.144 161.156L402.05 163.796L401.834 163.438C402.32 162.912 402.386 162.532 402.054 161.985L394.34 149.184L395.081 148.705L410.677 150.224L406.498 143.292C406.17 142.745 405.841 142.653 405.121 142.854L404.913 142.507L409.007 139.867L409.216 140.21C408.723 140.758 408.671 141.127 409.004 141.678L416.579 154.253L415.972 154.644L400.191 153.121Z" fill="#D6B89A"/>
<path d="M409.899 171.334L413.346 179.103C413.609 179.691 413.934 179.815 414.657 179.713L414.822 180.082L410.454 182.196L410.282 181.813C410.826 181.349 410.936 180.98 410.677 180.392L404.588 166.671L405.377 166.287L420.618 169.76L417.324 162.332C417.061 161.744 416.75 161.612 416.012 161.722L415.848 161.353L420.216 159.238L420.381 159.607C419.829 160.093 419.734 160.451 419.993 161.039L425.972 174.512L425.326 174.826L409.899 171.327V171.334Z" fill="#D6B89A"/>
<path d="M420.731 188.237L416.962 189.512L420.045 199.749C420.22 200.341 420.53 200.552 421.261 200.512L421.381 200.914L416.801 202.466L416.681 202.064C417.276 201.674 417.422 201.29 417.243 200.702L412.725 185.684L413.113 185.553C413.481 186.173 413.847 186.32 414.409 186.13L427.05 181.849C427.616 181.656 427.795 181.342 427.795 180.582L428.182 180.45L432.564 195.023C432.751 195.64 433.054 195.841 433.773 195.804L433.89 196.195L429.31 197.747L429.193 197.357C429.814 196.94 429.949 196.593 429.763 195.972L426.816 186.181L423.419 187.331L425.249 193.409C425.428 193.997 425.731 194.197 426.458 194.19L426.575 194.577L422.104 196.093L421.988 195.702C422.594 195.289 422.747 194.939 422.561 194.318L420.731 188.241V188.237Z" fill="#D6B89A"/>
<path d="M433.211 213.036L421.63 215.413C421.045 215.534 420.819 215.826 420.727 216.582L420.344 216.662L419.336 210.771L419.734 210.691C420.023 211.356 420.366 211.546 420.947 211.429L432.528 209.051L431.688 204.142C431.578 203.503 431.29 203.27 430.574 203.215L430.504 202.813L435.223 201.845L435.293 202.262C434.653 202.576 434.463 202.908 434.573 203.551L436.932 217.356C437.042 217.995 437.32 218.233 438.032 218.284L438.101 218.686L433.382 219.654L433.313 219.252C433.963 218.919 434.153 218.587 434.047 217.948L433.207 213.039L433.211 213.036Z" fill="#D6B89A"/>
<path d="M195.655 367.051L194.585 372.109L194.132 372.357C193.529 371.999 192.821 371.711 192.013 371.492C191.206 371.273 190.417 371.163 189.65 371.163C188.171 371.163 187.072 371.572 186.36 372.397C185.648 373.219 185.29 374.563 185.29 376.429C185.29 378.54 185.68 380.096 186.462 381.097C187.244 382.098 188.431 382.598 190.019 382.598C190.761 382.598 191.55 382.514 192.386 382.35C193.222 382.185 193.956 381.966 194.585 381.692L195.122 382.021L194.585 387.039C193.021 387.507 191.349 387.74 189.566 387.74C186.027 387.74 183.347 386.827 181.524 385.005C179.698 383.182 178.789 380.557 178.789 377.127C178.789 373.698 179.76 370.911 181.707 369.004C183.653 367.098 186.411 366.145 189.976 366.145C192.032 366.145 193.924 366.444 195.651 367.051" fill="#D6B89A"/>
<path d="M219.738 368.8C221.476 370.597 222.349 373.124 222.349 376.389C222.349 380.009 221.403 382.814 219.511 384.801C217.619 386.787 214.931 387.784 211.451 387.784C208.27 387.784 205.808 386.864 204.066 385.027C202.324 383.19 201.454 380.6 201.454 377.255C201.454 373.716 202.4 370.977 204.292 369.03C206.184 367.084 208.872 366.108 212.356 366.108C215.537 366.108 217.995 367.007 219.741 368.804M209.475 371.514C208.927 371.828 208.529 372.376 208.28 373.157C208.032 373.939 207.912 375.027 207.912 376.426C207.912 378.208 208.039 379.571 208.302 380.52C208.562 381.466 208.982 382.131 209.559 382.514C210.136 382.898 210.943 383.091 211.984 383.091C213.025 383.091 213.781 382.934 214.329 382.62C214.876 382.306 215.275 381.762 215.519 380.995C215.768 380.228 215.892 379.132 215.892 377.704C215.892 375.951 215.768 374.593 215.519 373.632C215.275 372.671 214.855 371.999 214.267 371.616C213.675 371.232 212.846 371.039 211.779 371.039C210.79 371.039 210.023 371.196 209.475 371.51" fill="#D6B89A"/>
<path d="M235.924 371.247L235.84 375.239H238.43L242.338 375.115L242.71 375.567L242.297 380.133L237.98 380.009L235.716 380.049V380.626L235.964 387.372H229.752L230.04 381.243L229.752 366.477H244.109L244.438 366.93L244.025 371.451L238.594 371.247H235.924Z" fill="#D6B89A"/>
<path d="M257.023 371.247L256.939 375.239H259.532L263.44 375.115L263.809 375.567L263.396 380.133L259.079 380.009L256.819 380.049V380.626L257.063 387.372H250.855L251.139 381.243L250.855 366.477H265.208L265.537 366.93L265.128 371.451L259.697 371.247H257.023Z" fill="#D6B89A"/>
<path d="M287.297 382.394L287.666 382.806L287.257 387.372H272.158L272.447 381.243L272.158 366.477H287.461L287.83 366.93L287.421 371.451L281.99 371.247H278.327L278.246 374.457H281.786L285.365 374.333L285.69 374.786L285.321 379.351L281.373 379.227L278.122 379.267L278.082 380.626L278.166 382.602H281.621L287.297 382.394Z" fill="#D6B89A"/>
<path d="M309.681 382.386L310.054 382.799L309.641 387.364H294.546L294.835 381.236L294.546 366.47H309.846L310.218 366.923L309.805 371.448L304.375 371.24H300.715L300.631 374.45H304.17L307.749 374.326L308.078 374.779L307.709 379.344L303.757 379.22L300.51 379.264L300.47 380.618L300.551 382.594H304.006L309.681 382.386Z" fill="#D6B89A"/>
<path d="M351.616 375.856H323.972V377.394H351.616V375.856Z" fill="#D6B89A"/>
<path d="M169.636 376.623H141.996V378.161H169.636V376.623Z" fill="#D6B89A"/>
<path d="M178.796 218.872C179.998 219.939 181.36 220.618 182.89 220.91C184.417 221.202 185.907 221.246 187.353 221.034C188.8 220.826 190.074 220.369 191.181 219.668C192.284 218.967 192.952 218.134 193.175 217.181C192.353 217.714 191.524 218.061 190.691 218.215C189.859 218.375 189.081 218.339 188.361 218.109C187.642 217.882 186.999 217.51 186.433 216.991C185.867 216.476 185.472 215.808 185.25 214.997C184.658 212.93 184.523 210.454 184.84 207.565C185.155 204.676 185.794 201.685 186.747 198.58C187.704 195.479 188.902 192.419 190.344 189.395C191.787 186.371 193.339 183.646 194.994 181.214C196.652 178.781 198.357 176.813 200.114 175.294C201.867 173.778 203.522 172.96 205.067 172.839C206.549 172.788 207.561 173.511 208.098 175.009C208.635 176.506 208.821 178.54 208.653 181.108C208.485 183.675 208.058 186.645 207.371 190.019C206.681 193.398 205.837 196.889 204.836 200.494C203.832 204.102 202.751 207.7 201.586 211.279C200.421 214.862 199.296 218.16 198.208 221.169C197.119 224.182 196.144 226.775 195.286 228.956C194.428 231.14 193.818 232.645 193.46 233.477C192.799 234.894 192.908 236.122 193.785 237.166C194.661 238.211 195.79 239.007 197.167 239.558C198.54 240.11 199.891 240.38 201.217 240.362C202.539 240.347 203.317 239.956 203.547 239.189C206.827 227.882 210.183 218.262 213.616 210.329C217.05 202.4 220.315 195.721 223.415 190.301C225.296 186.948 227.155 184.227 228.985 182.134C230.819 180.049 232.371 178.789 233.649 178.365C234.924 177.941 235.786 178.493 236.227 180.027C236.669 181.561 236.476 184.267 235.643 188.153C234.986 191.466 234.08 195.07 232.926 198.967C231.772 202.868 230.621 206.812 229.471 210.804C228.32 214.8 227.331 218.737 226.498 222.623C225.669 226.509 225.245 230.066 225.231 233.291C225.278 236.388 225.899 238.945 227.101 240.953C227.444 241.531 227.816 242.053 228.207 242.535C232.042 249.284 264.021 253.725 282.826 247.44C290.774 244.785 297.735 239.92 305.313 236.801C320.203 230.647 336.423 230.077 352.427 231.501C346.459 228.54 339.973 226.476 333.249 225.41C333.844 224.854 334.44 224.244 335.039 223.562C336.839 221.505 338.581 219.215 340.269 216.688C341.956 214.161 343.545 211.593 345.035 208.978C346.525 206.363 347.844 203.996 348.998 201.867C349.239 201.418 349.209 200.991 348.903 200.589C348.6 200.191 348.198 199.873 347.705 199.636C347.212 199.402 346.689 199.278 346.142 199.267C345.594 199.256 345.225 199.38 345.042 199.639C341.401 206.283 338.322 211.323 335.795 214.763C333.267 218.204 331.361 219.979 330.072 220.088C329.619 220.103 329.36 219.61 329.29 218.598C329.221 217.59 329.462 216.096 330.002 214.117C330.547 212.137 331.43 209.701 332.65 206.816C333.87 203.927 335.514 200.611 337.577 196.871C338.001 196.162 337.928 195.421 337.354 194.65C336.777 193.88 336.025 193.23 335.105 192.693C334.18 192.156 333.216 191.842 332.212 191.751C331.208 191.663 330.488 191.908 330.061 192.492C329.316 193.339 328.618 194.205 327.972 195.078C327.325 195.954 326.657 196.783 325.978 197.569C324.86 196.977 323.801 196.367 322.811 195.735C321.821 195.107 320.835 194.636 319.856 194.322C318.874 194.011 317.87 193.935 316.843 194.099C315.813 194.263 314.703 194.837 313.512 195.83C311.884 197.28 310.255 199.139 308.622 201.411C306.99 203.682 305.529 206.122 304.232 208.726C302.936 211.334 301.851 214.015 300.982 216.761C300.112 219.511 299.619 222.09 299.513 224.496C299.418 225.45 299.82 226.334 300.722 227.155C301.062 227.466 301.427 227.743 301.803 228.006C296.497 229.778 291.384 232.692 286.57 235.106C270.069 243.59 244.376 245.628 237.466 241.969C236.622 240.851 236.096 239.288 235.881 237.279C235.639 235.011 235.734 232.305 236.173 229.16C236.611 226.016 237.232 222.627 238.039 218.993C238.846 215.362 239.796 211.615 240.884 207.751C241.972 203.887 243.035 200.103 244.065 196.396C245.267 192.057 246.085 188.263 246.519 185.023C246.954 181.784 247.049 179.063 246.812 176.857C246.571 174.654 246.056 172.901 245.267 171.601C244.478 170.301 243.495 169.421 242.316 168.953C239.956 168.026 237.677 167.92 235.471 168.628C233.269 169.34 231.165 170.6 229.164 172.408C227.159 174.22 225.285 176.371 223.532 178.865C221.779 181.364 220.205 183.902 218.81 186.48C217.415 189.059 216.195 191.506 215.147 193.818C214.099 196.133 213.277 197.963 212.678 199.311C212.97 198.478 213.39 197.105 213.938 195.187C214.482 193.27 214.957 191.137 215.359 188.781C215.757 186.429 216.027 183.982 216.162 181.451C216.297 178.92 216.056 176.634 215.435 174.6C214.811 172.569 213.755 170.896 212.254 169.592C210.753 168.285 208.617 167.682 205.845 167.781C203.328 167.869 200.91 168.511 198.598 169.698C196.279 170.889 194.095 172.481 192.032 174.483C189.972 176.484 188.051 178.785 186.272 181.375C184.49 183.968 182.905 186.71 181.524 189.603C180.14 192.499 178.971 195.465 178.014 198.504C177.058 201.539 176.338 204.46 175.856 207.258C175.378 210.183 175.447 212.583 176.064 214.46C176.681 216.337 177.587 217.806 178.789 218.868M313.622 225.209C314.641 223.912 315.623 222.619 316.558 221.33C317.541 219.968 318.45 218.686 319.279 217.488C320.108 216.286 320.894 215.234 321.639 214.321C321.237 215.793 320.875 217.415 320.55 219.197C320.229 220.979 320.149 222.375 320.313 223.379C320.364 223.792 320.499 224.204 320.711 224.617C320.225 224.632 319.74 224.643 319.254 224.668C317.373 224.763 315.492 224.949 313.622 225.209ZM309.623 217.071C310.149 215.505 310.846 213.788 311.716 211.922C312.585 210.059 313.615 208.156 314.805 206.217C315.996 204.278 317.307 202.587 318.742 201.144C319.425 200.363 319.995 200.027 320.452 200.136C320.908 200.246 321.259 200.567 321.504 201.097C321.748 201.626 321.883 202.203 321.905 202.835C321.927 203.467 321.847 203.912 321.661 204.172C320.927 205.333 319.973 206.728 318.808 208.35C317.64 209.972 316.434 211.597 315.203 213.218C313.969 214.844 312.778 216.326 311.632 217.663C310.485 219 309.564 219.964 308.878 220.559C308.852 219.8 309.101 218.638 309.626 217.071" fill="#D6B89A"/>
<path d="M243.846 214.57C243.207 216.524 242.761 218.514 242.509 220.545C242.257 222.579 242.422 224.438 242.999 226.122C243.368 227.375 244.182 228.514 245.446 229.544C246.709 230.574 248.141 231.41 249.748 232.049C251.355 232.689 252.951 233.09 254.54 233.255C256.128 233.419 257.429 233.196 258.44 232.594C259.642 231.922 260.727 231.012 261.687 229.869C262.648 228.73 263.477 227.564 264.182 226.367C264.879 225.172 265.467 224.015 265.946 222.89C266.42 221.765 266.811 220.881 267.111 220.238C268.871 220.746 270.398 221.009 271.691 221.023C272.403 221.034 273.144 221.001 273.915 220.928C273.787 222.163 273.699 223.342 273.656 224.46C273.59 226.231 273.674 227.681 273.908 228.814C274.138 229.818 274.748 230.647 275.741 231.308C276.731 231.969 277.863 232.418 279.13 232.656C280.398 232.897 281.676 232.944 282.961 232.805C284.247 232.667 285.27 232.298 286.022 231.699C287.406 230.64 288.915 228.974 290.544 226.703C292.172 224.431 293.768 221.925 295.317 219.183C296.866 216.443 298.268 213.642 299.524 210.782C300.781 207.926 301.719 205.348 302.351 203.047C302.921 200.878 302.914 198.807 302.326 196.835C301.738 194.862 300.872 193.204 299.725 191.853C298.578 190.505 297.271 189.556 295.795 189.008C294.324 188.46 293.012 188.46 291.873 189.008C293.794 190.33 294.923 192.156 295.266 194.483C295.606 196.813 295.452 199.347 294.809 202.086C294.163 204.829 293.166 207.612 291.811 210.443C290.459 213.273 289.079 215.837 287.673 218.131C286.267 220.424 284.977 222.32 283.805 223.814C282.633 225.311 281.884 226.096 281.563 226.169C281.457 225.099 281.61 223.416 282.012 221.126C282.417 218.836 282.91 216.447 283.502 213.96C284.094 211.473 284.704 209.124 285.335 206.922C285.967 204.72 286.493 203.168 286.913 202.265C287.088 201.816 286.88 201.334 286.281 200.819C285.682 200.304 284.956 199.87 284.105 199.523C283.25 199.172 282.373 198.967 281.464 198.905C280.558 198.843 279.886 199.04 279.452 199.497C279.075 199.891 278.655 200.71 278.181 201.962C277.706 203.211 277.231 204.745 276.745 206.564C276.26 208.383 275.781 210.344 275.306 212.448C274.978 213.905 274.711 215.351 274.474 216.794C273.491 216.94 272.498 216.962 271.49 216.852C270.16 216.71 269.2 216.458 268.605 216.1C269.039 213.807 269.393 211.582 269.675 209.424C269.952 207.265 269.89 205.023 269.485 202.696C269.072 200.184 268.002 198.197 266.271 196.74C264.536 195.282 262.648 194.307 260.595 193.811C258.543 193.314 256.603 193.244 254.773 193.591C252.947 193.942 251.757 194.632 251.216 195.662C250.552 196.951 250.274 198.27 250.387 199.625C250.5 200.98 250.709 202.317 251.015 203.635C250.701 203.964 250.358 204.26 249.982 204.523C249.602 204.789 249.259 205.085 248.945 205.414C248.072 206.268 247.162 207.517 246.22 209.161C245.278 210.808 244.485 212.605 243.842 214.555M259.956 198.967C260.23 199.402 260.497 200.1 260.76 201.075C261.019 202.046 261.223 203.146 261.362 204.373C261.501 205.6 261.53 206.834 261.446 208.069C261.362 209.303 261.139 210.373 260.785 211.268C259.598 208.781 258.919 206.433 258.743 204.227C258.568 202.021 258.974 200.268 259.96 198.967M250.771 223.996C250.898 222.188 251.172 220.377 251.596 218.562C252.02 216.747 252.458 215.132 252.925 213.726C253.393 212.32 253.78 211.451 254.094 211.126C255.402 213.419 257.21 215.282 259.525 216.717C258.7 218.963 257.725 221.082 256.603 223.083C255.478 225.085 253.685 226.856 251.22 228.397C250.793 227.276 250.646 225.811 250.774 224.004" fill="#D6B89A"/>
<path d="M380.736 261.391C379.001 260.694 377.485 260.489 376.192 260.763C374.443 261.165 372.427 262.049 370.137 263.407C367.85 264.77 365.553 266.337 363.249 268.108C360.94 269.887 358.665 271.676 356.408 273.495C354.155 275.31 352.179 276.829 350.495 278.053C348.578 276.179 347.416 273.769 347.011 270.818C346.605 267.867 346.675 264.996 347.219 262.206C347.763 259.416 348.731 256.983 350.122 254.912C351.518 252.838 353.099 251.782 354.878 251.742C354.721 252.217 354.491 252.871 354.18 253.722C353.866 254.569 353.603 255.46 353.391 256.395C353.179 257.326 353.015 258.28 352.898 259.248C352.781 260.219 352.843 261.063 353.084 261.779C353.439 262.761 353.972 263.663 354.691 264.481C355.404 265.299 356.178 265.949 357.011 266.439C357.843 266.928 358.665 267.279 359.479 267.494C360.287 267.71 360.922 267.71 361.375 267.494C360.615 266.085 360.641 264.182 361.448 261.782C362.252 259.386 363.449 256.892 365.038 254.299C366.627 251.709 368.365 249.24 370.254 246.899C372.142 244.562 373.793 242.838 375.21 241.724C375.827 241.22 375.834 240.395 375.239 239.244C374.64 238.097 373.807 236.991 372.744 235.921C371.682 234.854 370.568 234.018 369.399 233.415C368.23 232.813 367.335 232.765 366.722 233.269C365.677 234.354 364.319 235.902 362.639 237.9C360.962 239.905 359.049 242.911 356.912 246.918C356.222 246.509 355.276 246.03 354.063 245.479C352.851 244.927 351.532 244.474 350.101 244.116C348.673 243.766 347.252 243.62 345.853 243.674C344.454 243.733 343.264 244.116 342.285 244.832C340.338 246.348 338.614 248.105 337.124 250.091C335.63 252.078 334.454 254.207 333.592 256.472C332.727 258.736 332.223 261.088 332.073 263.528C331.953 265.54 332.146 267.513 332.625 269.452C331.701 271.315 330.704 273.181 329.622 275.054C327.957 277.929 326.215 280.62 324.389 283.14C322.559 285.661 320.685 287.907 318.775 289.879C316.858 291.855 315.054 293.407 313.359 294.539C313.217 292.625 313.465 290.273 314.104 287.472C314.74 284.674 315.507 281.753 316.409 278.707C317.307 275.664 318.264 272.75 319.276 269.971C320.287 267.195 321.098 264.865 321.712 262.984C322.095 261.855 321.85 260.752 320.974 259.668C320.097 258.59 318.932 257.688 317.479 256.969C316.018 256.253 314.466 255.814 312.818 255.661C311.168 255.508 309.805 255.789 308.735 256.508C307.132 257.637 305.499 258.996 303.838 260.581C302.176 262.169 300.551 263.944 298.962 265.891C297.37 267.845 295.792 269.93 294.225 272.151C292.658 274.379 291.201 276.592 289.868 278.798C289.926 278.338 290.262 277.439 290.865 276.114C291.471 274.784 292.202 273.243 293.053 271.483C293.907 269.722 294.798 267.827 295.726 265.785C296.654 263.747 297.512 261.735 298.305 259.752C298.531 259.003 298.162 258.159 297.205 257.221C296.245 256.286 295.043 255.544 293.6 255.011C292.158 254.478 290.712 254.259 289.269 254.364C287.826 254.47 286.826 255.186 286.267 256.512C284.919 259.266 283.677 262.18 282.53 265.23C282.311 265.329 282.136 265.456 282.026 265.624C277.129 275.427 272.951 282.885 269.488 287.998C266.022 293.111 263.364 295.785 261.508 296.011C260.854 296.058 260.453 295.357 260.299 293.9C260.146 292.446 260.409 290.273 261.085 287.381C261.764 284.492 262.903 280.92 264.51 276.68C266.117 272.436 268.309 267.553 271.088 262.031C271.665 260.982 271.515 259.912 270.642 258.831C269.762 257.75 268.645 256.848 267.282 256.125C265.916 255.398 264.507 255 263.049 254.92C261.592 254.847 260.57 255.241 259.978 256.11C258.948 257.378 257.987 258.663 257.1 259.963C256.212 261.267 255.292 262.505 254.353 263.674C252.703 262.878 251.143 262.056 249.675 261.198C248.207 260.343 246.757 259.719 245.325 259.317C243.89 258.919 242.433 258.868 240.957 259.156C239.478 259.448 237.904 260.343 236.238 261.841C233.959 264.028 231.706 266.808 229.474 270.175C229.095 270.745 228.737 271.333 228.371 271.917C228.068 271.994 227.809 272.14 227.601 272.377C226.092 276.062 224.029 279.883 221.421 283.831C218.81 287.782 216.122 291.351 213.357 294.532C210.596 297.717 207.908 300.321 205.293 302.344C202.678 304.375 200.614 305.302 199.106 305.138C198.065 305.028 197.452 304.272 197.254 302.866C197.054 301.46 197.032 299.835 197.174 297.987C197.32 296.146 197.609 294.313 198.032 292.494C198.463 290.675 198.872 289.291 199.274 288.345C201.002 288.955 202.572 289.294 203.985 289.375C205.395 289.455 207.013 289.2 208.843 288.608C211.389 287.593 213.624 285.803 215.541 283.232C217.459 280.664 219.036 277.932 220.278 275.043C221.513 272.158 222.437 269.408 223.043 266.797C223.642 264.185 223.912 262.381 223.839 261.373C223.868 259.262 222.718 257.608 220.38 256.402C218.726 255.61 217.247 254.869 215.932 254.186C214.617 253.506 213.339 253.002 212.101 252.681C210.859 252.359 209.683 252.264 208.569 252.389C207.455 252.516 206.268 252.951 205.012 253.682C202.956 255.022 200.808 257.064 198.577 259.795C196.97 261.76 195.439 263.941 193.982 266.326C193.942 266.329 193.905 266.318 193.861 266.329C190.618 266.844 187.616 267.706 184.851 268.919C182.083 270.131 179.019 271.457 175.659 272.892C173.986 270.54 171.754 268.528 168.964 266.855C166.174 265.182 163.416 264.306 160.692 264.233C161.744 263.239 163.051 261.95 164.622 260.369C166.188 258.787 167.766 257.02 169.359 255.069C170.947 253.119 172.452 251.015 173.88 248.755C175.304 246.498 176.396 244.146 177.156 241.706C177.909 239.27 177.795 236.757 176.813 234.171C175.827 231.586 174.296 229.248 172.222 227.152C170.147 225.059 167.704 223.357 164.892 222.053C162.08 220.749 159.224 220.11 156.324 220.139C152.679 220.227 148.76 221.111 144.582 222.795C140.396 224.478 136.255 226.732 132.153 229.551C128.055 232.378 124.096 235.555 120.283 239.087C116.471 242.626 113.107 246.242 110.196 249.938C107.285 253.638 104.948 257.246 103.195 260.767C101.438 264.291 100.572 267.421 100.587 270.171C100.634 273.378 101.621 275.942 103.542 277.859C105.463 279.78 107.596 281.07 109.94 281.72C112.281 282.374 114.462 282.395 116.474 281.789C118.49 281.183 119.615 279.905 119.849 277.965C116.529 278.666 114.517 278.082 113.815 276.209C113.118 274.335 113.483 271.694 114.918 268.29C116.35 264.883 118.735 260.997 122.066 256.625C125.397 252.257 129.389 247.973 134.041 243.784C132.862 246.804 131.412 250.712 129.71 255.515C128.001 260.314 126.306 265.277 124.622 270.394C122.939 275.518 121.368 280.536 119.904 285.456C118.443 290.376 117.314 294.47 116.522 297.735C116.08 299.327 116.27 300.664 117.099 301.749C117.928 302.833 119.016 303.648 120.367 304.188C121.427 304.572 122.537 304.718 123.702 304.63C124.867 304.543 125.999 303.684 127.095 302.044C127.679 301.084 128.698 299.634 130.145 297.695C131.594 295.759 133.289 293.663 135.232 291.409C137.175 289.159 139.253 286.851 141.466 284.488C143.68 282.125 145.915 280.036 148.168 278.221C150.422 276.406 152.591 275.007 154.673 274.028C156.755 273.049 158.563 272.779 160.093 273.217C160.856 273.436 161.452 273.897 161.879 274.598C162.302 275.303 162.617 276.011 162.81 276.731C163.004 277.45 163.102 278.133 163.102 278.772C163.102 279.415 163.058 279.784 162.974 279.883C159.483 282.063 155.634 284.824 151.43 288.155C147.226 291.489 143.07 295.12 138.957 299.042C134.841 302.968 130.977 307.081 127.362 311.38C123.746 315.678 120.773 319.838 118.446 323.859C115.883 328.446 114.736 332.336 115.024 335.525C115.305 338.713 116.595 340.977 118.896 342.321C121.193 343.665 124.279 343.939 128.158 343.15C132.033 342.361 136.233 340.291 140.762 336.931C145.561 333.457 150.133 329.433 154.483 324.849C158.826 320.265 162.664 315.47 165.995 310.459C169.322 305.448 172.047 300.434 174.158 295.419C176.269 290.405 177.445 285.686 177.682 281.267C179.38 280.23 181.641 279.097 184.457 277.881C185.932 277.246 187.423 276.661 188.931 276.121C188.317 277.531 187.722 278.962 187.171 280.431C185.68 284.39 184.629 288.184 184 291.8C183.38 295.419 183.274 298.754 183.683 301.796C184.095 304.838 185.253 307.205 187.156 308.9C188.051 309.659 189.19 310.448 190.56 311.259C191.933 312.073 193.434 312.767 195.067 313.334C196.699 313.9 198.317 314.217 199.913 314.283C201.509 314.349 202.981 313.969 204.325 313.133C207.185 311.274 210.059 308.954 212.944 306.171C214.584 304.594 216.166 302.921 217.703 301.172C217.619 302.147 217.568 303.107 217.564 304.042C217.477 305.423 218.109 306.683 219.456 307.822C220.804 308.962 222.345 309.857 224.08 310.507C225.811 311.16 227.546 311.511 229.285 311.569C231.019 311.624 232.279 311.208 233.057 310.328C234.704 308.556 236.271 306.654 237.765 304.619C239.251 302.585 240.672 300.554 242.024 298.531C243.371 296.504 244.617 294.605 245.749 292.826C246.881 291.048 247.962 289.481 248.985 288.118C248.488 290.266 248.053 292.636 247.681 295.229C247.312 297.822 247.272 299.846 247.568 301.288C247.739 302.377 248.309 303.458 249.281 304.532C250.248 305.609 251.392 306.486 252.706 307.169C254.021 307.852 255.453 308.253 257.009 308.363C258.561 308.48 260.011 308.166 261.362 307.424C263.886 306.047 266.388 303.823 268.878 300.752C270.737 298.458 272.542 295.978 274.295 293.312C274.171 293.834 274.043 294.367 273.922 294.879C273.071 298.564 272.447 301.519 272.049 303.75C271.829 304.59 272.286 305.383 273.418 306.124C274.55 306.869 275.832 307.413 277.26 307.768C278.696 308.125 280.105 308.224 281.497 308.074C282.888 307.928 283.791 307.424 284.196 306.57C285.069 304.396 286.34 301.646 288.012 298.312C289.685 294.981 291.544 291.588 293.586 288.14C295.624 284.689 297.702 281.42 299.817 278.33C301.928 275.241 303.86 272.852 305.609 271.165C305.379 271.826 304.992 273.25 304.451 275.445C303.911 277.637 303.388 280.084 302.884 282.779C302.384 285.478 302.037 288.159 301.862 290.828C301.683 293.502 301.836 295.598 302.326 297.121C302.578 298.02 303.345 298.882 304.623 299.703C305.901 300.525 307.351 301.153 308.973 301.584C310.598 302.015 312.252 302.238 313.94 302.249C315.623 302.26 317.095 301.902 318.352 301.164C320.236 300.021 322.23 298.177 324.338 295.635C326.445 293.096 328.483 290.266 330.455 287.14C332.427 284.017 334.246 280.788 335.923 277.458C336.05 277.202 336.167 276.961 336.291 276.709C336.536 277.005 336.788 277.297 337.055 277.582C338.936 279.598 340.802 281.727 342.654 283.977C339.308 286.88 336.047 289.963 332.869 293.224C329.688 296.482 327.157 299.922 325.269 303.546C324.042 305.927 323.512 307.987 323.688 309.714C323.863 311.442 324.48 312.888 325.55 314.046C326.62 315.203 328.041 316.04 329.809 316.551C331.576 317.059 333.468 317.314 335.481 317.304C337.497 317.293 339.535 317.004 341.602 316.438C343.669 315.875 345.502 315.072 347.113 314.038C349.527 312.486 351.777 310.627 353.866 308.454C355.955 306.285 357.588 303.987 358.767 301.559C359.947 299.134 360.535 296.683 360.546 294.21C360.546 291.734 359.761 289.316 358.183 286.961C357.664 286.263 357.149 285.613 356.634 285.01C356.119 284.408 355.604 283.758 355.086 283.06C355.769 282.184 357.281 280.767 359.618 278.805C361.956 276.844 364.498 274.824 367.248 272.743C369.994 270.661 372.668 268.769 375.257 267.067C377.847 265.365 379.83 264.324 381.21 263.948C381.762 263.82 382.2 263.787 382.536 263.849C382.865 263.919 383.128 263.97 383.318 263.999C383.508 264.032 383.672 264.021 383.807 263.963C383.942 263.908 384.183 263.681 384.53 263.287C383.734 262.706 382.474 262.067 380.732 261.366M202.725 279.035C203.576 277.231 204.603 275.277 205.804 273.17C207.006 271.066 208.262 269.068 209.577 267.184C210.892 265.299 211.988 264.006 212.871 263.298C212.798 264.865 212.492 266.764 211.958 269.003C211.418 271.241 210.64 273.385 209.621 275.431C208.598 277.476 207.419 279.189 206.067 280.573C204.716 281.957 203.193 282.574 201.498 282.421C201.465 281.968 201.871 280.836 202.722 279.032M156.576 252.246C153.928 255.698 151.244 258.992 148.523 262.122C145.805 265.255 143.278 268.097 140.933 270.657C138.592 273.214 136.908 275.124 135.879 276.391C136.653 274.225 137.526 271.782 138.497 269.046C139.469 266.318 140.455 263.517 141.459 260.646C142.464 257.776 143.501 254.953 144.56 252.17C145.619 249.39 146.667 246.812 147.712 244.441C148.03 243.685 148.022 242.955 147.69 242.243C147.358 241.534 146.839 240.906 146.149 240.362C145.451 239.818 144.673 239.394 143.808 239.087C142.942 238.788 142.23 238.609 141.66 238.558C143.515 237.046 145.542 235.661 147.748 234.398C149.947 233.138 152.094 232.086 154.187 231.242C156.28 230.402 158.201 229.8 159.954 229.442C161.707 229.087 163.026 229.146 163.902 229.632C165.845 230.588 166.645 232.228 166.302 234.544C165.955 236.863 164.91 239.529 163.164 242.546C161.422 245.563 159.22 248.795 156.576 252.243M157.372 298.326C155.995 300.627 154.308 303.136 152.306 305.85C150.305 308.564 148.095 311.314 145.681 314.108C143.263 316.898 140.882 319.528 138.534 321.993C136.189 324.458 133.957 326.617 131.846 328.465C129.735 330.316 127.957 331.617 126.514 332.365C127.051 329.487 128.585 326.16 131.116 322.398C133.651 318.64 136.605 314.893 139.984 311.16C143.362 307.428 146.872 303.914 150.517 300.62C154.158 297.326 157.314 294.714 159.98 292.771C159.614 294.174 158.745 296.026 157.372 298.326ZM248.459 273.469C247.462 275.193 246.162 277.26 244.562 279.667C242.958 282.078 241.311 284.492 239.617 286.906C237.918 289.324 236.279 291.533 234.693 293.527C233.108 295.522 231.834 296.968 230.87 297.866C230.789 296.771 231.085 295.076 231.761 292.779C232.433 290.485 233.349 287.965 234.507 285.219C235.661 282.479 237.046 279.671 238.663 276.8C240.278 273.93 242.082 271.417 244.076 269.251C245.018 268.082 245.826 267.564 246.49 267.699C247.155 267.834 247.681 268.28 248.061 269.028C248.444 269.781 248.671 270.61 248.736 271.523C248.802 272.436 248.711 273.086 248.455 273.469M346.788 295.379C346.043 297.359 344.969 299.316 343.57 301.256C342.164 303.195 340.605 304.89 338.885 306.343C337.168 307.8 335.66 308.622 334.359 308.805C335.32 305.342 336.985 302.176 339.348 299.294C341.711 296.416 344.239 293.549 346.934 290.693C347.581 291.836 347.533 293.396 346.788 295.379Z" fill="#D6B89A"/>
</g>
<defs>
<clipPath id="clip0_72_4">
<rect width="420" height="420" fill="white" transform="translate(40 40)"/>
</clipPath>
</defs>
</svg>
