<svg width="500" height="500" viewBox="0 0 500 500" fill="none" xmlns="http://www.w3.org/2000/svg">
<path fill-rule="evenodd" clip-rule="evenodd" d="M234.249 195.019C242.052 195.019 249.398 196.363 256.276 199.061C263.155 201.749 269.141 205.419 274.223 210.062C279.305 214.716 283.311 220.167 286.238 226.438C289.166 232.708 290.624 239.416 290.624 246.571C290.624 253.629 289.166 260.271 286.238 266.497C283.311 272.724 279.305 278.154 274.223 282.797C269.141 287.44 263.155 291.11 256.276 293.808C249.398 296.496 242.052 297.85 234.249 297.85C226.445 297.85 219.132 296.496 212.297 293.808C205.473 291.11 199.509 287.44 194.427 282.797C189.344 278.154 185.339 272.724 182.412 266.497C179.484 260.271 178.026 253.629 178.026 246.571C178.026 239.416 179.484 232.708 182.412 226.438C185.339 220.167 189.344 214.716 194.427 210.062C199.509 205.419 205.473 201.749 212.297 199.061C219.132 196.363 226.445 195.019 234.249 195.019ZM234.249 283.496C239.592 283.496 244.653 282.524 249.42 280.579C254.198 278.635 258.355 276.002 261.903 272.67C265.44 269.338 268.237 265.427 270.294 260.937C272.351 256.447 273.374 251.662 273.374 246.571C273.374 241.481 272.351 236.674 270.294 232.129C268.237 227.596 265.44 223.641 261.903 220.265C258.355 216.89 254.198 214.224 249.42 212.291C244.653 210.346 239.592 209.374 234.249 209.374C228.905 209.374 223.877 210.346 219.154 212.291C214.43 214.224 210.294 216.89 206.757 220.265C203.209 223.641 200.412 227.596 198.356 232.129C196.31 236.674 195.275 241.481 195.275 246.571C195.275 251.662 196.31 256.447 198.356 260.937C200.412 265.427 203.209 269.338 206.757 272.67C210.294 276.002 214.43 278.635 219.154 280.579C223.877 282.524 228.905 283.496 234.249 283.496ZM369.743 214.824L377.517 196.549L424 299.107H406.464L397.121 277.671H344.74L350.991 262.841H390.666L369.743 214.824ZM90.5632 234.587V299.107H75V195.019L171.198 299.107H148.484L90.5632 234.587ZM154.709 258.381V215.841L171.198 196.691V279.148L154.709 258.381ZM325.611 260.642L364.073 154L373.546 191.988L325.611 299.107L291.415 221.555H308.513L325.611 260.642ZM240.023 341.976C241.408 341.976 242.678 341.676 243.837 341.08C244.992 340.484 245.939 339.685 246.675 338.686L249.5 340.594C248.418 341.927 247.061 342.984 245.426 343.766C243.793 344.549 241.991 344.94 240.023 344.94C238.4 344.94 236.875 344.657 235.446 344.088C234.018 343.522 232.775 342.753 231.713 341.784C230.654 340.815 229.814 339.681 229.198 338.378C228.581 337.077 228.274 335.683 228.274 334.196C228.274 332.709 228.581 331.314 229.198 330.013C229.814 328.711 230.654 327.576 231.713 326.607C232.775 325.638 234.018 324.869 235.446 324.303C236.875 323.734 238.4 323.451 240.023 323.451C241.991 323.451 243.793 323.843 245.426 324.625C247.061 325.408 248.418 326.464 249.5 327.797L246.675 329.705C245.939 328.706 244.992 327.907 243.837 327.311C242.678 326.715 241.408 326.416 240.023 326.416C238.897 326.416 237.842 326.621 236.859 327.033C235.873 327.445 235.013 328.002 234.277 328.706C233.543 329.41 232.958 330.232 232.525 331.171C232.091 332.11 231.876 333.118 231.876 334.196C231.876 335.273 232.091 336.281 232.525 337.22C232.958 338.159 233.543 338.981 234.277 339.685C235.013 340.39 235.873 340.949 236.859 341.359C237.842 341.771 238.897 341.976 240.023 341.976ZM282.389 338.231V341.918H292.972L290.078 345H278.949V338.231H282.389ZM278.949 335.469V332.534H292.972L290.078 335.469H278.949ZM278.949 329.772V323.571H292.972L290.078 326.595H282.389V329.772H278.949ZM195.441 344.97V327.486L198.912 323.451V344.97H195.441ZM269.845 327.456L273.317 323.421V344.91H269.845V335.397H260.595V332.64H269.845V327.456ZM254.413 344.94V327.456L257.884 323.421V344.94H254.413ZM189.808 323.451L180.906 334.299L189.808 345H185.848L178.984 336.638L177.93 337.924L174.49 342.091V327.486L177.93 323.451V333.199L185.848 323.451H189.808ZM301.883 331.346V344.94H298.604V323.009L318.873 344.94H314.087L301.883 331.346ZM315.399 336.359V327.396L318.873 323.361V340.735L315.399 336.359ZM204.545 326.473L207.863 323.451H228.274L224.355 326.473H218.095V344.94H214.653V326.473H204.545Z" fill="url(#paint0_linear_72_2)"/>
<defs>
<linearGradient id="paint0_linear_72_2" x1="142.548" y1="215.477" x2="390.511" y2="354.53" gradientUnits="userSpaceOnUse">
<stop stop-color="#C9A581"/>
<stop offset="1" stop-color="#E4CCB4"/>
</linearGradient>
</defs>
</svg>
