<svg width="1349" height="369" viewBox="0 0 1349 369" fill="none" xmlns="http://www.w3.org/2000/svg">
<path d="M1216.6 289.326V87.8093H1265.19V132.321C1270.32 120.451 1278.41 109.391 1289.48 99.1396C1300.28 89.1582 1315.66 84.1675 1335.64 84.1675C1339.69 84.1675 1344.14 84.5721 1349 85.3814V135.963C1342.79 134.884 1335.5 134.344 1327.14 134.344C1305.81 134.344 1290.29 139.874 1280.57 150.935C1270.86 161.995 1266 179.8 1266 204.349V289.326H1216.6Z" fill="#5BEB00"/>
<path d="M987.801 188.567C987.801 157.274 997.249 131.646 1016.14 111.683C1035.31 91.7206 1059.74 81.7393 1089.43 81.7393C1119.12 81.7393 1143.42 91.7206 1162.31 111.683C1181.48 131.646 1191.06 157.274 1191.06 188.567C1191.06 220.13 1181.48 245.893 1162.31 265.855C1143.15 285.548 1118.85 295.395 1089.43 295.395C1060.28 295.395 1035.98 285.279 1016.55 265.046C997.384 244.814 987.801 219.321 987.801 188.567ZM1140.04 189.376C1140.04 167.795 1135.32 151.204 1125.87 139.604C1116.69 127.735 1104.55 121.8 1089.43 121.8C1073.77 121.8 1061.36 127.735 1052.18 139.604C1043.27 151.204 1038.82 167.795 1038.82 189.376C1038.82 210.688 1043.27 227.009 1052.18 238.339C1061.36 249.669 1073.77 255.335 1089.43 255.335C1105.09 255.335 1117.37 249.669 1126.28 238.339C1135.45 227.009 1140.04 210.688 1140.04 189.376Z" fill="#5BEB00"/>
<path d="M782.939 222.153V87.8091H832.337V210.418C832.337 239.553 843.944 254.121 867.158 254.121C884.433 254.121 896.31 247.242 902.789 233.483C909.537 219.995 912.911 203 912.911 182.497V87.8091H962.308V289.325H913.316V256.144C897.93 282.311 875.796 295.395 846.913 295.395C826.398 295.395 810.607 288.921 799.54 275.972C788.473 262.753 782.939 244.814 782.939 222.153Z" fill="#5BEB00"/>
<path d="M696.13 368.233V297.419V261C689.922 270.981 681.149 279.209 669.812 285.684C658.745 292.158 645.923 295.395 631.347 295.395C605.703 295.395 585.053 285.684 569.397 266.26C553.742 246.567 545.914 220.67 545.914 188.567C545.914 156.465 553.742 130.567 569.397 110.874C585.053 91.1815 605.703 81.335 631.347 81.335C646.193 81.335 659.284 84.707 670.621 91.4512C682.229 97.9256 691.271 106.154 697.75 116.135V87.8094H745.527V368.233H696.13ZM699.774 188.567C699.774 166.986 694.915 150.26 685.198 138.391C675.75 126.251 663.198 120.181 647.542 120.181C631.617 120.181 619.2 125.847 610.292 137.177C601.384 148.507 596.93 165.637 596.93 188.567C596.93 233.888 613.801 256.549 647.542 256.549C663.468 256.549 676.155 250.749 685.603 239.149C695.05 227.279 699.774 210.419 699.774 188.567Z" fill="#5BEB00"/>
<path d="M469.597 289.326V6.06982H518.995V289.326H469.597Z" fill="#5BEB00"/>
<path d="M250.695 188.567C250.695 157.004 259.872 131.376 278.228 111.683C296.853 91.7206 320.202 81.7393 348.275 81.7393C376.887 81.7393 399.832 91.4509 417.107 110.874C434.383 130.028 443.021 154.846 443.021 185.33C443.021 189.646 442.751 194.772 442.211 200.707H299.687C300.497 219.321 305.356 233.349 314.264 242.79C323.171 251.962 334.913 256.549 349.489 256.549C371.624 256.549 388.09 244.409 398.887 220.13L443.425 236.721C427.769 275.837 396.322 295.395 349.085 295.395C319.122 295.395 295.233 285.953 277.418 267.069C259.603 247.916 250.695 221.749 250.695 188.567ZM301.307 164.288H393.218C392.408 149.99 387.955 138.795 379.857 130.702C372.029 122.609 361.501 118.562 348.275 118.562C335.858 118.562 325.331 122.609 316.693 130.702C308.325 138.795 303.196 149.99 301.307 164.288Z" fill="#5BEB00"/>
<path d="M0 212.037L49.8022 193.019C54.391 210.823 62.8939 225.121 75.3107 235.912C87.9974 246.432 104.328 251.693 124.303 251.693C143.198 251.693 157.505 248.186 167.222 241.172C176.94 233.888 181.798 224.042 181.798 211.632C181.798 191.13 165.603 178.046 133.211 172.381L97.1751 166.312C69.6421 161.456 48.8575 152.419 34.8211 139.2C21.0546 125.981 14.1714 107.502 14.1714 83.7628C14.1714 59.7535 23.7539 39.7907 42.919 23.8744C62.354 7.95814 88.2674 0 120.659 0C151.161 0 175.995 6.87907 195.16 20.6372C214.325 34.1256 227.012 51.1209 233.22 71.6232L184.228 90.6418C174.51 59.3488 152.781 43.7023 119.039 43.7023C102.574 43.7023 89.8869 47.2093 80.9792 54.2232C72.3414 61.2372 68.0226 70.2744 68.0226 81.3349C68.0226 99.9488 81.3841 111.684 108.107 116.539L144.953 123.014C173.835 127.87 196.24 137.446 212.166 151.744C228.361 166.042 236.459 184.656 236.459 207.586C236.459 233.753 226.607 254.93 206.902 271.116C187.467 287.302 159.664 295.395 123.493 295.395C90.0219 295.395 62.6239 287.707 41.2994 272.33C20.2448 256.953 6.47834 236.856 0 212.037Z" fill="#5BEB00"/>
</svg>
